<?xml version="1.0" encoding="utf-8"?>
<!-- Generator: Adobe Illustrator 19.2.1, SVG Export Plug-In . SVG Version: 6.00 Build 0)  -->
<svg version="1.1" id="Layer_1" xmlns="http://www.w3.org/2000/svg" xmlns:xlink="http://www.w3.org/1999/xlink" x="0px" y="0px"
	 viewBox="0 0 215.6 186.4" style="enable-background:new 0 0 215.6 186.4;" xml:space="preserve">
<style type="text/css">
	.st0{clip-path:url(#SVGID_1_);}
	.st1{fill:#CDEBF2;}
	.st2{fill:#FFFFFF;}
	.st3{fill:#69CBDF;}
	.st4{fill:#2D5972;}
	.st5{fill:#00B4A0;}
	.st6{fill:#D1EBFA;}
	.st7{fill:#313B4B;}
</style>
<g>
	<defs>
		<circle id="SVGID_3_" cx="118.3" cy="100.9" r="84.5"/>
	</defs>
	<clipPath id="SVGID_1_">
		<use xlink:href="#SVGID_3_"  style="overflow:visible;"/>
	</clipPath>
	<g class="st0">
		<g>
			<path class="st1" d="M118.3,106.8c-40.6,0-73.6,33-73.6,73.6c0,40.6,33,73.6,73.6,73.6c40.6,0,73.6-33,73.6-73.6
				C191.9,139.9,158.9,106.8,118.3,106.8z"/>
			<path class="st2" d="M118.3,255c-41.1,0-74.6-33.5-74.6-74.6c0-41.1,33.5-74.6,74.6-74.6c41.1,0,74.6,33.5,74.6,74.6
				C192.9,221.6,159.5,255,118.3,255z M118.3,107.8c-40,0-72.6,32.6-72.6,72.6c0,40,32.6,72.6,72.6,72.6c40,0,72.6-32.6,72.6-72.6
				C190.9,140.4,158.4,107.8,118.3,107.8z"/>
		</g>
		<g>
			<g>
				<path class="st3" d="M188.7,200.4c-1.3,0-3.7,1.4-4.6,2.4c-0.6,0.8-3.9,2.5-3.9,3.2c0,0.2-4,3.7-4.1,5.7
					c-0.2,2.4,0.6,7.6,3.4,6.9c3.3-0.8,4.6-5.2,5.9-8.2C186,209.4,189.3,200.4,188.7,200.4C187.8,200.5,188.9,200.4,188.7,200.4z"/>
				<g>
					<path class="st4" d="M179.1,219.8c-0.8,0-1.5-0.3-2.1-1c-1.7-1.8-1.9-5.8-1.8-7.1c0.1-1.7,2-3.7,3.7-5.6
						c0.2-0.2,0.3-0.3,0.4-0.5c0.2-0.7,1.1-1.3,2.5-2.3c0.5-0.4,1.3-0.9,1.5-1.1c0.9-1.1,3-2.3,4.6-2.7c0.1,0,0.2-0.1,0.3-0.1v0
						l0.1,0c0.1,0,0.2,0,0.3,0h1l0.1,1.9l-0.1,0c-0.5,3.1-3.2,9.5-3.3,9.6c-0.2,0.5-0.4,1-0.6,1.5c-1.2,2.9-2.6,6.4-5.9,7.2
						C179.6,219.7,179.3,219.8,179.1,219.8z M181.3,206.3c-0.1,0.3-0.3,0.5-0.9,1.2c-0.8,0.8-3.1,3.2-3.2,4.3
						c-0.1,1.7,0.3,4.6,1.3,5.6c0.4,0.4,0.6,0.4,0.9,0.3c2.3-0.6,3.5-3.5,4.5-6c0.2-0.5,0.4-1.1,0.7-1.6c0.5-1.1,2.3-6,3-8.4
						c-1,0.4-2.1,1.1-2.6,1.7c-0.4,0.4-1.1,0.9-1.9,1.5C182.5,205.4,181.5,206,181.3,206.3z"/>
				</g>
			</g>
			<g>
				<path class="st5" d="M67.2,202.3c-0.1,0.2,2.5,3.1,2.7,3.6c0.8,1.6,0.4,3,0.9,4.6c1.3,3.7-2.2,7.6-0.5,11.4
					c0.7,1.6-0.3,5.4,0,7.7c0.4,3.2,1.6,7.2,5.5,6.4c-2.2,0.4,0.3-6.8,0.3-6.7c0-1.2-0.9-3.3,0-4.4c1-1.2,3.5-2.6,3.9-3.9
					c0.5-1.5-0.1-2.9,2.2-2.9c1,0,1.4-3.1,2-3.5c1.3-1,0.7-3.1,2.3-4c2.1-1.2,2.1-2,2.4-4.5c0.4-3.1,2.8-5.1,3.6-8
					c0.3-4.2-3.7-3.3-6.2-5c-2.1-1.4-2.7-0.7-3.9-2.9c-0.8-1.4-3.3-3.3-4.6-4.3c-1.7-1.3-6.2-4.1-8.3-3.5c-1.5,0.5-5.3,4.5-6.2,0.8
					c-0.3-1.4-2.7-8.8-4.8-6.7c-3.2,3.1-4.7-3.8-1.3-5.9c0.9-0.5,3.4,0.5,3.9-0.2c1.2-1.9,3.7,2.5,4.1,2.6c0.1,0.1,0.9-5.7,2.1-6.3
					c3.1-1.6,1.6-5,5-6.4c0.8-0.3,0.8-2.2,1.7-2.8c1.4-1,2,0.2,3.6-0.8c-0.2,0.1,0.2-3,0.4-3.5c0.2-0.5,2.7-1.3,2.7-0.9
					c0,0.2-1.3,3.4,0,2.9c0.4-0.2,1.7,1.4,2.3,0.3c0.6-1-1.9-6.1-2.5-7.1c-1-1.9-1.7-5-3.9-4.7c-0.8,0.1-3.8-5.1-5.9-3.8
					c-0.2,0.1-1.2,9.7-2.5,9.4c-0.7-0.2-0.9-1.6-1.2-2c-0.4-0.6-1.3-0.3-1.9-0.6c-1.5-0.8-2.9-2-2.9-3.8c-0.1-2,10.7-8.8,7.4-10.2
					c3.1,1.3,5.9-0.9,4.6,4.3c-6.1,2.5,7.2,5.5,3.7,0.4c1.6,2.2,2-2.1,2-2.4c0-0.3-3-1.4-1.9-2.2c1.2-0.9-1.7-2.2-2.2-2.2
					c-0.8,0-4-2.8-5.2-2.1c-1.7,1-1.6-1.9-3.2,0.8c-1.1,1.9,1.4,3.7,0.1,5.1c-0.4,0.4-1.6-2.5-1.7-2.6c-2-3.2-2.4,2-3,2.3
					c-0.4-0.1-0.7-0.3-1.1-0.4c-0.8,1-1.6,2-2.4,3c-1.9,2.5-3.6,5.2-5.2,8c-3.1,5.4-13.5,25.7-6.6,30c0.1,0.1,0.1-1.9,0.2-2
					c0.5-0.4,2,3.5,2.1,3.8c0.5,2.6,1.8,3,4.3,3.8c3.6,1.2,5.6,3.9,8.6,5.6c4,2.1,2.6,3.5,1.6,7.7c-0.2,1,0.9,4.4,1.1,4.4
					C64.1,197.8,67.2,202.3,67.2,202.3C67.1,202.5,67.3,202.1,67.2,202.3z"/>
				<g>
					<path class="st2" d="M74.9,237.1c-2.1,0-4.7-1.3-5.5-7.4c-0.1-1.1,0-2.5,0.1-3.8c0.1-1.4,0.3-3,0-3.7c-1-2.3-0.4-4.5,0.1-6.6
						c0.4-1.7,0.9-3.4,0.4-4.9c-0.3-0.8-0.3-1.5-0.4-2.2c-0.1-0.8-0.1-1.5-0.5-2.2c-0.1-0.2-0.6-0.8-1-1.3c-0.3-0.3-0.5-0.6-0.7-0.9
						l0,0l-0.1-0.1c-0.2-0.3-0.4-0.5-0.6-0.7h0l-0.6-1l0,0c-2.4-3.6-1.9-4.5-1.8-4.9c0,0,0,0,0,0c-0.5-1.2-1-3.4-0.8-4.4
						c0.2-0.8,0.4-1.4,0.5-2c0.8-2.7,0.9-3.2-1.6-4.6c-1.3-0.7-2.5-1.6-3.5-2.5c-1.5-1.2-3-2.4-4.9-3c-2.4-0.8-4.3-1.4-5-4.6
						c-0.1-0.2-0.3-0.8-0.6-1.4c-0.2,0.2-0.4,0.3-0.8,0.3h-0.3l-0.3-0.2c-8.1-5,3.8-27,6.2-31.3c1.6-2.8,3.3-5.5,5.3-8.1
						c0.8-1,1.6-2,2.4-3l0.5-0.6l0.7,0.3c0,0,0.1,0,0.1,0.1c0-0.1,0-0.1,0-0.2c0.4-1.3,0.9-2.9,2.3-2.9c0.6,0,1.1,0.4,1.5,0.8
						c0-0.5,0.1-1.1,0.4-1.7c0.5-0.9,1.1-1.7,2-1.7c0.5,0,0.9,0.3,1.1,0.5c0.1,0,0.2,0.1,0.2,0.1c0,0,0.1,0,0.2-0.1
						c0.3-0.2,0.6-0.2,0.9-0.2c1.1,0,2.3,0.8,3.5,1.5c0.5,0.3,1.1,0.7,1.3,0.7c0.6,0,2.9,0.9,3.3,2.2c0.2,0.5,0.1,1-0.2,1.4
						c0.2,0.2,0.5,0.3,0.7,0.4c0.7,0.4,1.2,0.7,1.2,1.3c0,0.3-0.1,2.6-1.1,3.6c-0.1,0.1-0.2,0.2-0.3,0.3c0,0.4-0.1,0.8-0.2,1.1
						c-0.6,1.1-2.1,1.6-4.1,1.2c0.3,0.3,0.5,0.6,0.8,0.8c0.3,0.3,0.6,0.7,0.9,0.9c2.2-0.1,3.2,2.1,4,3.9c0.2,0.5,0.4,0.9,0.6,1.4
						c0.1,0.3,3.4,6.4,2.4,8.1c-0.5,0.8-1.1,0.9-1.5,0.9c-0.6,0-1.2-0.3-1.5-0.6c0,0-0.1-0.1-0.1-0.1c-0.5,0.1-1.1-0.1-1.4-0.5
						c-0.4-0.5-0.3-1.3-0.1-2.2c-0.2,0.1-0.3,0.1-0.4,0.2c-0.1,0.6-0.4,2.4-0.4,2.8c0-0.3-0.4-0.8-1-0.8l0,1l0.6,0.9c0,0,0,0-0.1,0
						l-0.2,0.1c-0.7,0.4-1.5,0.5-2.3,0.4c-0.3,0-0.5-0.2-1,0.2c-0.2,0.1-0.4,0.7-0.6,1.1c-0.3,0.7-0.6,1.5-1.4,1.8
						c-1.3,0.6-1.6,1.4-2,2.7c-0.4,1.2-1,2.8-2.9,3.8c-0.2,0.2-0.6,1.2-1.3,4.7c-0.2,1.1-0.4,1.7-1.2,1.7h-0.2l-0.2-0.1
						c-0.3-0.1-0.5-0.4-0.9-1c-0.9-1.2-1.5-1.9-1.9-2c-0.5,0.7-1.3,0.7-1.6,0.7c-0.4,0-0.8-0.1-1.2-0.1c-0.4,0-0.8-0.1-1.1-0.1
						c-0.2,0-0.3,0-0.3,0c-1.3,0.8-1.7,2.7-1.3,4c0.1,0.5,0.4,0.8,0.6,0.8c0.1,0,0.4,0,0.9-0.5c0.5-0.5,1.1-0.6,1.5-0.6
						c3,0,5,7.8,5,7.9c0.2,0.8,0.5,0.8,0.6,0.8c0.7,0,1.8-0.8,2.6-1.3c0.7-0.4,1.3-0.8,1.8-1c0.3-0.1,0.7-0.1,1-0.1
						c3.1,0,8,3.6,8.2,3.8c1.9,1.4,4.1,3.2,4.9,4.6c0.6,1.2,0.9,1.3,1.7,1.6c0.5,0.2,1.1,0.5,1.9,1c0.7,0.4,1.6,0.7,2.4,0.9
						c1.9,0.5,4.5,1.3,4.3,5l0,0.2c-0.4,1.4-1.1,2.6-1.8,3.8c-0.8,1.3-1.5,2.6-1.7,4l0,0.1c-0.3,2.4-0.5,3.8-2.9,5.2
						c-0.5,0.3-0.6,0.7-0.8,1.5c-0.2,0.8-0.5,1.8-1.4,2.4c0,0.1-0.2,0.6-0.4,1c-0.4,1.3-0.9,2.7-2.2,2.7c-0.9,0-0.9,0-1,1
						c-0.1,0.4-0.1,0.8-0.2,1.2c-0.3,1.1-1.5,2-2.6,2.9c-0.6,0.5-1.1,0.9-1.4,1.3c-0.3,0.4-0.1,1.5,0,2.3c0.1,0.5,0.2,1,0.2,1.5l0,1
						l-0.3,0c-0.5,1.5-1.2,4.3-0.9,4.9c0-0.1-0.2-0.2-0.3-0.2l0.4,2C75.7,237.1,75.3,237.1,74.9,237.1z M68.4,202.4
						c0.3,0.4,0.8,1,1.2,1.4c0.8,1,1.1,1.4,1.3,1.7c0.6,1.1,0.6,2.1,0.7,3c0,0.6,0.1,1.2,0.3,1.7c0.7,2.1,0.2,4.1-0.3,6
						c-0.5,1.9-0.9,3.6-0.2,5.3c0.5,1.1,0.4,2.8,0.2,4.6c-0.1,1.2-0.2,2.4-0.1,3.3c0.4,3.1,1.2,4.9,2.6,5.5
						c-0.1-1.9,0.8-4.7,1.2-5.7c0-0.3-0.1-0.6-0.2-1c-0.2-1.3-0.6-2.8,0.4-3.9c0.4-0.5,1.1-1,1.7-1.6c0.8-0.6,1.8-1.5,2-2
						c0.1-0.3,0.1-0.6,0.2-0.9c0.2-1,0.4-2.6,2.7-2.7c0.2-0.3,0.4-1,0.6-1.4c0.3-0.9,0.5-1.6,1.1-2c0.3-0.2,0.4-0.7,0.6-1.3
						c0.2-0.9,0.6-2.1,1.8-2.8c1.6-0.9,1.6-1.3,1.9-3.7c0.2-2,1.1-3.5,2-4.9c0.6-1.1,1.2-2.1,1.6-3.2c0.1-1.9-0.8-2.2-2.8-2.8
						c-0.9-0.3-2-0.6-3-1.2c-0.6-0.4-1.1-0.6-1.5-0.8c-1.1-0.5-1.8-0.8-2.7-2.5c-0.5-0.8-1.9-2.2-4.3-4c-1.7-1.3-5.2-3.4-7-3.4
						c-0.2,0-0.3,0-0.4,0.1c-0.2,0.1-0.8,0.4-1.3,0.8c-1.1,0.7-2.3,1.5-3.4,1.6c2.1,1.7,1.6,3.5,0.9,5.8c-0.2,0.6-0.3,1.2-0.5,1.9
						c-0.1,0.6,0.6,3.1,0.9,3.6c-0.1-0.1-0.3-0.4-0.8-0.4l0.1,2c0.3,0,0.5-0.3,0.5-0.5c0,0.2,0.3,1.1,1.2,2.5l0.4,0.6h0.1l0.6,0.9
						l0,0L68.4,202.4L68.4,202.4z M47.9,171.3c1.6,0,3,4.6,3,4.7c0.4,1.9,1.1,2.3,3.6,3.1c2.3,0.7,3.9,2.1,5.5,3.4
						c0.8,0.6,1.5,1.2,2.4,1.8c-0.1-0.2-0.2-0.4-0.2-0.7c-0.6-2.5-2.2-6.1-3-6.3c0,0,0,0-0.1,0.1c-0.7,0.7-1.5,1.1-2.3,1.1
						c-1.2,0-2.1-0.8-2.5-2.3c-0.6-2,0-4.9,2.2-6.3c0.4-0.2,0.8-0.3,1.3-0.3c0.4,0,0.9,0.1,1.3,0.1c0.4,0.1,0.9,0.1,1.1,0.1
						c0.4-0.5,0.9-0.7,1.4-0.7c1,0,1.9,0.8,2.8,1.9c0.6-2.8,1.2-4.4,2.2-4.9c1.2-0.6,1.5-1.5,1.9-2.6c0.5-1.3,1-2.9,3.1-3.8
						c0-0.1,0.2-0.5,0.3-0.7c0.3-0.7,0.6-1.5,1.3-2c0.8-0.5,1.6-0.7,2.4-0.6c0.2,0,0.4,0.1,0.8,0c0-1.3,0.5-3.1,0.5-3.3
						c0.5-1,2.6-1.6,3.3-1.6c0.2,0,0.4,0,0.5,0.1c-0.4-0.9-0.8-1.8-1.2-2.5c-0.3-0.5-0.5-1-0.7-1.5c-0.7-1.7-1.3-2.8-2.2-2.6l-0.2,0
						c-0.7,0-1.2-0.6-2.2-1.6c-0.7-0.8-2-2.3-2.9-2.4c0,0.2-0.1,0.5-0.1,0.8c-1,6.9-1.7,8.7-3.2,8.7l-0.3,0c-1-0.2-1.3-1.2-1.6-2
						c-0.1-0.2-0.1-0.3-0.2-0.4c0,0-0.3,0-0.4,0c-0.3,0-0.7-0.1-1.1-0.3c-2.2-1.1-3.4-2.7-3.5-4.6c-0.1-1.2,1.3-2.5,4-4.9
						c0.8-0.7,1.9-1.7,2.7-2.6l-0.4,0c-0.8,0-1.4-0.8-2.4-3c-0.1-0.1-0.1-0.2-0.1-0.2c-0.1-0.1-0.2-0.2-0.2-0.3
						c-0.2,0.4-0.3,0.9-0.4,1.2c-0.3,0.9-0.5,1.5-1.1,1.8l-0.3,0.1l-0.4-0.1c-0.2,0-0.3-0.1-0.5-0.2c-0.6,0.8-1.3,1.6-1.8,2.4
						c-1.9,2.5-3.6,5.1-5.1,7.9c-4.3,7.6-10.8,21.9-8.2,27.2c0.1-0.2,0.2-0.4,0.4-0.5l0.3-0.2L47.9,171.3z M81.1,154.2
						c0.3,0.1,0.5,0.2,0.8,0.4c0.1,0,0.1,0.1,0.2,0.1c-0.1-0.4-0.3-1.1-0.6-1.8c0,0.1,0,0.1-0.1,0.2
						C81.2,153.5,81.1,153.9,81.1,154.2z M71.1,133.9c-0.4,1.4-2.1,3.1-4.7,5.4c-1.3,1.1-3.2,2.9-3.3,3.5c0.1,1.5,1.5,2.4,2.4,2.9
						c0.1,0,0.3,0.1,0.5,0.1c0.5,0.1,1.3,0.2,1.8,0.8c0.2,0.2,0.3,0.6,0.4,0.9c0.3-1.1,0.8-3.2,1.2-6.3c0.3-1.8,0.3-1.9,0.8-2.2
						c0.4-0.3,0.9-0.4,1.4-0.3c0,0,0,0,0-0.1c-0.1-0.7,0.1-1.6,1.7-2.5c0.3-1.5,0.1-1.8,0.1-1.9c-0.1-0.1-0.8-0.2-1.2-0.2
						C71.9,134,71.5,133.9,71.1,133.9z M73.7,138.2c0.4,0.3,1.5,0.7,2.7,0.7c0.8,0,1.1-0.2,1.1-0.3l0,0c0,0,0.1-0.3-0.4-1l1.4-1
						c0.2-0.3,0.3-1,0.4-1.5c-0.1,0-0.1-0.1-0.2-0.1c-0.9-0.5-1.9-1.1-1.9-2.1c0-0.2,0-0.6,0.4-1c-0.4-0.3-1.1-0.6-1.4-0.7
						c0,0,0,0,0,0c-0.5,0-1.1-0.3-2.2-1c-0.7-0.5-2-1.2-2.5-1.2c-0.3,0.2-0.7,0.3-1.1,0.3c-0.6,0-1-0.2-1.3-0.4
						c-0.1,0.1-0.2,0.3-0.4,0.6c-0.3,0.5-0.1,1,0.2,1.9c0.3,0.8,0.7,1.9,0.2,2.9c0.3-0.4,0.6-0.8,0.6-1c0,0,0,0,0,0.1l0.7-1.8
						c0.8,0.3,1.6,0.4,2.4,0.4c1,0.1,2.1,0.1,2.7,1c0.6,0.8,0.6,2,0.1,4l-0.1,0.5l-0.5,0.2C74.1,137.9,73.8,138.1,73.7,138.2z"/>
				</g>
			</g>
			<g>
				<path class="st3" d="M70.8,126.4c3.5-0.6,2.5-3.5,6-4.9c1.3-0.5,5.4-5.4,6.3-5.3c-1.4-0.2-4.9,2.5-6,3.2
					c-3.2,2.2-6.2,4.6-9.1,7.3C69,126.7,69.9,126.6,70.8,126.4C71.7,126.3,70.3,126.5,70.8,126.4z"/>
				<g>
					<path class="st4" d="M65.3,128l2.1-2c2.9-2.7,6-5.2,9.2-7.4c0.3-0.2,0.7-0.5,1.2-0.8c2.2-1.5,4.2-2.7,5.5-2.6l-0.3,2
						c0.2,0,0.3,0,0.3,0c-0.4,0.2-1.8,1.5-2.7,2.4c-1.6,1.6-2.6,2.5-3.4,2.8c-1.4,0.5-1.9,1.3-2.4,2.2c-0.7,1-1.4,2.2-3.3,2.6
						c-0.2,0.1-0.4,0.1-0.7,0.1c-0.9,0.1-1.8,0.2-2.6,0.3L65.3,128z M73,123.7c-0.7,0.5-1.3,1.1-2,1.7
						C72.1,125.1,72.5,124.5,73,123.7z"/>
				</g>
			</g>
			<g>
				<path class="st5" d="M124.1,218.1c3.2-1.9,5.3-7.2,6.5-10.5c0.8-2.1,1.9-3.7,2.4-6c0.5-2.6-0.2-5.8,1.4-8.1
					c1.1-1.7,2.5-3.1,3.6-4.8c0.5-0.8,2-7.6-0.1-5.5c-2.7,2.8-7.3-8.2-7.6-9.9c0.5,2.9,4.9,9.1,8,8.4c2.2-0.5,9.8-6.7,4.5-8.2
					c-0.8-0.2-4.2-2.4-3.5-3.6c1-1.7,4.2,3.3,4.6,4c0.2,0.4,3.1,0.2,3.5,0.1c3.2-0.5,1.5,2.1,3.7,2.6c0.9,0.2,4.3,10.8,5.1,9.2
					c1.6-3,2.5-7.1,5.4-8.9c3.1-1.9,2.6,1.9,3.8,3.3c1,1.1,3.7,2.6,2.8,4.8c-0.8,1.6,2.9,5.6,3.4,4.8c1.4-1.9-2.7-3.9-2-6.3
					c-0.1,0.4,4.9,3.5,5.2-1c0.1-1.2,1.5-3.3,0.9-4.4c-0.7-1.4,1.4-1.7,2.3-2.6c1.8-1.8,4.1-4.4,3.3-7.1c-0.3-1.2-1.2-2.2-1.4-3.4
					c-0.2-1.3,1.8-1.4,1.6-2.6c0,0.1,1.9,3.1,1.9,3.1c1.7,0.8,2.2-5.7,2.4-6.2c0.4-1,1.6-1.9,2.1-2.7c-0.9-2.6-1.9-5.1-3.1-7.5
					c-3.7-7.8-8.9-15-15.1-21.1c-0.5,0-8.6-7.3-8.9-3.9c0,0.1-12.2,4.5-9.2,6c-1.8-0.9-3,0.4-5.2-0.8c0,0-6.7,3.6-6.2,3.7
					c-1.6-0.3-4,0.4-5.3,1.4c-0.8,0.6-0.9-0.6-1.4-0.8c-1.4-0.7-1,1.1-1.8,1.7c0.2-0.2-5.6-3.2-6-3.7c-2-1.8-3.9-1.1-6,0.2
					c-2,1.2-3,4.8-4.9,5.6c-1.2,0.5-2.9,2.5-2.8,3.9c0.1,1.8,0.8,4.7,1.6,6.1c0.4,0.7-3.5,2.7-4.2,3.4c0.9-2.6-2.3-5.5-1.5-7.3
					c0,0.1-1.3-0.8-1.6,0.5c-0.2,0.9-0.6,2.3-0.1,3.1c0.5,0.9,0.2,4-0.8,4.8c0.6-0.4,3.4,0.6,3.6,0.4c-1,0.7-2.3,0.7-3.2,1.9
					c-0.2,0.2,2.1,2.3,2.1,3.1c0,1.3-2.8,0.2-3.7,1.2c-1.2,1.3-1.1,2.8-0.7,4.5c0.2,1.1,3.9,1.5,4.5,0.8c1-1.3,2.2-3.1,3.1-4.5
					c0.7-1.2,2.7-1,2.7,0.4c0.1,2.7,1.2,1.1,1.7,0.1c0.8-1.5,3,4.2,2,3.9c2.1,0.7,2.2-4.6,0.6-5.5c2.3,1.4,3,7.3,5.5,7.4
					c0.8,0-1.2-4.4,0.2-4.4c-1.1,0,1,3.5,1.6,3.9c0,0,4.4,0.4,4.3,0c0.6,2.8-2.6,2.8-4.3,2.7c-1.9-0.2-4.3,1.1-6,0.3
					c-1-0.5-4.2-1.9-3.8-3.4c0.5-1.5-4.9-0.2-5.7-0.1c-2.3,0.4-3.7,0.6-5.7,1.5c-1,0.4-1.6,4-2.2,5.1c-2.5,4.9-4.4,8.2-2.2,13.9
					c0.7,1.8,2.4,3.8,4.4,4.1c2.6,0.4,3.3-1.4,5.3-1.2c4.8,0.5,3.9,3,4.7,6.8c0.4,2,1.6,4,1.8,6.1c0.3,3.2-0.9,4.8,0.5,8
					C117.8,211.5,118.4,221.4,124.1,218.1C125,217.5,123.1,218.6,124.1,218.1z"/>
				<g>
					<path class="st2" d="M122,219.7L122,219.7c-3.6,0-4.8-4.7-5.6-8.2c-0.2-1-0.5-2-0.7-2.5c-0.9-2.2-0.8-3.8-0.6-5.3
						c0.1-0.9,0.2-1.8,0.1-2.9c-0.1-1-0.5-2.1-0.9-3.2c-0.3-0.9-0.7-1.9-0.9-2.8c-0.2-0.8-0.3-1.6-0.4-2.2c-0.3-2.5-0.5-3.5-3.5-3.8
						c-0.1,0-0.1,0-0.2,0c-0.5,0-0.9,0.2-1.4,0.5c-0.9,0.4-1.9,1-3.7,0.7c-2.4-0.4-4.4-2.7-5.2-4.7c-2.4-6-0.4-9.6,2-14.3l0.3-0.5
						c0.2-0.3,0.4-1,0.6-1.7c0.6-2.2,1.1-3.5,2.1-3.9c0.2-0.1,0.4-0.2,0.6-0.2c-0.9-0.3-1.7-0.8-1.9-1.6c-0.4-1.7-0.5-3.7,1-5.3
						c0.7-0.8,1.9-0.8,2.6-0.8l0.4,0c0.1,0,0.2,0,0.3,0c-0.3-0.4-0.7-0.9-0.9-1.2c-0.8-0.9-1.3-1.5-0.8-2.2c0.3-0.4,0.6-0.7,0.9-0.9
						l-1.1-1.6c0.5-0.4,0.8-2.9,0.5-3.4c-0.6-1.1-0.3-2.5-0.1-3.5l0.1-0.4c0.2-0.9,0.8-1.5,1.7-1.5c0.4,0,0.8,0.1,1,0.2
						c0,0-0.1,0-0.2,0l0,0v1l0.9,0.4c-0.2,0.4,0.3,1.4,0.7,2.2c0.4,0.8,0.8,1.7,1,2.7c0.6-0.4,1.6-1,2-1.4c-0.8-1.6-1.4-4.3-1.5-6.1
						c-0.1-2,2-4.2,3.4-4.9c0.7-0.3,1.4-1.4,2-2.4c0.8-1.2,1.6-2.4,2.7-3.2c1.2-0.7,2.6-1.4,4-1.4c1.2,0,2.2,0.5,3.2,1.3
						c0.2,0.2,1.5,0.9,2.5,1.4c1.2,0.7,2,1.1,2.6,1.5c0.2-0.5,0.6-1.4,1.6-1.4c0.3,0,0.6,0.1,1,0.2c0.3,0.2,0.6,0.4,0.7,0.7
						c1.4-0.9,3.5-1.5,5.1-1.4c0.8-0.6,2.3-1.5,5.5-3.2l-0.1-1.2l1.6,0.8c1.1,0.6,1.7,0.4,2.4,0.4c0.4,0,0.7-0.1,1.1,0
						c0.7-1.3,3.3-2.8,9.1-5.2c0.2-0.1,0.4-0.2,0.6-0.2c0.3-0.8,0.9-1.2,1.8-1.2c1.7,0,4.4,1.9,7.1,4c0.4,0.3,0.9,0.7,1.1,0.8h0.2
						l0.3,0.3c6.3,6.2,11.5,13.4,15.3,21.4c1.2,2.5,2.2,5,3.1,7.6l0.2,0.5l-0.3,0.4c-0.3,0.4-0.6,0.8-1,1.2c-0.4,0.5-0.9,1-1.1,1.4
						c0,0.1-0.1,0.4-0.1,0.8c-0.5,3.3-1.1,6-2.9,6c-0.2,0-0.5-0.1-0.7-0.2c-0.3-0.1-0.9-1.1-1.5-2.1c-0.1,0.1-0.1,0.1-0.2,0.1
						c-0.1,0.1-0.4,0.3-0.4,0.4c0.1,0.5,0.3,1.1,0.6,1.6c0.3,0.5,0.5,1,0.7,1.6c1,3.6-2.2,6.7-3.5,8.1c-0.4,0.4-0.9,0.7-1.4,0.9
						c-0.2,0.1-0.6,0.3-0.8,0.5c0.5,1.1,0,2.4-0.4,3.6c-0.2,0.5-0.4,1.1-0.4,1.4c-0.1,2.1-1.2,3.4-3,3.4c-0.5,0-1-0.1-1.5-0.3
						c0.1,0.2,0.2,0.3,0.3,0.5c0.8,1.1,2,2.7,0.8,4.3c-0.2,0.3-0.6,0.5-1,0.5c-1.3,0-2.9-2.1-3.5-2.9c-0.9-1.4-1.1-2.6-0.7-3.4
						c0.4-0.8-0.2-1.5-1.6-2.7c-0.4-0.3-0.7-0.6-1-1c-0.5-0.6-0.8-1.4-1-2.1c-0.1-0.4-0.4-1.2-0.6-1.3c-0.1,0-0.4,0-0.9,0.4
						c-1.8,1.1-2.8,3.5-3.7,5.7c-0.4,0.9-0.8,1.9-1.3,2.8c-0.2,0.4-0.7,0.7-1.1,0.7c-1.2,0-1.9-1.4-3.7-5.8
						c-0.6-1.3-1.3-3.1-1.7-3.6c-1.3-0.4-1.7-1.4-1.9-2c-0.2-0.6-0.2-0.6-0.6-0.6c-0.2,0-0.4,0-0.6,0.1c-0.3,0-1.1,0.1-1.9,0.1
						c0,0.1,0,0.3,0,0.4c-0.1,2.6-3.8,5.7-6.1,6.8c0,0.1,0.1,0.1,0.1,0.2c0.8,1.4-0.4,6-0.9,6.7c-0.6,0.9-1.3,1.8-1.9,2.6
						c-0.6,0.8-1.2,1.5-1.7,2.3c-0.9,1.3-0.9,3-1,4.8c0,1-0.1,2-0.2,2.9c-0.3,1.6-0.9,3-1.5,4.2c-0.3,0.6-0.6,1.3-0.9,2
						c-1.2,3-3.3,8.6-6.7,10.8l0,0l-0.1,0.1c0,0-0.1,0.1-0.1,0.1l0,0h0l0,0l0,0c0,0,0,0,0,0h0c-0.1,0-0.1,0.1-0.2,0.1l0,0l0,0
						c-0.1,0-0.1,0.1-0.2,0.1C123.4,219.5,122.6,219.7,122,219.7z M109.3,186.8c0.1,0,0.3,0,0.4,0c4.6,0.4,4.9,2.9,5.3,5.5
						c0.1,0.7,0.2,1.3,0.3,2.1c0.2,0.8,0.5,1.7,0.8,2.5c0.4,1.2,0.9,2.4,1,3.6c0.1,1.3,0,2.4-0.1,3.4c-0.2,1.4-0.3,2.6,0.5,4.3
						c0.3,0.7,0.5,1.7,0.8,2.8c0.7,2.7,1.6,6.7,3.7,6.7l0,0c0.4,0,0.9-0.2,1.5-0.5l0.2-0.1c2.9-1.8,4.9-7.1,6-9.9
						c0.3-0.8,0.6-1.5,0.9-2.1c0.6-1.2,1.1-2.3,1.4-3.7c0.1-0.8,0.2-1.7,0.2-2.6c0.1-1.9,0.1-4.1,1.3-5.8c0.6-0.8,1.2-1.6,1.8-2.4
						c0.7-0.8,1.3-1.6,1.8-2.5c0.3-0.5,0.7-2.5,0.8-3.8c-0.4,0.2-0.8,0.3-1,0.3c-3.5,0-6.8-8.7-7.1-9.6c-0.2-0.5-0.4-1-0.5-1.5
						l2-0.4c0,0.1,0.1,0.4,0.4,1.2c1.2,2.9,4.2,6.5,6.2,6.5c0.1,0,0.2,0,0.3,0c1.4-0.3,5.5-3.6,5.5-5.3c0-0.2,0-0.6-1.1-1
						c-0.8-0.2-3.6-1.9-4.2-3.5c-0.2-0.5-0.2-1.1,0.1-1.5c0.3-0.5,0.8-0.8,1.4-0.8c1.9,0,4.1,3.4,4.7,4.5c0.2,0,0.4,0,0.9,0
						c0.8,0,1.7-0.1,1.8-0.1c2.7-0.4,3.2,1.1,3.4,1.8c0.2,0.6,0.3,0.7,0.7,0.8c0.8,0.2,1.2,1,2.8,4.7c0.5,1.1,1.2,2.9,1.8,3.9
						c0.2-0.5,0.5-1,0.7-1.6c1.1-2.6,2.2-5.2,4.5-6.7c0.7-0.5,1.4-0.7,1.9-0.7c1.7,0,2.2,1.7,2.5,2.8c0.2,0.5,0.3,1.1,0.6,1.4
						c0.2,0.2,0.5,0.5,0.8,0.8c0.8,0.7,2,1.7,2.3,3.1l1.2,0.3c0.1-0.4-0.1-0.7-0.1-0.7c0.2,0.2,1.4,0.9,2.3,0.9c0.3,0,0.9,0,1-1.5
						c0-0.6,0.3-1.2,0.5-1.9c0.2-0.5,0.6-1.7,0.5-1.9c-0.9-1.8,0.8-2.7,1.6-3.2c0.4-0.2,0.7-0.4,0.9-0.6c1.7-1.7,3.6-4,3-6.1
						c-0.1-0.4-0.3-0.8-0.6-1.3c-0.3-0.7-0.7-1.4-0.8-2.2c-0.2-1.2,0.7-1.8,1.2-2.2c0.1-0.1,0.4-0.3,0.4-0.4c0,0,0,0,0,0l1-0.2
						l0.9-0.5c0.1,0.2,0.9,1.4,1.4,2.2c0.3-0.7,0.6-2,0.9-3.9c0.1-0.8,0.2-1.1,0.3-1.3c0.3-0.7,0.9-1.3,1.4-1.9
						c0.2-0.2,0.4-0.4,0.5-0.6c-0.8-2.3-1.8-4.7-2.9-6.9c-3.7-7.7-8.6-14.7-14.7-20.7c-0.3-0.2-0.7-0.5-1.5-1.1
						c-1.4-1.1-4.6-3.5-5.8-3.6c0,0,0,0,0,0c-0.1,0.6-0.3,0.7-1.7,1.3c-6.5,2.7-7.8,3.8-8,4.2c0.1-0.1,0-0.3-0.1-0.4l-0.9,1.8
						c-0.5-0.3-1.1-0.2-1.8-0.2c-1,0.1-2,0-3-0.4c-4.7,2.6-5.4,3.1-5.5,3.2c0.1-0.1,0.3-0.5,0.2-0.9l-0.9,0.2l-0.2,1
						c-1.2-0.2-3.3,0.3-4.5,1.2c-0.3,0.2-0.7,0.4-1,0.4c-0.7,0-1.1-0.5-1.3-0.8c-0.1,0.3-0.2,0.6-0.5,1l0,0.1l-0.4,0.3
						c0,0,0,0-0.1,0l-0.6-0.8l-1,0c0,0.4,0.2,0.6,0.3,0.7c-0.3-0.2-2-1.2-3.2-1.9c-2-1.1-2.6-1.5-2.8-1.7c-0.6-0.6-1.2-0.8-1.9-0.8
						c-1,0-2,0.6-3,1.1c-0.8,0.5-1.5,1.5-2.1,2.5c-0.8,1.3-1.7,2.6-2.9,3.1c-0.9,0.4-2.3,2-2.2,2.9c0.1,1.7,0.7,4.5,1.4,5.7
						c0.8,1.3-0.9,2.4-3.1,3.8c-0.5,0.3-1.1,0.7-1.3,0.9l-1.6-1.1c0.4-1-0.2-2.3-0.8-3.5c-0.2-0.5-0.5-1-0.6-1.5
						c-0.1,0.4-0.1,0.9,0.1,1.1c0.5,0.9,0.5,2.8,0,4.4c0.3,0.1,0.6,0.1,0.9,0.2c0.3,0.1,0.8,0.2,0.9,0.2h0c-0.1,0-0.3,0-0.5,0.2
						l1.2,1.6c-0.5,0.4-1.1,0.6-1.5,0.8c-0.4,0.1-0.7,0.3-0.9,0.4c0.1,0.1,0.1,0.1,0.2,0.2c1,1.2,1.7,2,1.6,2.8
						c0,1.7-1.9,1.7-2.5,1.7l-0.4,0c-0.8,0-1,0.1-1.1,0.1c-0.8,0.9-0.8,2-0.5,3.5c0.3,0.2,1.1,0.5,2.1,0.5c0.4,0,0.6,0,0.7-0.1
						c1-1.2,2-2.9,2.9-4.4c0.5-0.8,1.3-1.2,2.3-1.2c1.1,0,1.9,0.6,2.2,1.6c0.4-0.5,0.9-0.6,1.1-0.6c1,0,1.9,1.3,2.4,2.6c0,0,0,0,0,0
						c0-1.1-0.4-2-0.6-2.1l0,0l1.1-1.7c0,0,0,0,0,0c1.3,0.8,2,2.5,2.8,4.1c0.3,0.7,0.7,1.4,1,2c-0.2-1.1-0.3-2.1,0.2-2.8
						c0.3-0.3,0.7-0.5,1.1-0.5l0,0c0,0,0,0,0,0v2c0,0,0,0,0,0c0.3,0,0.5-0.2,0.5-0.4c0,0,0,0.1,0,0.1c0,0,0,0,0,0
						c0.2-0.2,0.2-0.4,0.2-0.4c0,0.5,0.9,2,1.3,2.6c0.7,0.1,2,0.2,2.9,0.2c0.4,0,0.5,0,0.6,0c0,0-0.3,0.1-0.5,0.4l0.8,0.5l1-0.2v0
						l0,0c0,0,0,0,0,0l0.1,0.4l0,0c0.1,1-0.3,1.7-0.6,2.1c-0.7,0.9-1.9,1.3-3.7,1.3c-0.4,0-0.8,0-1.2-0.1c-0.7-0.1-1.4,0.1-2.3,0.3
						c-1.4,0.3-3,0.5-4.1-0.1l-0.3-0.2c-1.4-0.7-4.1-2-4-3.9c-0.1,0-0.2,0-0.3,0c-1.1,0-2.8,0.3-3.6,0.5c-0.2,0.1-0.4,0.1-0.6,0.1
						c-2.3,0.4-3.6,0.6-5.5,1.4c-0.3,0.3-0.7,1.8-1,2.7c-0.2,0.8-0.5,1.5-0.7,2l-0.3,0.5c-2.3,4.5-3.9,7.5-1.9,12.6
						c0.6,1.5,2.1,3.2,3.6,3.4c1.1,0.2,1.7-0.2,2.5-0.5C107.6,187.1,108.3,186.8,109.3,186.8z M169.3,186.2c0.3,0.7,0.8,1.4,1.3,1.9
						c-0.1-0.2-0.3-0.5-0.6-0.9C169.7,186.9,169.5,186.5,169.3,186.2z M114.3,162.8c0.7,0,1.6,0.1,2.1,0.7c0.3,0.4,0.3,0.8,0.2,1.3
						c0,0-0.1,0.6,2.9,2.1l0.4,0.2c0.6,0.3,1.6,0.1,2.8-0.1c0.9-0.2,1.9-0.4,2.8-0.3c0.3,0,0.6,0,1,0c1.1,0,1.8-0.2,2.1-0.5
						c0,0,0,0,0,0c-1.1,0-2.6-0.1-3.1-0.2l-0.5,0l-0.3-0.2c0,0-0.1,0-0.1-0.1c0,0.1-0.1,0.2-0.2,0.3c-0.2,0.3-0.6,0.4-0.9,0.4
						c-1.8-0.1-2.8-1.8-3.6-3.6c-0.5,1.7-1.6,1.8-2.1,1.8c-0.2,0-0.4,0-0.6-0.1l0,0l0.3-1l0.1-1c-0.5,0-0.8,0.4-0.8,0.7
						c0-0.4-0.4-1.6-0.8-2.3c-0.5,0.8-1,1.2-1.6,1.2c-1.4,0-1.5-1.8-1.5-2.4c0-0.1,0-0.2-0.3-0.2c-0.2,0-0.4,0.1-0.6,0.3
						c-0.8,1.2-1.6,2.6-2.5,3.8c0.1,0,0.2,0,0.3-0.1c0.2,0,0.3-0.1,0.5-0.1C111.2,163.1,113,162.8,114.3,162.8z"/>
				</g>
			</g>
			<g>
				<path class="st3" d="M184.7,184.6c0.1,0.1,4-2.1,0.7-3.5c-0.6-0.3-1,1.2-1.4,1.4C182.4,183.4,184.3,183.7,184.7,184.6
					C184.8,184.8,184.7,184.4,184.7,184.6z"/>
				<g>
					<path class="st4" d="M185.3,185.7l-1.2,0l-0.3-0.6c-0.1-0.1-0.3-0.3-0.5-0.4c-0.4-0.3-1-0.8-1-1.6c0.1-0.8,0.7-1.2,1.1-1.4
						c0.1-0.1,0.1-0.2,0.2-0.3c0.3-0.6,0.8-1.3,1.6-1.3c0.2,0,0.4,0,0.5,0.1c1.9,0.9,2,2.1,1.9,2.7c-0.2,1.1-1.4,2-2.2,2.5
						L185.3,185.7z M184.8,183.2c0.1,0,0.1,0.1,0.2,0.1c0.4-0.3,0.8-0.7,0.8-0.9c0,0-0.1-0.1-0.3-0.2c0,0-0.1,0.1-0.1,0.1
						C185.2,182.7,185.1,183,184.8,183.2z"/>
				</g>
			</g>
			<g>
				<path class="st3" d="M183.7,192.4c0.1,0-1.2-3.1-2.3,0.4c-0.9,2.7,2.2,1.5,2.2,1.9C183.6,194.2,182.8,192.7,183.7,192.4
					C183.9,192.3,183.4,192.5,183.7,192.4z"/>
				<g>
					<path class="st4" d="M182.6,195.6c-0.4,0-1.4,0-2-0.8c-0.4-0.6-0.5-1.3-0.2-2.3c0.2-0.6,0.8-2.4,2.2-2.4c0.4,0,1,0.2,1.5,0.9
						c0.1,0.1,0.1,0.2,0.2,0.3h0.3l0.3,1.6l-0.6,0.2c0,0.2,0.1,0.5,0.2,0.7c0.1,0.3,0.2,0.6,0.2,0.8v0h-2h1l-1,0.1c0,0,0,0,0,0
						c0,0.5,0.5,0.8,0.7,0.8l-0.3,0C182.9,195.6,182.8,195.6,182.6,195.6z"/>
				</g>
			</g>
			<g>
				<path class="st3" d="M180.6,191c0.9-6.9-4.9-1.1-5.3,2c-0.2,1.2,2.5,2.3,3.5,2C180.2,194.5,180.5,192.2,180.6,191
					C180.7,190.5,180.6,191.5,180.6,191z"/>
				<g>
					<path class="st4" d="M178.4,196L178.4,196c-1.1,0-2.7-0.6-3.6-1.6c-0.5-0.6-0.6-1.2-0.5-1.6c0.3-2.2,3.1-6.1,5.4-6.1
						c0.5,0,1,0.2,1.4,0.6c0.6,0.7,0.8,1.8,0.6,3.5c0,0.2,0,0.3-0.1,0.5c-0.2,1.3-0.6,3.9-2.4,4.5C179,196,178.7,196,178.4,196z
						 M179.6,188.8c-0.9,0.2-3,2.7-3.3,4.4c0.1,0.2,1.3,0.9,2.1,0.9c0.1,0,0.1,0,0.1,0c0.3-0.1,0.8-0.6,1.1-3.2
						C179.8,189.5,179.7,189,179.6,188.8z"/>
				</g>
			</g>
			<g>
				<path class="st3" d="M174.6,196.4c-0.8-0.2-1.4-0.1-1.9,0.5c-0.1,0.6,5.5,1.1,5.8,1.3C177.4,197.4,175.9,196.8,174.6,196.4z"/>
				<g>
					<path class="st4" d="M178.1,199.1c-0.2-0.1-1-0.2-1.7-0.3c-3.3-0.5-4.1-0.7-4.5-1.3l-0.2-0.4l0.2-0.7l0.2-0.2
						c0.8-0.9,1.8-1.1,2.9-0.8l0.3,0.1c1.3,0.5,2.8,1,3.9,1.9l-0.6,0.8L178.1,199.1z"/>
				</g>
			</g>
			<g>
				<path class="st3" d="M181.3,175c0.3-0.4-0.4-2-0.7-1.7C180.3,173.7,180.5,176,181.3,175C181.6,174.6,181,175.3,181.3,175z"/>
				<g>
					<path class="st4" d="M180.9,176.2L180.9,176.2c-0.2,0-0.8-0.1-1.2-0.8c-0.3-0.7-0.5-2.1,0.1-2.8l0.3-0.4l0.5,0
						c0.8,0,1.1,0.7,1.3,1c0.1,0.2,0.2,0.4,0.3,0.7h0.2l0,1c0,0.3-0.2,0.7-0.5,1C181.5,176.1,181.2,176.2,180.9,176.2z"/>
				</g>
			</g>
			<g>
				<path class="st3" d="M183.3,178.6c0.7-1.8-3.3-0.6-1.2,1.2C182.6,179.7,183.1,179.3,183.3,178.6
					C183.5,178.2,183.1,179.1,183.3,178.6z"/>
				<g>
					<path class="st4" d="M181.8,180.9l-0.4-0.3c-1.2-1-0.9-2-0.8-2.4c0.4-0.9,1.4-1.4,2.2-1.4c0.6,0,1.1,0.2,1.3,0.7
						c0.2,0.2,0.4,0.7,0.2,1.3c0,0.1,0,0.1,0,0.1l0,0l0,0c0,0,0,0.1,0,0.1c-0.3,0.9-1,1.5-1.9,1.8L181.8,180.9z"/>
				</g>
			</g>
			<g>
				<path class="st3" d="M187,191.9c0.9,0.6,2.8,0.3,2.8-0.8C188.9,190.5,186.9,190.6,187,191.9z"/>
				<g>
					<path class="st4" d="M188.1,193.2L188.1,193.2c-0.6,0-1.3-0.2-1.7-0.5l-0.4-0.3l0-0.5c0-0.6,0.1-1.1,0.5-1.4
						c0.5-0.5,1.2-0.8,2-0.8c0.7,0,1.3,0.2,1.8,0.5l0.5,0.3l0,0.6C190.7,192.3,189.6,193.2,188.1,193.2z"/>
				</g>
			</g>
			<g>
				<path class="st3" d="M186.5,165.7c-0.4,0.2-1.1,2.1-0.6,2.4c0.5,0.3,1.7-2.1,2.6-1.5c2.2,1.6,1.4-3,1.3-3.4
					C188.8,164.1,187.7,164.9,186.5,165.7C186.2,165.9,187,165.3,186.5,165.7z"/>
				<g>
					<path class="st4" d="M186,169.1c-0.2,0-0.5-0.1-0.7-0.2c-0.2-0.1-0.6-0.5-0.6-1.2c0-0.7,0.3-1.8,0.8-2.4
						c0.1-0.1,0.2-0.3,0.3-0.4l0,0l0,0c0,0,0.1,0,0.1-0.1l0,0l0,0l0,0l0,0l0,0c0,0,0,0,0,0c1.1-0.8,2.2-1.6,3.3-2.4l1.2-0.9l0.4,1.5
						c0,0,0.7,3.1-0.3,4.3c-0.5,0.7-1.5,0.8-2.4,0.2c-0.1,0.1-0.4,0.4-0.6,0.6C187.1,168.7,186.7,169.1,186,169.1z M188.4,165.5
						c0.2,0,0.4,0.1,0.6,0.2c0-0.2,0-0.4,0-0.7C188.9,165.2,188.7,165.4,188.4,165.5z"/>
				</g>
			</g>
			<g>
				<path class="st3" d="M167.1,188.3C167.1,188.3,167.1,188.3,167.1,188.3C166.9,188.1,166.9,188.1,167.1,188.3z"/>
				<g>
					<polygon class="st4" points="170.2,189.3 166.7,189.3 166.4,189 165.8,188.6 166.2,187.2 167.3,187.2 					"/>
				</g>
			</g>
			<g>
				<path class="st3" d="M172.4,193.2c-0.6-1.5-2.1-2.4-3-3.8c-1-1.7-1.6-0.7-2.3-1.2c1.7,1.2,2.4,2.6,3.3,4.4
					C171,194.1,173.5,195.7,172.4,193.2C172.1,192.5,172.7,193.9,172.4,193.2z"/>
				<g>
					<path class="st4" d="M172.4,195.5L172.4,195.5c-1.1,0-2.5-1.4-2.9-2.4c-0.8-1.7-1.5-3-3-4l1.1-1.6c0,0,0,0,0.1,0
						c0.1,0,0.2,0,0.3,0c0.9,0,1.6,0.5,2.2,1.5c0.3,0.5,0.8,1,1.2,1.5c0.6,0.6,1.2,1.2,1.6,2c0.2,0.2,0.3,0.5,0.3,0.7
						c0.2,0.6,0.4,1.3,0,1.9C173.2,195.3,172.8,195.5,172.4,195.5z"/>
				</g>
			</g>
			<g>
				<path class="st3" d="M157.2,185.4c-0.3,0.6,1.4,1.7,1.5,1.4C159.1,186.1,158,183.8,157.2,185.4
					C156.9,186,157.4,184.9,157.2,185.4z"/>
				<g>
					<path class="st4" d="M158.6,187.9c-0.8,0-1.8-0.8-2.2-1.4c-0.1-0.1-0.2-0.3-0.2-0.4l0,0c-0.2-0.4-0.1-0.7,0-1l0,0l0-0.1
						c0,0,0-0.1,0-0.1l0,0h0c0,0,0,0,0,0l0,0c0,0,0-0.1,0-0.1l0,0l0,0c0,0,0.1-0.1,0.1-0.1c0.5-0.7,1-0.8,1.4-0.8
						c0.6,0,1.1,0.3,1.5,1c0.4,0.7,0.7,1.7,0.3,2.5l-0.3,0.5L158.6,187.9z"/>
				</g>
			</g>
			<g>
				<path class="st3" d="M134.9,211.1c0.4,3,3.2-1.9,3.2-3.2c0-0.7,0.6-1.5,0.8-2.2c0.3-1.4-0.7-2.8-0.7-4.2c0,0.8-2.9,2.8-3.2,4.1
					C134.5,207.5,134.7,209.1,134.9,211.1C135,211.6,134.9,210.5,134.9,211.1z"/>
				<g>
					<path class="st4" d="M135.5,213c-0.4,0-1.3-0.2-1.5-1.7h0l0-0.1c0,0,0,0,0,0h0l0-0.1l0,0l-0.1-0.6c-0.2-1.7-0.4-3.3,0.1-5.2
						c0.2-0.9,1.2-1.9,2.1-2.8c0.4-0.4,1-1,1.1-1.3c0,0,0,0.1,0,0.2l2-0.1l-0.6,0l0.6,0l-0.4,0l0.4,0c0,0.4,0.2,1,0.3,1.5
						c0.3,0.9,0.6,1.9,0.4,2.9c-0.1,0.4-0.3,0.8-0.4,1.2c-0.1,0.3-0.3,0.6-0.3,0.8C139.1,209,137.3,213,135.5,213z M137.7,203.8
						c-0.1,0.1-0.1,0.1-0.2,0.2c-0.5,0.5-1.5,1.5-1.6,1.8c-0.4,1.5-0.2,2.9,0,4.5l0,0.2c0.6-0.8,1.2-2.2,1.3-2.6
						c0-0.6,0.3-1.2,0.5-1.7c0.1-0.3,0.2-0.5,0.3-0.7C138,205,137.8,204.4,137.7,203.8z"/>
				</g>
			</g>
			<g>
				<path class="st3" d="M80.7,232c0.3,0,0.7,0,1,0C81.9,230.9,80.6,231.1,80.7,232z"/>
				<g>
					<path class="st4" d="M82.5,233h-2.8l-0.1-0.9c0-0.5,0.1-1,0.5-1.3c0.6-0.6,1.7-0.6,2.2,0c0.2,0.3,0.4,0.7,0.3,1.4L82.5,233z
						 M80.8,232c0.1,0.2,0.6,0.3,0.8,0.1c0,0,0.1-0.1,0.1-0.1l-0.2,0L80.8,232z"/>
				</g>
			</g>
			<g>
				<path class="st5" d="M107.6,118.1c-0.4,0-4.2-0.9-4.2-0.8c0-0.5,2-2.2,0.1-2.2c-1.1,0-2.6,0-3.6-0.3c-1.2-0.4-8-0.1-8.6,1.2
					c-0.9,1.8-5.2,1.5-7.3,2c-1.4,0.4-2.7,0.9-3.4,2.3c-0.8,1.8-2.2,0.9-3.4,2.1c-0.7,0.6,3.1,1.2,3.2,1.2c-1.2-0.5-3.4,1.8-0.5,2.1
					c2.4,0.2,4.3,0.1,4.5,3.2c0,0.2,1.6,3.8,1.4,3.7c-0.8-0.3,0.2,5.4,0.3,5.7c1.8,5.7,4.4,4.7,6-0.6c0.2-0.8,3.9-2.2,5-2.8
					c1-0.5,1.4-1.1,2.1-2.1c1.2-1.8-0.6-0.2-0.5-1.7c0-0.1,4.1-0.2,3.4-0.7c-0.6-0.4,1.6-2.9,1.4-3.9c-0.3-1.3,0.9-3.9,1.2-5.1
					C104.9,120.9,107.8,118.1,107.6,118.1C107.2,118.1,108.1,118,107.6,118.1z"/>
				<g>
					<path class="st2" d="M88.9,143.3c-1.6,0-2.8-1.5-3.8-4.6c0,0-1.1-4.7-0.5-6.3c-0.2-0.5-0.5-1.3-0.7-1.8
						c-0.5-1.3-0.6-1.4-0.6-1.6c-0.1-1.9-0.8-2-3.1-2.2l-0.6-0.1c-2.2-0.2-2.4-1.5-2.3-1.9c0-0.2,0.1-0.5,0.2-0.7
						c-1-0.3-1.3-0.7-1.5-1.1c-0.1-0.4,0-0.9,0.3-1.2c0.7-0.7,1.5-0.9,2.1-1c0.6-0.1,0.9-0.2,1.1-0.8c0.8-1.8,2.4-2.4,4-2.9
						c0.7-0.2,1.7-0.3,2.7-0.4c1.5-0.1,3.7-0.4,4.1-1.1c0.9-1.8,6.1-2,7.7-2c1,0,1.7,0.1,2.1,0.2c0.8,0.2,2,0.2,2.9,0.2l0.4,0
						c0.8,0,1.4,0.3,1.7,0.8c0.3,0.6,0.1,1.1-0.2,1.6c0.2,0,0.3,0.1,0.5,0.1c0.7,0.1,1.8,0.4,2.1,0.4l0.6-0.1l0,0.1h0.5l0.1,0.9
						c0,0.1,0,0.7-0.5,0.9c-0.1,0.2-0.3,0.3-0.5,0.5c-0.5,0.5-1.9,2-2.1,2.4c-0.1,0.3-0.2,0.8-0.4,1.4c-0.3,0.9-0.9,2.5-0.7,3.1
						c0.2,0.9-0.3,1.9-0.9,2.9c-0.2,0.3-0.4,0.6-0.5,0.9c0.1,0.2,0.1,0.5,0.1,0.8c-0.2,0.8-0.9,1-2.6,1.1c0,0.5-0.3,1-0.6,1.5
						l-0.1,0.1c-0.6,0.9-1.1,1.7-2.4,2.3c-0.3,0.1-0.6,0.3-1.1,0.5c-0.9,0.4-3,1.3-3.4,1.8C92,141.6,90.6,143.3,88.9,143.3z
						 M86.4,133.5c0,1.1,0.5,4.1,0.6,4.7c0.8,2.5,1.5,3.1,1.9,3.1c0.3,0,1.3-0.7,2.2-3.8c0.3-0.9,1.6-1.6,4.5-2.9
						c0.4-0.2,0.8-0.3,1-0.5c0.7-0.4,1-0.8,1.5-1.5c0,0-0.1-0.1-0.1-0.1c-0.3-0.3-0.4-0.8-0.4-1.3c0.1-0.9,0.8-0.9,1.7-1
						c0.4,0,1.1-0.1,1.7-0.2c0.1-0.5,0.5-1.1,0.8-1.7c0.2-0.4,0.7-1.2,0.7-1.5c-0.3-1.1,0.3-2.8,0.8-4.2c0.2-0.5,0.3-1,0.4-1.2
						c0.1-0.6,0.7-1.3,1.9-2.6c-0.2,0-0.4-0.1-0.6-0.1c-0.6-0.1-1.5-0.3-1.7-0.3l0-1l-1,0v0l0-1l0.4,0c0-0.1,0.1-0.1,0.1-0.2
						c-1,0-2.3,0-3.3-0.3c-0.1,0-0.6-0.1-1.5-0.1c-2.8,0-5.4,0.5-5.9,0.9c-0.9,1.7-3.4,2-5.6,2.2c-0.9,0.1-1.7,0.2-2.3,0.3
						c-1.4,0.4-2.3,0.8-2.7,1.7c-0.5,1.1-1.2,1.5-1.9,1.7c0.1,0,0.3,0.1,0.5,0.1c0.2,0,0.4,0.1,0.6,0.1c0,0,0,0,0,0l-0.4,0.9l-0.2,1
						l-0.2,0c-0.1,0-0.2,0-0.2,0.1c0.1,0,0.2,0,0.3,0l0.5,0c2.1,0.2,4.5,0.4,4.9,3.9c0.1,0.2,0.2,0.6,0.4,1.1
						c1.1,2.7,1.2,2.9,0.8,3.4L86.4,133.5z"/>
				</g>
			</g>
			<g>
				<path class="st5" d="M117.2,119.1c-1.8-0.6-3.8,1.4-3.2,3.1c0.4,1.1,2,0.3,2.1,0.6c0.1,0.6-0.9,2.1,0.2,2.3
					c0.7,0.1,1,1.6,1.7,0.5c1-1.5,0.7-2.2,2.8-1.6c0.5,0.1,1-2.4-0.8-2.6C118.3,121.1,118.4,119.4,117.2,119.1
					C116.7,118.9,117.7,119.2,117.2,119.1z"/>
				<g>
					<path class="st2" d="M117.6,126.9c-0.6,0-1-0.4-1.3-0.7c-0.1-0.1-0.1-0.1-0.2-0.2c-0.6-0.1-0.9-0.4-1.1-0.7
						c-0.3-0.5-0.3-1-0.2-1.5c-1.2-0.1-1.7-0.9-1.8-1.3c-0.3-1-0.2-2,0.5-2.9c0.8-1.2,2.3-1.8,3.6-1.5h0.1l0.3,0.1c0,0,0,0,0,0v0v0
						h0l0,0c0,0,0,0,0,0l0,0c0,0,0,0,0,0l0.1,0l0,0c0,0,0,0,0,0c0.7,0.3,1.1,0.9,1.4,1.3c0.4,0.5,0.5,0.8,1,0.8
						c1.4,0.1,2.2,1.2,2.2,2.7c-0.1,1.1-0.6,1.9-1.4,1.9l0,0l-0.3,0c-0.5-0.2-0.8-0.2-0.9-0.2c0,0-0.1,0.2-0.2,0.4
						c-0.1,0.3-0.3,0.6-0.5,0.9C118.5,126.6,118.1,126.9,117.6,126.9z M116.9,124.1c0.3,0.1,0.5,0.3,0.7,0.4
						c0.1-0.1,0.1-0.2,0.2-0.3c0.4-0.8,0.9-1.7,2.6-1.4c0-0.1,0-0.2-0.1-0.3c0-0.1-0.1-0.1-0.3-0.2c-1.4-0.1-2.1-1.1-2.5-1.7
						c-0.2-0.3-0.4-0.6-0.5-0.6c-0.6-0.2-1.3,0.1-1.7,0.7c-0.1,0.2-0.4,0.6-0.2,1.1c0.1,0,0.4,0,0.5,0c0.2,0,0.4,0,0.5,0
						c0.7,0,1,0.4,1.1,0.9c0.1,0.4,0,0.9-0.2,1.3C116.9,123.9,116.9,124,116.9,124.1z M116.9,119.9L116.9,119.9l0.3-0.9L116.9,119.9
						z"/>
				</g>
			</g>
			<g>
			</g>
			<g>
				<path class="st3" d="M137.9,120.1c0.9,0.9,1.3-0.4,2.3-0.3C140.2,118.1,137.8,118.7,137.9,120.1z"/>
				<g>
					<path class="st2" d="M138.5,121.4c-0.5,0-0.9-0.2-1.3-0.6l-0.3-0.3l0-0.4c0-0.6,0.2-1.2,0.6-1.6c0.4-0.5,1.1-0.8,1.7-0.8
						c1.1,0,1.9,0.8,2,2.1l0,1.1l-1.1-0.1h0c-0.1,0-0.2,0.1-0.4,0.2C139.4,121.2,139,121.4,138.5,121.4z"/>
				</g>
			</g>
			<g>
				<path class="st3" d="M72.9,178.9c0,0.9,2.2-0.7,1-0.7C73.5,178.2,73.2,178.5,72.9,178.9z"/>
				<g>
					<path class="st4" d="M73.2,180.1L73.2,180.1c-0.7,0-1.2-0.5-1.2-1.3v-0.3l0.2-0.2c0.4-0.6,0.9-1,1.6-1.2l0.2,0
						c0.7,0,1.1,0.4,1.2,0.6c0.2,0.4,0.2,0.8,0,1.2C74.8,179.5,73.9,180.1,73.2,180.1z M73.5,178.9h0.4c0-0.3-0.3-0.7-0.6-0.7
						c0,0.1,0,0.3,0.1,0.5C73.4,178.7,73.5,178.8,73.5,178.9z"/>
				</g>
			</g>
			<g>
				<path class="st3" d="M68.2,177.1c-0.5,0.1,2,1.7,2,1.8c1.2,0.9,2.4-2.1,0.4-1.9c-1.7,0.1-6.2-4.7-7.7-1.2
					C63.2,174.9,67.6,177.2,68.2,177.1C68.7,177,67.7,177.2,68.2,177.1z"/>
				<g>
					<path class="st4" d="M70.7,180c-0.4,0-0.7-0.1-1.1-0.4c-1-0.7-1.6-1.1-2-1.5h-0.4l0-0.3c-0.3-0.1-0.7-0.3-1.2-0.4
						c-0.8-0.3-2.2-0.9-2.7-0.9c0.1,0,0.3-0.1,0.5-0.4l-1.8-0.8c0.7-1.5,1.8-1.9,2.7-1.9c1.3,0,2.8,0.8,4,1.5
						c0.6,0.4,1.6,0.9,1.9,0.9c0.9,0,1.4,0.3,1.6,0.6c0.3,0.3,0.5,0.8,0.5,1.3C72.6,178.8,71.8,180,70.7,180z"/>
				</g>
			</g>
			<g>
				<path class="st3" d="M66,178.9c0.4,0.1,0.9,0.2,1.3,0.1C67.8,178.9,66,177.9,66,178.9z"/>
				<g>
					<path class="st4" d="M66.8,180c-0.4,0-0.8-0.1-1.1-0.2l-0.7-0.2v-0.7c0-0.8,0.6-1.4,1.4-1.4c0.6,0,1.6,0.4,1.9,0.9l0.3,0.5
						l-0.6,1l-0.5,0C67.2,180,67,180,66.8,180z M66.4,178.9c0,0.2,0.1,0.4,0.2,0.6c0.2-0.1,0.4-0.3,0.4-0.6H66.4z"/>
				</g>
			</g>
			<g>
				<path class="st3" d="M66.8,173.3c-0.4-0.2-0.8,0.9-0.2,0.9C66.9,174,66.9,173.7,66.8,173.3C66.5,173.2,67,173.5,66.8,173.3z"/>
				<g>
					<path class="st4" d="M67,175.2h-0.4c-0.4,0-0.8-0.2-1-0.5c-0.2-0.2-0.3-0.6-0.3-0.9c0-0.4,0.2-0.9,0.5-1.2l0.1-0.4h1l0.3,0.1
						l0,0l0.8,0.3l-0.1,0.7c0.1,0.6-0.1,1.1-0.6,1.6L67,175.2z"/>
				</g>
			</g>
			<g>
				<path class="st3" d="M69,173.5c-0.6-0.6-0.9-0.5-0.9,0.4C68.5,174.1,68.8,173.9,69,173.5C68.9,173.3,69.1,173.7,69,173.5z"/>
				<g>
					<path class="st4" d="M68.4,175L68.4,175c-0.2,0-0.4,0-0.7-0.1l-0.6-0.2l0-0.7c0-0.5,0-1.1,0.4-1.5c0.5-0.5,1.3-0.4,1.8,0h0.3
						l0.2,0.5l0.3,0.3l-0.1,0.2l0.1,0.2l-0.5,0.6c-0.1,0.2-0.3,0.3-0.4,0.4l0,0l0,0C69,174.9,68.7,175,68.4,175z"/>
				</g>
			</g>
			<g>
				<path class="st3" d="M70.6,176c0.9-0.4-0.4-1.4-0.8-1.6C69.1,174.2,69.5,176.5,70.6,176C71,175.8,70.2,176.2,70.6,176z"/>
				<g>
					<path class="st4" d="M70.3,177.1c-0.1,0-0.1,0-0.2,0h-0.5l0-0.1c-0.8-0.4-1.2-1.3-1.2-2.1c0-1.2,1-1.6,1.7-1.3
						c0.3,0.1,1.6,0.9,1.7,2c0,0.5-0.2,1-0.7,1.3l0,0c0,0,0,0-0.1,0c0,0,0,0,0,0c0,0,0,0,0,0h0c0,0,0,0,0,0l0,0l0,0l0,0h0
						c0,0,0,0,0,0l0,0c-0.2,0.1-0.3,0.1-0.5,0.1C70.4,177.1,70.4,177.1,70.3,177.1z"/>
				</g>
			</g>
			<g>
				<path class="st3" d="M190.2,192.8c-0.3,0.2-2.5-0.2-2.1,0.9c0,0,2.6,1.2,2.4,1.1c0.2-0.8,0.3-1.7,0.4-2.5
					C190.7,192.5,190.4,192.7,190.2,192.8C190,192.9,190.3,192.7,190.2,192.8z"/>
				<g>
					<path class="st4" d="M190.5,195.9c-0.3,0-0.3,0-2.3-1l-0.3-0.2h-0.5l-0.2-0.7c-0.2-0.7,0-1.2,0.2-1.4c0.5-0.8,1.6-0.8,2.3-0.8
						c0.1,0,0.2,0,0.2,0l2.4-1.4l-0.3,2.1c-0.1,0.6-0.2,1.2-0.3,1.8l0.1,0l-0.4,1.5H190.5z"/>
				</g>
			</g>
		</g>
		<path class="st6" d="M73.3,125c-0.1-0.1-0.4,0.1-0.2,0.3C73.1,125.3,73.4,125.1,73.3,125z"/>
		<path class="st6" d="M81.4,149.3c-0.1-0.1-0.4,0.1-0.2,0.3C81.3,149.6,81.6,149.4,81.4,149.3z"/>
	</g>
</g>
<g>
	<path class="st7" d="M138.1,78.5c-9.1,0-16.5,7.4-16.5,16.5c0,9.1,16.5,23.2,16.5,23.2s16.5-14.1,16.5-23.2
		C154.7,85.9,147.3,78.5,138.1,78.5z M138.1,102.2c-3.9,0-7.2-3.2-7.2-7.2c0-3.9,3.2-7.1,7.2-7.1c4,0,7.2,3.2,7.2,7.1
		C145.3,99,142.1,102.2,138.1,102.2z"/>
	<path class="st2" d="M138.1,119.3c-0.2,0-0.5-0.1-0.6-0.2c-0.7-0.6-16.9-14.5-16.9-24c0-9.7,7.9-17.5,17.5-17.5s17.5,7.9,17.5,17.5
		c0,9.5-16.2,23.4-16.9,24C138.6,119.2,138.4,119.3,138.1,119.3z M138.1,79.5c-8.6,0-15.5,7-15.5,15.5c0,7.6,12.5,19.2,15.5,21.9
		c3-2.7,15.5-14.3,15.5-21.9C153.7,86.5,146.7,79.5,138.1,79.5z M138.1,103.2c-4.5,0-8.2-3.7-8.2-8.2c0-4.5,3.7-8.1,8.2-8.1
		c4.5,0,8.2,3.7,8.2,8.1C146.3,99.6,142.6,103.2,138.1,103.2z M138.1,88.9c-3.4,0-6.2,2.8-6.2,6.1c0,3.4,2.8,6.2,6.2,6.2
		s6.2-2.8,6.2-6.2C144.3,91.7,141.5,88.9,138.1,88.9z"/>
</g>
<g>
	<path class="st7" d="M70,104.4c-7.2,0-13,5.8-13,13c0,7.2,13,18.3,13,18.3s13-11.1,13-18.3C83,110.2,77.2,104.4,70,104.4z M70,123
		c-3.1,0-5.6-2.5-5.6-5.6c0-3.1,2.5-5.6,5.6-5.6c3.1,0,5.6,2.5,5.6,5.6C75.6,120.5,73.1,123,70,123z"/>
	<path class="st2" d="M70,136.7c-0.2,0-0.5-0.1-0.6-0.2c-0.5-0.5-13.4-11.5-13.4-19.1c0-7.7,6.3-14,14-14c7.7,0,14,6.3,14,14
		c0,7.6-12.8,18.6-13.4,19.1C70.4,136.6,70.2,136.7,70,136.7z M70,105.4c-6.6,0-12,5.4-12,12c0,5.2,8.2,13.5,12,17
		c3.9-3.5,12-11.8,12-17C82,110.8,76.6,105.4,70,105.4z M70,124c-3.7,0-6.6-3-6.6-6.6s3-6.6,6.6-6.6c3.7,0,6.6,3,6.6,6.6
		S73.6,124,70,124z M70,112.8c-2.6,0-4.6,2.1-4.6,4.6s2.1,4.6,4.6,4.6c2.6,0,4.6-2.1,4.6-4.6S72.5,112.8,70,112.8z"/>
</g>
<g>
	<path class="st7" d="M154,136.4c-7.2,0-13,5.8-13,13c0,7.2,13,18.3,13,18.3s13-11.1,13-18.3C167,142.2,161.2,136.4,154,136.4z
		 M154,155c-3.1,0-5.6-2.5-5.6-5.6c0-3.1,2.5-5.6,5.6-5.6c3.1,0,5.6,2.5,5.6,5.6C159.6,152.5,157.1,155,154,155z"/>
	<path class="st2" d="M154,168.7c-0.2,0-0.5-0.1-0.6-0.2c-0.5-0.5-13.4-11.5-13.4-19.1c0-7.7,6.3-14,14-14c7.7,0,14,6.3,14,14
		c0,7.6-12.8,18.6-13.4,19.1C154.4,168.6,154.2,168.7,154,168.7z M154,137.4c-6.6,0-12,5.4-12,12c0,5.2,8.2,13.5,12,17
		c3.9-3.5,12-11.8,12-17C166,142.8,160.6,137.4,154,137.4z M154,156c-3.7,0-6.6-3-6.6-6.6c0-3.7,3-6.6,6.6-6.6c3.7,0,6.6,3,6.6,6.6
		C160.6,153.1,157.6,156,154,156z M154,144.8c-2.6,0-4.6,2.1-4.6,4.6c0,2.6,2.1,4.6,4.6,4.6c2.6,0,4.6-2.1,4.6-4.6
		C158.6,146.8,156.5,144.8,154,144.8z"/>
</g>
<g>
	<path class="st2" d="M118.3,186.4c-47.1,0-85.5-38.4-85.5-85.5c0-47.1,38.4-85.5,85.5-85.5c47.1,0,85.5,38.4,85.5,85.5
		C203.8,148.1,165.5,186.4,118.3,186.4z M118.3,17.4c-46,0-83.5,37.5-83.5,83.5c0,46,37.5,83.5,83.5,83.5c46,0,83.5-37.5,83.5-83.5
		C201.8,54.9,164.4,17.4,118.3,17.4z"/>
</g>
<g>
	<path class="st2" d="M190.1,101.8c-0.5,0-0.9-0.4-0.9-0.9c0-39.1-31.8-71-71-71c-30.1,0-57,19.1-67,47.4c-0.2,0.4-0.6,0.7-1.1,0.5
		c-0.4-0.2-0.7-0.6-0.5-1.1c10.2-29.1,37.8-48.6,68.6-48.6c40.1,0,72.7,32.6,72.7,72.7C191,101.4,190.6,101.8,190.1,101.8z"/>
</g>
<g>
	<path class="st2" d="M210.5,78.4c-0.5,0-1-0.3-1.1-0.8c-10.6-41.6-48.1-70.7-91.1-70.7c-33.3,0-63.4,17-80.6,45.6
		c-0.3,0.5-1,0.7-1.5,0.4c-0.5-0.3-0.7-1-0.4-1.5C53.4,22.1,84.2,4.6,118.3,4.6c44,0,82.4,29.8,93.3,72.3c0.2,0.6-0.2,1.2-0.8,1.4
		C210.7,78.4,210.6,78.4,210.5,78.4z"/>
</g>
<g>
	<path class="st7" d="M85.8,93.6c-4.1-7.2-11.8-12-20.6-12c-0.4,0-0.8,0-1.2,0c-3.4-8.8-12-15-22-15c-9.2,0-17.1,5.2-21,12.9
		c-1.9-1-4.1-1.6-6.4-1.6C7.1,77.9,1,83.9,1,91.4c0,0.8,0.1,1.5,0.2,2.3H85.8z"/>
	<path class="st2" d="M85.8,94.6H1.2c-0.5,0-0.9-0.4-1-0.8C0.1,92.9,0,92.1,0,91.4c0-8,6.5-14.5,14.5-14.5c2,0,4.1,0.4,5.9,1.3
		c4.4-7.8,12.5-12.5,21.5-12.5c10,0,18.8,5.9,22.7,15c0.2,0,0.4,0,0.6,0c8.9,0,17.1,4.8,21.5,12.5c0.2,0.3,0.2,0.7,0,1
		C86.5,94.4,86.1,94.6,85.8,94.6z M2.1,92.6H84c-4.2-6.2-11.2-10-18.8-10c-0.4,0-0.8,0-1.2,0c-0.4,0-0.8-0.2-1-0.6
		c-3.4-8.8-11.7-14.4-21.1-14.4c-8.5,0-16.2,4.7-20.2,12.3c-0.1,0.2-0.3,0.4-0.6,0.5c-0.3,0.1-0.5,0.1-0.8-0.1
		c-1.8-1-3.8-1.5-5.9-1.5C7.6,78.9,2,84.5,2,91.4C2,91.8,2,92.2,2.1,92.6z"/>
</g>
<g>
	<path class="st7" d="M214.6,104.8c0-0.7,0-1.3-0.1-2c-0.9-7.6-7.8-13-15.4-12c-0.2,0-0.4,0.1-0.6,0.1c-1.6-2.4-4.5-3.9-7.6-3.5
		c-1.8,0.2-3.5,1.1-4.7,2.3c-2.1-0.8-4.4-1.2-6.9-0.9c-5.3,0.7-9.6,4.2-11.3,8.9c-1.2-0.5-2.5-0.6-3.8-0.5c-3.9,0.5-6.8,3.7-6.9,7.5
		H214.6z"/>
	<path class="st2" d="M214.6,105.8h-57.2c-0.3,0-0.5-0.1-0.7-0.3c-0.2-0.2-0.3-0.5-0.3-0.7c0.2-4.4,3.4-8,7.8-8.5
		c1.1-0.1,2.3-0.1,3.3,0.2c2.1-4.8,6.5-8.1,11.7-8.7c2.3-0.3,4.6,0,6.7,0.7c1.3-1.2,3-1.9,4.8-2.2c3.2-0.4,6.2,0.9,8.1,3.4
		c0,0,0,0,0,0c0.6-0.1,1.2-0.1,1.8-0.1c7.5,0,13.8,5.6,14.7,13c0.1,0.7,0.1,1.4,0.1,2.1C215.6,105.3,215.1,105.8,214.6,105.8z
		 M158.5,103.8h55c0-0.3,0-0.6-0.1-0.8c-0.8-6.4-6.2-11.3-12.7-11.3c-0.5,0-1.1,0-1.6,0.1c-0.2,0-0.4,0.1-0.6,0.1
		c-0.4,0.1-0.8-0.1-1-0.4c-1.4-2.2-4-3.4-6.6-3.1c-1.6,0.2-3,0.9-4.1,2c-0.3,0.3-0.7,0.4-1.1,0.2c-2-0.8-4.2-1.1-6.4-0.8
		c-4.8,0.6-8.8,3.8-10.5,8.3c-0.1,0.3-0.3,0.5-0.5,0.6c-0.2,0.1-0.5,0.1-0.8,0c-1.1-0.4-2.2-0.6-3.3-0.4
		C161.4,98.6,159.1,100.8,158.5,103.8z"/>
</g>
</svg>
