<?xml version="1.0" encoding="utf-8"?>
<!-- Generator: Adobe Illustrator 19.2.1, SVG Export Plug-In . SVG Version: 6.00 Build 0)  -->
<svg version="1.1" id="Layer_1" xmlns="http://www.w3.org/2000/svg" xmlns:xlink="http://www.w3.org/1999/xlink" x="0px" y="0px"
	 viewBox="0 0 195.6 194.2" style="enable-background:new 0 0 195.6 194.2;" xml:space="preserve">
<style type="text/css">
	.st0{fill:none;}
	.st1{fill:#FFFFFF;}
	.st2{fill:#313B4B;}
</style>
<g>
	<g>
		<path class="st0" d="M73.4,133.3c-7.5,0-13.6-6.1-13.7-13.6l0-2.2l-1.9-0.5c-4.2-1.1-7.2-4.9-7.2-9.2c0-2.2,0.7-4.2,2.1-6l2-2.5
			l-2.8-1.4c-3-1.5-4.9-4.6-4.9-7.9c0-3.2,1.8-6.2,4.8-7.9l2.8-1.6l-2.2-2.4c-1.8-2-2.8-4.5-2.8-7.1c0-4.8,3.3-9,8-10.1l3.4-0.8
			l-1.8-3c-0.9-1.5-1.4-3.1-1.4-4.8c0-4.7,3.7-8.8,8.4-9.2l2-0.2l0.3-2c1-6.6,6.8-11.6,13.5-11.6c7.6,0,13.7,6.1,13.7,13.7v76.7
			c0,7.6-6.1,13.7-13.7,13.7H73.4z"/>
		<path class="st1" d="M82,134.3h-8.6c-8,0-14.6-6.5-14.7-14.6l0-1.4l-1.2-0.3c-4.7-1.2-7.9-5.4-7.9-10.2c0-2.4,0.8-4.7,2.3-6.6
			l1.2-1.5l-1.7-0.9C48.1,97.1,46,93.8,46,90c0-3.6,2-6.9,5.3-8.8l1.7-1l-1.4-1.5c-2-2.1-3.1-4.9-3.1-7.8c0-5.3,3.6-9.9,8.8-11.1
			l2.1-0.5l-1.1-1.8c-1-1.6-1.5-3.5-1.5-5.3c0-5.3,4.1-9.7,9.3-10.2l1.2-0.1l0.2-1.2c1.1-7.1,7.3-12.5,14.5-12.5
			c8.1,0,14.7,6.6,14.7,14.7v76.7C96.7,127.7,90.1,134.3,82,134.3z M82,30.2c-6.2,0-11.6,4.6-12.5,10.8L69,43.7L66.2,44
			c-4.2,0.4-7.5,4-7.5,8.2c0,1.5,0.4,3,1.2,4.3l2.6,4.2l-4.8,1.2c-4.3,1-7.2,4.8-7.2,9.2c0,2.4,0.9,4.7,2.6,6.5l3.1,3.3l-4,2.2
			c-2.6,1.5-4.3,4.2-4.3,7c0,3,1.7,5.7,4.3,7l3.9,2l-2.7,3.4c-1.2,1.5-1.9,3.4-1.9,5.3c0,3.9,2.6,7.3,6.4,8.3l2.7,0.7l0,2.9
			c0.1,6.9,5.8,12.6,12.7,12.6H82c7,0,12.7-5.7,12.7-12.7V42.9C94.7,35.9,89,30.2,82,30.2z"/>
	</g>
	<g>
		<g>
			<path class="st1" d="M84.5,53.1c-0.6,0-1-0.4-1-1c0-4.4-3.6-7.9-7.9-7.9h-8.7c-0.6,0-1-0.4-1-1c0-0.6,0.4-1,1-1h8.7
				c5.5,0,9.9,4.4,9.9,9.9C85.5,52.7,85.1,53.1,84.5,53.1z"/>
		</g>
		<g>
			<path class="st1" d="M82,133.9h-8.6c-8.2,0-14.4-6.7-14.4-15.6c0-0.6,0.4-1,1-1s1,0.4,1,1c0,7.8,5.3,13.6,12.4,13.6H82
				c6.8,0,12.4-5.6,12.4-12.4V42.9c0-6.8-5.6-12.4-12.4-12.4c-6.8,0-12.4,5.6-12.4,12.4c0,0.6-0.4,1-1,1c-0.6,0-1-0.4-1-1
				C67.6,35,74,28.5,82,28.5c7.9,0,14.4,6.5,14.4,14.4v76.7C96.3,127.5,89.9,133.9,82,133.9z"/>
		</g>
		<g>
			<path class="st1" d="M66.9,62.1c-5.5,0-9.9-4.4-9.9-9.9c0-5.5,4.5-9.9,9.9-9.9h1.9c0.6,0,1,0.4,1,1c0,0.6-0.4,1-1,1h-1.9
				c-4.4,0-7.9,3.6-7.9,7.9c0,4.4,3.6,7.9,7.9,7.9c0.6,0,1,0.4,1,1C67.9,61.6,67.5,62.1,66.9,62.1z"/>
		</g>
		<g>
			<path class="st1" d="M60,82.1h-0.2c0,0,0,0-0.1,0C53.7,82,48.8,77,48.8,71c0-6.1,5-11.1,11.1-11.1h4.3c0.6,0,1,0.4,1,1
				c0,0.6-0.4,1-1,1H60c-5,0-9.1,4.1-9.1,9.1c0,5,4.1,9.1,9.1,9.1c0.6,0,1,0.4,1,1C61,81.7,60.5,82.1,60,82.1z"/>
		</g>
		<g>
			<path class="st1" d="M75.3,118H60.1c-5.6,0-10.2-4.6-10.2-10.2c0-5.6,4.6-10.2,10.2-10.2c0.6,0,1,0.4,1,1c0,0.6-0.4,1-1,1
				c-4.5,0-8.2,3.7-8.2,8.2c0,4.5,3.7,8.2,8.2,8.2h15.2c0.6,0,1,0.4,1,1C76.3,117.6,75.9,118,75.3,118z"/>
		</g>
		<g>
			<path class="st1" d="M64.8,99.6h-8.9c-5.3,0-9.6-4.3-9.6-9.6c0-5.2,4.7-9.8,10-9.8h4.4c0.6,0,1,0.4,1,1s-0.4,1-1,1h-4.4
				c-4.3,0-8,3.6-8,7.8c0,4.2,3.4,7.6,7.6,7.6h8.9c0.6,0,1,0.4,1,1C65.8,99.1,65.3,99.6,64.8,99.6z"/>
		</g>
		<g>
			<path class="st1" d="M79.5,108.9H60.7c-0.6,0-1-0.4-1-1c0-0.6,0.4-1,1-1h18.8c2.6,0,4.8-2.1,4.8-4.8v-18c0-2.6-2.1-4.8-4.8-4.8
				c-0.6,0-1-0.4-1-1c0-0.6,0.4-1,1-1c3.7,0,6.8,3,6.8,6.8v18C86.3,105.8,83.2,108.9,79.5,108.9z"/>
		</g>
		<g>
			<path class="st1" d="M79.7,125.3c-0.6,0-1-0.4-1-1s0.4-1,1-1c2.5,0,4.6-2.1,4.6-4.6V99.5c0-0.6,0.4-1,1-1c0.6,0,1,0.4,1,1v19.2
				C86.3,122.3,83.3,125.3,79.7,125.3z"/>
		</g>
		<g>
			<path class="st1" d="M71.3,72.5H59.5c-0.6,0-1-0.4-1-1c0-0.6,0.4-1,1-1h11.8c1.8,0,3.3-1.5,3.3-3.3V55.6c0-1.8-1.5-3.3-3.3-3.3
				h-3.1c-0.6,0-1-0.4-1-1c0-0.6,0.4-1,1-1h3.1c2.9,0,5.3,2.4,5.3,5.3v11.6C76.6,70.1,74.2,72.5,71.3,72.5z"/>
		</g>
		<g>
			<path class="st1" d="M85.2,66.8c-0.6,0-1-0.4-1-1c0-1.8-1.5-3.3-3.3-3.3h-4.5c-0.6,0-1-0.4-1-1s0.4-1,1-1h4.5
				c2.9,0,5.3,2.4,5.3,5.3C86.2,66.3,85.7,66.8,85.2,66.8z"/>
		</g>
		<g>
			<path class="st1" d="M80.9,91.5H59.5c-0.6,0-1-0.4-1-1c0-0.6,0.4-1,1-1h21.5c1.8,0,3.3-1.5,3.3-3.3v-1.4c0-0.6,0.4-1,1-1
				c0.6,0,1,0.4,1,1v1.4C86.3,89.1,83.9,91.5,80.9,91.5z"/>
		</g>
		<g>
			<path class="st1" d="M76.8,108.2c-0.6,0-1-0.4-1-1v-4.5c0-1.8-1.5-3.3-3.3-3.3c-0.6,0-1-0.4-1-1c0-0.6,0.4-1,1-1
				c2.9,0,5.3,2.4,5.3,5.3v4.5C77.8,107.8,77.4,108.2,76.8,108.2z"/>
		</g>
		<g>
			<path class="st1" d="M73,91.1c-0.6,0-1-0.4-1-1v-4.5c0-1.8-1.5-3.3-3.3-3.3c-0.6,0-1-0.4-1-1c0-0.6,0.4-1,1-1
				c2.9,0,5.3,2.4,5.3,5.3v4.5C74,90.7,73.5,91.1,73,91.1z"/>
		</g>
		<g>
			<path class="st1" d="M67.2,131c-0.6,0-1-0.4-1-1c0-2.9,2.4-5.3,5.3-5.3c0.6,0,1,0.4,1,1c0,0.6-0.4,1-1,1c-1.8,0-3.3,1.5-3.3,3.3
				C68.2,130.6,67.7,131,67.2,131z"/>
		</g>
	</g>
	<g>
		<path class="st0" d="M122.1,133.3c7.5,0,13.6-6.1,13.7-13.6v-2.2l1.9-0.5c4.2-1.1,7.2-4.9,7.2-9.2c0-2.2-0.7-4.2-2.1-6l-2-2.5
			l2.8-1.4c3-1.5,4.9-4.6,4.9-7.9c0-3.2-1.8-6.2-4.8-7.9l-2.8-1.6l2.2-2.4c1.8-2,2.8-4.5,2.8-7.1c0-4.8-3.3-9-8-10.1l-3.4-0.8l1.8-3
			c0.9-1.5,1.4-3.1,1.4-4.8c0-4.7-3.7-8.8-8.4-9.2l-2-0.2l-0.3-2c-1-6.6-6.8-11.6-13.5-11.6c-7.6,0-13.7,6.1-13.7,13.7v76.7
			c0,7.6,6.1,13.7,13.7,13.7H122.1z"/>
		<path class="st1" d="M122.1,134.3h-8.6c-8.1,0-14.7-6.6-14.7-14.7V42.9c0-8.1,6.6-14.7,14.7-14.7c7.2,0,13.4,5.4,14.5,12.5
			l0.2,1.2l1.2,0.1c5.2,0.5,9.3,4.9,9.3,10.2c0,1.9-0.5,3.7-1.5,5.3l-1.1,1.8l2.1,0.5c5.2,1.3,8.8,5.8,8.8,11.1
			c0,2.9-1.1,5.7-3.1,7.8l-1.4,1.5l1.7,1c3.3,1.8,5.3,5.2,5.3,8.8c0,3.7-2.1,7.1-5.4,8.8l-1.7,0.9l1.2,1.5c1.5,1.9,2.3,4.2,2.3,6.6
			c0,4.8-3.3,9-7.9,10.2l-1.2,0.3v1.4C136.8,127.7,130.2,134.3,122.1,134.3z M113.6,30.2c-7,0-12.7,5.7-12.7,12.7v76.7
			c0,7,5.7,12.7,12.7,12.7h8.6c6.9,0,12.6-5.6,12.7-12.6v-2.9l2.7-0.7c3.8-1,6.4-4.4,6.4-8.3c0-2-0.7-3.8-1.9-5.3l-2.7-3.4l3.9-2
			c2.7-1.4,4.3-4.1,4.3-7c0-2.8-1.6-5.5-4.3-7l-4-2.2l3.1-3.3c1.7-1.8,2.6-4.1,2.6-6.5c0-4.4-3-8.1-7.2-9.2l-4.8-1.2l2.6-4.2
			c0.8-1.3,1.2-2.8,1.2-4.3c0-4.2-3.3-7.8-7.5-8.2l-2.8-0.2l-0.4-2.8C125.2,34.8,119.8,30.2,113.6,30.2z"/>
	</g>
	<g>
		<g>
			<path class="st1" d="M111,53.3c-0.6,0-1-0.4-1-1c0-5.5,4.5-9.9,9.9-9.9h8.7c0.6,0,1,0.4,1,1c0,0.6-0.4,1-1,1h-8.7
				c-4.4,0-7.9,3.6-7.9,7.9C112,52.9,111.5,53.3,111,53.3z"/>
		</g>
		<g>
			<path class="st1" d="M122.1,133.9h-8.6c-7.9,0-14.4-6.4-14.4-14.4V42.9c0-7.9,6.5-14.4,14.4-14.4c7.9,0,14.4,6.5,14.4,14.4
				c0,0.6-0.4,1-1,1c-0.6,0-1-0.4-1-1c0-6.8-5.6-12.4-12.4-12.4c-6.8,0-12.4,5.6-12.4,12.4v76.7c0,6.8,5.6,12.4,12.4,12.4h8.6
				c7.1,0,12.4-5.9,12.4-13.6c0-0.6,0.4-1,1-1c0.6,0,1,0.4,1,1C136.5,127.2,130.3,133.9,122.1,133.9z"/>
		</g>
		<g>
			<path class="st1" d="M128.6,62.1c-0.6,0-1-0.4-1-1c0-0.6,0.4-1,1-1c4.4,0,7.9-3.6,7.9-7.9c0-4.4-3.6-7.9-7.9-7.9h-1.9
				c-0.6,0-1-0.4-1-1c0-0.6,0.4-1,1-1h1.9c5.5,0,9.9,4.5,9.9,9.9C138.5,57.6,134.1,62.1,128.6,62.1z"/>
		</g>
		<g>
			<path class="st1" d="M135.8,82.1h-0.2c-0.6,0-1-0.4-1-1c0-0.6,0.4-1,1-1c5,0,9.1-4.1,9.1-9.1c0-5-4.1-9.1-9.1-9.1h-4.3
				c-0.6,0-1-0.4-1-1c0-0.6,0.4-1,1-1h4.3c6.1,0,11.1,5,11.1,11.1C146.7,77,141.8,82,135.8,82.1C135.8,82.1,135.8,82.1,135.8,82.1z"
				/>
		</g>
		<g>
			<path class="st1" d="M135.4,118h-15.2c-0.6,0-1-0.4-1-1c0-0.6,0.4-1,1-1h15.2c4.5,0,8.2-3.7,8.2-8.2c0-4.5-3.7-8.2-8.2-8.2
				c-0.6,0-1-0.4-1-1c0-0.6,0.4-1,1-1c5.6,0,10.2,4.6,10.2,10.2C145.6,113.4,141,118,135.4,118z"/>
		</g>
		<g>
			<path class="st1" d="M139.7,99.6h-8.9c-0.6,0-1-0.4-1-1c0-0.6,0.4-1,1-1h8.9c4.2,0,7.6-3.4,7.6-7.6c0-4.1-3.7-7.8-8-7.8h-4.4
				c-0.6,0-1-0.4-1-1s0.4-1,1-1h4.4c5.3,0,10,4.6,10,9.8C149.2,95.3,144.9,99.6,139.7,99.6z"/>
		</g>
		<g>
			<path class="st1" d="M134.9,108.9h-18.8c-3.7,0-6.8-3-6.8-6.8v-18c0-3.7,3-6.8,6.8-6.8c0.6,0,1,0.4,1,1c0,0.6-0.4,1-1,1
				c-2.6,0-4.8,2.1-4.8,4.8v18c0,2.6,2.1,4.8,4.8,4.8h18.8c0.6,0,1,0.4,1,1C135.9,108.4,135.4,108.9,134.9,108.9z"/>
		</g>
		<g>
			<path class="st1" d="M115.9,125.3c-3.6,0-6.6-3-6.6-6.6V99.5c0-0.6,0.4-1,1-1c0.6,0,1,0.4,1,1v19.2c0,2.5,2.1,4.6,4.6,4.6
				c0.6,0,1,0.4,1,1S116.4,125.3,115.9,125.3z"/>
		</g>
		<g>
			<path class="st1" d="M136.1,72.5h-11.8c-2.9,0-5.3-2.4-5.3-5.3V55.6c0-2.9,2.4-5.3,5.3-5.3h3.1c0.6,0,1,0.4,1,1c0,0.6-0.4,1-1,1
				h-3.1c-1.8,0-3.3,1.5-3.3,3.3v11.6c0,1.8,1.5,3.3,3.3,3.3h11.8c0.6,0,1,0.4,1,1C137.1,72,136.6,72.5,136.1,72.5z"/>
		</g>
		<g>
			<path class="st1" d="M110.4,66.8c-0.6,0-1-0.4-1-1c0-2.9,2.4-5.3,5.3-5.3h4.5c0.6,0,1,0.4,1,1s-0.4,1-1,1h-4.5
				c-1.8,0-3.3,1.5-3.3,3.3C111.4,66.3,110.9,66.8,110.4,66.8z"/>
		</g>
		<g>
			<path class="st1" d="M136.1,91.5h-21.5c-2.9,0-5.3-2.4-5.3-5.3v-1.4c0-0.6,0.4-1,1-1c0.6,0,1,0.4,1,1v1.4c0,1.8,1.5,3.3,3.3,3.3
				h21.5c0.6,0,1,0.4,1,1C137.1,91.1,136.6,91.5,136.1,91.5z"/>
		</g>
		<g>
			<path class="st1" d="M118.7,108.2c-0.6,0-1-0.4-1-1v-4.5c0-2.9,2.4-5.3,5.3-5.3c0.6,0,1,0.4,1,1c0,0.6-0.4,1-1,1
				c-1.8,0-3.3,1.5-3.3,3.3v4.5C119.7,107.8,119.3,108.2,118.7,108.2z"/>
		</g>
		<g>
			<path class="st1" d="M122.6,91.1c-0.6,0-1-0.4-1-1v-4.5c0-2.9,2.4-5.3,5.3-5.3c0.6,0,1,0.4,1,1c0,0.6-0.4,1-1,1
				c-1.8,0-3.3,1.5-3.3,3.3v4.5C123.6,90.7,123.1,91.1,122.6,91.1z"/>
		</g>
		<g>
			<path class="st1" d="M128.3,131c-0.6,0-1-0.4-1-1c0-1.8-1.5-3.3-3.3-3.3c-0.6,0-1-0.4-1-1c0-0.6,0.4-1,1-1c2.9,0,5.3,2.4,5.3,5.3
				C129.3,130.6,128.9,131,128.3,131z"/>
		</g>
	</g>
</g>
<g>
	<g>
		<path class="st2" d="M47.7,90.4c-0.1,1.3-0.2,2.6-0.2,3.9c0,1.6,1.2,24.9,20.2,49.3c5.6,7.4,4.6,22.2,4.6,22.2c7.8,0,14.2,0,22,0
			c2.4,0,4.8,0,7.1,0c7.8,0,14.3,0,22.1,0c-0.1,0-1.1-14.8,4.5-22.2c19-24.4,20.2-47.7,20.2-49.3c0-1.3-0.1-2.6-0.2-3.9H47.7z"/>
		<path class="st1" d="M123.5,166.8H72.2v-1l-1-0.1c0-0.1,0.9-14.4-4.4-21.4C47,118.7,46.5,94.6,46.5,94.3c0-1.2,0.1-2.5,0.2-4
			l0.1-0.9h102.2l0.1,0.9c0.1,1.5,0.2,2.8,0.2,4c0,0.2-0.6,24.4-20.4,49.9c-4.8,6.4-4.5,19.6-4.3,21.4l-1,0.2V166.8z M73.3,164.8
			h49.2c-0.2-4,0-15.5,4.7-21.8c19.4-25,20-48.5,20-48.7c0-0.9,0-1.9-0.1-2.9H48.6c-0.1,1.1-0.1,2-0.1,2.9c0,0.2,0.5,23.7,20,48.7
			C73.2,149.4,73.5,160.8,73.3,164.8z"/>
	</g>
	<g>
		<path class="st1" d="M124.5,173.5H71.2c-0.6,0-1-0.4-1-1c0-0.6,0.4-1,1-1h53.3c0.6,0,1,0.4,1,1C125.5,173.1,125,173.5,124.5,173.5
			z"/>
	</g>
	<g>
		<path class="st1" d="M124.5,180.1H71.2c-0.6,0-1-0.4-1-1c0-0.6,0.4-1,1-1h53.3c0.6,0,1,0.4,1,1C125.5,179.7,125,180.1,124.5,180.1
			z"/>
	</g>
	<g>
		<path class="st1" d="M124.5,186.7H71.2c-0.6,0-1-0.4-1-1c0-0.6,0.4-1,1-1h53.3c0.6,0,1,0.4,1,1C125.5,186.3,125,186.7,124.5,186.7
			z"/>
	</g>
	<g>
		<path class="st1" d="M118,194.2H77.6c-0.6,0-1-0.4-1-1c0-0.6,0.4-1,1-1H118c0.6,0,1,0.4,1,1C119,193.8,118.6,194.2,118,194.2z"/>
	</g>
	<g>
		<g>
			
				<rect x="83.7" y="112.1" transform="matrix(0.9866 -0.1631 0.1631 0.9866 -21.4575 15.6725)" class="st1" width="2" height="52.7"/>
		</g>
		<g>
			
				<rect x="84.6" y="137.5" transform="matrix(0.1631 -0.9866 0.9866 0.1631 -43.7976 225.3533)" class="st1" width="52.7" height="2"/>
		</g>
	</g>
	<g>
		<path class="st1" d="M109.9,122.9c-1.7,0-2.4-1.6-3-2.9c-0.3-0.7-0.8-1.8-1.2-1.8c-0.4,0-0.8,1-1.2,1.8c-0.6,1.3-1.3,2.9-3,2.9
			c-1.7,0-2.4-1.6-3-2.9c-0.3-0.7-0.8-1.8-1.2-1.8c-0.4,0-0.8,1-1.2,1.8c-0.6,1.3-1.3,2.9-3,2.9c-1.7,0-2.4-1.6-3-2.9
			c-0.3-0.7-0.8-1.8-1.2-1.8c-0.4,0-0.8,1-1.2,1.8c-0.6,1.3-1.3,2.9-3,2.9c-1.7,0-2.4-1.6-3-2.9c-0.3-0.7-0.8-1.8-1.2-1.8v-2
			c1.7,0,2.4,1.6,3,2.9c0.3,0.7,0.8,1.8,1.2,1.8c0.4,0,0.8-1,1.2-1.8c0.6-1.3,1.3-2.9,3-2.9c1.7,0,2.4,1.6,3,2.9
			c0.3,0.7,0.8,1.8,1.2,1.8c0.4,0,0.8-1,1.2-1.8c0.6-1.3,1.3-2.9,3-2.9c1.7,0,2.4,1.6,3,2.9c0.3,0.7,0.8,1.8,1.2,1.8s0.8-1,1.2-1.8
			c0.6-1.3,1.3-2.9,3-2.9c1.7,0,2.4,1.6,3,2.9c0.3,0.7,0.8,1.8,1.2,1.8c0.4,0,0.8-1,1.2-1.8c0.6-1.3,1.3-2.9,3-2.9v2
			c-0.4,0-0.8,1-1.2,1.8C112.4,121.3,111.6,122.9,109.9,122.9z"/>
	</g>
	<g>
		<path class="st1" d="M97.8,21.1c-0.6,0-1-0.4-1-1V1c0-0.6,0.4-1,1-1c0.6,0,1,0.4,1,1v19.1C98.8,20.6,98.4,21.1,97.8,21.1z"/>
	</g>
	<g>
		<path class="st1" d="M194.6,98.8h-19.1c-0.6,0-1-0.4-1-1c0-0.6,0.4-1,1-1h19.1c0.6,0,1,0.4,1,1C195.6,98.4,195.2,98.8,194.6,98.8z
			"/>
	</g>
	<g>
		<path class="st1" d="M20.1,98.8H1c-0.6,0-1-0.4-1-1c0-0.6,0.4-1,1-1h19.1c0.6,0,1,0.4,1,1C21.1,98.4,20.6,98.8,20.1,98.8z"/>
	</g>
	<g>
		<path class="st1" d="M152.8,43.8c-0.3,0-0.5-0.1-0.7-0.3c-0.4-0.4-0.4-1,0-1.4l13.5-13.5c0.4-0.4,1-0.4,1.4,0c0.4,0.4,0.4,1,0,1.4
			l-13.5,13.5C153.3,43.7,153.1,43.8,152.8,43.8z"/>
	</g>
	<g>
		<path class="st1" d="M29.4,167.3c-0.3,0-0.5-0.1-0.7-0.3c-0.4-0.4-0.4-1,0-1.4l13.5-13.5c0.4-0.4,1-0.4,1.4,0c0.4,0.4,0.4,1,0,1.4
			L30.1,167C29.9,167.2,29.6,167.3,29.4,167.3z"/>
	</g>
	<g>
		<path class="st1" d="M166.3,167.3c-0.3,0-0.5-0.1-0.7-0.3l-13.5-13.5c-0.4-0.4-0.4-1,0-1.4c0.4-0.4,1-0.4,1.4,0l13.5,13.5
			c0.4,0.4,0.4,1,0,1.4C166.8,167.2,166.5,167.3,166.3,167.3z"/>
	</g>
	<g>
		<path class="st1" d="M42.8,43.8c-0.3,0-0.5-0.1-0.7-0.3L28.7,30.1c-0.4-0.4-0.4-1,0-1.4s1-0.4,1.4,0l13.5,13.5
			c0.4,0.4,0.4,1,0,1.4C43.3,43.7,43.1,43.8,42.8,43.8z"/>
	</g>
</g>
</svg>
