<?xml version="1.0" encoding="utf-8"?>
<!-- Generator: Adobe Illustrator 19.1.0, SVG Export Plug-In . SVG Version: 6.00 Build 0)  -->
<svg version="1.1" id="Layer_1" xmlns="http://www.w3.org/2000/svg" xmlns:xlink="http://www.w3.org/1999/xlink" x="0px" y="0px"
	 viewBox="-407 807.3 2020.2 1222.3" style="enable-background:new -407 807.3 2020.2 1222.3;" xml:space="preserve">
<style type="text/css">
	.st0{fill:white;}
</style>
<g>
	<path class="st0" d="M-207.9,1133.5h3.2l52.1,154.1H48.7l-79.8-156.1c-7.3-14-17-21.7-24.8-28.7l0.6-3.8
		c68.4-21.7,101.3-52.2,112.7-124.8C76.5,853.3-7.9,807.4-116.2,807.4H-327l-75.9,480.3h170.7L-207.9,1133.5z M-177.1,938.6h13.4
		c29.9,0,55.3,4.5,49.5,41.4c-5.6,35.7-35,40.1-63.7,40.1H-190L-177.1,938.6z"/>
	<polygon class="st0" points="425.4,1156.5 273.2,1156.5 280.6,1109.3 415,1109.3 434.8,984.5 300.4,984.5 307.6,938.6 454.7,938.6
		475.5,807.4 152.6,807.4 76.7,1287.7 404.7,1287.7 	"/>
	<path class="st0" d="M687.5,1287.7c84.1,0,181.1-33.8,196.7-132.5c9.1-57.3-18-95.5-67.3-114l0.6-3.8
		c44.1-13.4,71.7-54.8,78.3-96.8C913.4,829.7,822,807.4,729,807.4H525.8l-75.9,480.3H687.5z M669.3,923.3h12.1
		c25.5,0,58.4-2.5,52.7,33.1c-5.2,33.1-34.3,35.7-59.8,35.7h-15.9L669.3,923.3z M642.4,1093.4h17.2c28,0,72.7-0.6,66.4,39.5
		c-6.2,39.5-47.7,40.1-76.4,40.1h-19.7L642.4,1093.4z"/>
	<polygon class="st0" points="1220,1287.7 1240.7,1156.5 1088.5,1156.5 1095.9,1109.3 1230.3,1109.3 1250,984.5 1115.7,984.5
		1122.9,938.6 1270,938.6 1290.8,807.4 967.8,807.4 891.9,1287.7 	"/>
	<polygon class="st0" points="1587.5,1287.7 1611.8,1133.5 1465.3,1133.5 1516.9,807.4 1342.4,807.4 1266.5,1287.7 	"/>
</g>
<g>
	<path class="st0" d="M46.3,1436.8v4.6c0.6,3.7,0.6,7.1,0,10.2c-0.6,1.9-1.1,3.6-1.4,5.1s-0.5,3.2-0.5,5.1
		c-2.5,8.6-5.5,15.4-9.2,20.3c-1.9,4.3-2.5,8.3-1.9,12c0.6,5.5-0.3,11.1-2.8,16.6c-1.2,2.5-2,4.9-2.3,7.4s-0.8,5.2-1.4,8.3
		c-0.6,1.8-0.3,3.2,0.9,4.2c1.2,0.9,2.2,2,2.8,3.2c-0.6,0.6-1.9,0.9-3.7,0.9c-2.5,5.5-4.8,11-6.9,16.2c-2.2,5.2-4.5,10.6-6.9,16.2
		c-1.2,2.5-2.5,5.5-3.7,9.2c-1.2,3.7-2.9,7.4-5.1,11.1s-4.2,7.4-6,11.1c-0.6,1.2-1.2,2.3-1.9,3.2c-0.6,0.9-0.6,2,0,3.2
		c0.6,2.5-0.3,4.9-2.8,7.4c-5.5,1.8-8.3,5.5-8.3,11.1l-1.9,3.7c-1.2,2.5-2.5,4.8-3.7,6.9c-1.2,2.2-2.5,4.8-3.7,7.9
		c-1.2,2.5-1.1,4.6,0.5,6.5c1.5,1.8,3.8,2.5,6.9,1.8h4.6c0,0.6,0.1,1.1,0.5,1.4c0.3,0.3,0.5,0.8,0.5,1.4c-1.2,2.5-2.3,4.8-3.2,6.9
		c-0.9,2.2-2,4.5-3.2,6.9c-0.6,1.2-0.9,2.6-0.9,4.2c0,1.5-0.9,2.9-2.8,4.2c-1.2,3.7-1.9,6.5-1.9,8.3c1.2,3.1,0.6,7.7-1.9,13.9
		c-1.2,1.2-1.9,2.8-1.9,4.6c0.6,3.7,0.3,8.6-0.9,14.8c-0.6,0.6-0.8,1.2-0.5,1.8s0.1,1.5-0.5,2.8c-0.6,0.6-1.2,0.9-1.9,0.9
		c-0.6,0-1.5,0.3-2.8,0.9c0.6,0.6,0.9,1.2,0.9,1.9c0,0.6,0.3,1.2,0.9,1.8l1.9,3.7c-2.5,0-5.5,0.6-9.2,1.8c-0.6,1.2-0.9,2.2-0.9,2.8
		s-0.3,1.5-0.9,2.8c0,0.6,0.3,1.2,0.9,1.8c1.9,6.2,0.6,11.7-3.7,16.7c-1.9,3.1-2.8,6.2-2.8,9.2c0,1.8-0.3,3.7-0.9,5.5
		c-0.6,1.8-1.2,4-1.8,6.5c-0.6,0-0.9-1.2-0.9-3.7c1.2-5.6,1.2-9.9,0-13c-0.6-1.2-0.8-2.2-0.5-2.8s0.5-1.5,0.5-2.8
		c0-1.2,0.1-2.3,0.5-3.2c0.3-0.9,0.5-2,0.5-3.2c-3.1,1.9-4.6,4.3-4.6,7.4c0,4.3-0.6,7.4-1.9,9.2c-0.6,1.8-1.4,3.6-2.3,5.1
		s-0.8,3.2,0.5,5.1c-1.2,1.8-2.5,4.6-3.7,8.3c-1.9,3.1-2.2,5.5-0.9,7.4c-0.6,0-0.9,0.3-0.9,0.9v1.8c-2.5,1.2-4,2.2-4.6,2.8
		c-1.2,1.8-1.8,3.7-1.8,5.5c0,1.8-0.6,4-1.9,6.5c0,0.6-1.2,1.5-3.7,2.8c0.6,2.5,0.5,4.9-0.5,7.4c-0.9,2.5-1.1,5.2-0.5,8.3h-0.9
		c-1.8,2.5-3.1,5.1-3.7,7.9c-0.6,2.8-1.5,5.4-2.8,7.9h-0.9c-1.2,0-1.9-0.6-1.9-1.8c0-1.2-0.2-2.2-0.5-2.8c-0.3-0.6-0.5-1.5-0.5-2.8
		c-1.9,1.2-3.7,2.3-5.6,3.2c-1.9,0.9-3.1,2.9-3.7,6c0,1.2-0.6,1.9-1.9,1.9c-2.5,1.2-3.7,4.3-3.7,9.2c0,1.2,0.1,2,0.5,2.3
		c0.3,0.3,0.5,1.1,0.5,2.3c-0.6,1.2-1.5,3.7-2.8,7.4c-3.7,0-5.5,1.5-5.5,4.6c-1.2,3.1-3.1,4.9-5.5,5.5c-3.1,2.5-6.5,4-10.2,4.6
		c-1.2-0.6-1.9-1.9-1.9-3.7c0-3.7,0.1-7.4,0.5-11.1c0.3-3.7,0.5-7.4,0.5-11.1s-0.2-7.4-0.5-11.1s-0.5-7.4-0.5-11.1V1820
		c0-1.9,0.6-4,1.9-6.5c0.6-1.8,0.6-4,0-6.5v-0.9c0-5.5,0.1-10.9,0.5-16.2c0.3-5.2,1.4-10.3,3.2-15.3c1.2-3.1,2.2-5.9,2.8-8.3
		c0.6-2.5,1.5-4.9,2.8-7.4c0.6-0.6,0.9-1.8,0.9-3.7c1.2-6.8,2.6-13.3,4.2-19.4c1.5-6.2,3.2-12.6,5.1-19.4c0-1.2,0.3-2.5,0.9-3.7
		c0.6-1.2,1.2-2.5,1.9-3.7c-0.6-0.6-0.9-1.1-0.9-1.4c0-0.3-0.3-0.8-0.9-1.4c-3.1-4.3-3.4-8.3-0.9-12c0.6-0.6,0.9-1.8,0.9-3.7
		c-1.2-2.5-1.2-5.2,0-8.3c1.2-4.9,2.2-9.9,2.8-14.8c0.6-4.9,1.2-9.9,1.9-14.8c0.6-3.1,1.1-6.2,1.4-9.2c0.3-3.1,0.8-6.2,1.4-9.2
		c1.2-8,2.5-15.7,3.7-23.1s2.5-15.1,3.7-23.1v-4.6c-4.9,1.9-8.3,5.2-10.2,10.2c-0.6,3.7-1.9,7.1-3.7,10.2c-1.8,3.1-3.7,6.2-5.5,9.2
		c-3.7,6.2-6.2,13.6-7.4,22.2c-0.6,1.8-0.9,3.6-0.9,5.1s-0.3,2.9-0.9,4.2l-1.9,3.7c-1.2,0.6-2.8,0.9-4.6,0.9s-3.7,0.3-5.6,0.9
		c-1.2,1.2-2.6,2.8-4.2,4.6c-1.5,1.9-2.9,3.4-4.2,4.6c-1.9,0-3.6-0.5-5.1-1.4s-3.2-2-5.1-3.2c-1.2,1.2-2.5,2.5-3.7,3.7
		c-1.2,1.2-2.5,2.5-3.7,3.7c-0.6-0.6-0.9-1.1-0.9-1.4s-0.3-0.8-0.9-1.4c-1.2,0-2.5,0.2-3.7,0.5c-1.2,0.3-2.5,0.5-3.7,0.5
		s-3.1-0.6-5.6-1.8c-1.8,0.6-3.2,1.7-4.2,3.2c-0.9,1.5-2.6,2-5.1,1.4l-2.8-11.1c-0.6-3.1-1.5-5.2-2.8-6.5c-1.2-1.2-3.1-2.5-5.6-3.7
		c-1.8,1.9-3.7,3.6-5.5,5.1c-1.9,1.5-4,3.2-6.5,5.1c0,1.2-0.2,2.5-0.5,3.7c-0.3,1.2-0.5,2.5-0.5,3.7c-1.2,0.6-2.2,0.6-2.8,0
		s-1.5-1.2-2.8-1.8c-1.9-1.9-3.7-3.5-5.5-5.1c-1.9-1.5-4.3-2.6-7.4-3.2c-2.5-1.2-3.4-2.8-2.8-4.6l3.7-1.8v-3.7
		c-1.2-2.5-1.9-4.6-1.9-6.5c0-0.6-0.9-1.5-2.8-2.8c-0.6,0-1.5,0.6-2.8,1.8h-0.9c-2.5-3.1-4-6.5-4.6-10.2c-0.6-2.5-1.9-4.9-3.7-7.4
		c-2.5-4.9-4-8.6-4.6-11.1c0-3.1-0.8-5.7-2.3-7.9c-1.5-2.2-2.9-4.5-4.2-6.9c-0.6-1.2-0.9-2.8-0.9-4.6c0-1.2-0.6-3.1-1.9-5.5
		c0-0.6-0.6-2.2-1.8-4.6c0-2.5-0.3-4-0.9-4.6c-1.2-2.5-2.5-3.7-3.7-3.7c-1.9,0-3.4,1.2-4.6,3.7c-1.9,3.7-3.2,7.6-4.2,11.6
		c-0.9,4-2,7.9-3.2,11.6c0,1.2-0.3,2.2-0.9,2.8c-0.6,1.2-1.4,2.6-2.3,4.2c-0.9,1.5-1.7,3.2-2.3,5.1c0,2.5-0.6,5.5-1.9,9.2
		c-3.7,6.2-6.8,12.3-9.2,18.5c0,0.6-0.3,1.2-0.9,1.9c-1.8,1.2-2.9,2.6-3.2,4.2c-0.3,1.5-0.8,2.9-1.4,4.2c-1.2,1.9-1.8,3.9-1.8,6
		c0,2.2-0.6,3.9-1.9,5.1c-1.2,1.2-2,2.9-2.3,5.1c-0.3,2.2-1.1,3.9-2.3,5.1c0,0.6-0.2,1.1-0.5,1.4c-0.3,0.3-0.5,0.8-0.5,1.4
		c0,3.1-0.8,5.2-2.3,6.5c-1.5,1.2-2.9,2.8-4.2,4.6l-6.5,6.5c1.2,3.7,1.8,5.9,1.8,6.5c0,1.8-0.6,3.4-1.8,4.6
		c-1.2,1.8-2.5,2.5-3.7,1.8c-1.9-0.6-2.8,0.3-2.8,2.8c0.6,1.2,0.9,2.8,0.9,4.6c0.6,0.6,1.5,0.9,2.8,0.9v2.8
		c-3.1,3.1-3.7,6.2-1.8,9.2c-0.6,3.7-1.4,7.4-2.3,11.1c-0.9,3.7-2.9,7.1-6,10.2c-2.5,2.5-3.7,4.3-3.7,5.5c0,1.8-0.5,3.2-1.4,4.2
		c-0.9,0.9-1.7,2-2.3,3.2c-0.6,0.6-2.5,0.9-5.6,0.9v-5.6c1.2-6.2,2.2-10.5,2.8-12.9c0-2.5-0.3-4.3-0.9-5.6c-1.2-2.5-1.2-6.2,0-11.1
		c1.2-3.7,1.9-6.8,1.9-9.2c0.6,0,0.8-0.3,0.5-0.9c-0.3-0.6-0.8-0.9-1.4-0.9c-1.2,0-1.8,0.3-1.8,0.9c-1.2,2.5-2.5,6.2-3.7,11.1
		c-0.6,1.2-0.9,2.3-0.9,3.2s-0.3,2-0.9,3.2c0,0.6-0.2,0.9-0.5,0.9c-0.3,0-0.5,0.3-0.5,0.9c-0.6,4.9-1.7,9.4-3.2,13.4
		s-3.2,8.2-5.1,12.5c-1.2,2.5-1.9,4.9-1.9,7.4s-0.6,5.2-1.9,8.3c-1.2-2.5-1.9-4-1.9-4.6c-0.6-1.2-0.8-2.3-0.5-3.2s0.5-2,0.5-3.2
		c0-1.9-0.9-2.8-2.8-2.8c-1.2,0-1.9,0.9-1.9,2.8c0,3.7-0.5,7.3-1.4,10.6c-0.9,3.4-1.4,6.6-1.4,9.7c0,1.2-0.3,2.2-0.9,2.8
		c-0.6,0.6-1.2,1.5-1.9,2.8c-2.5,3.7-2.5,6.2,0,7.4c1.2,1.2,1.4,2.5,0.5,3.7c-0.9,1.2-1.4,2.5-1.4,3.7c-1.9,0-3.1-0.3-3.7-0.9
		c-1.2,3.1-2.2,6.2-2.8,9.2c-0.6,3.1-0.9,8.6-0.9,16.6l3.7,1.9c-0.6,1.2-0.9,2.3-0.9,3.2s-0.3,2-0.9,3.2c-0.6-0.6-1.1-0.9-1.4-0.9
		s-0.8-0.3-1.4-0.9c-1.2,0.6-1.9,2.2-1.9,4.6c0,3.1-0.8,5.7-2.3,7.9c-1.5,2.2-2.9,4.8-4.2,7.9h-2.8c0,0.6-0.3,1.2-0.9,1.9
		c1.2,4.3,1.1,8.2-0.5,11.6c-1.5,3.4-2,6.9-1.4,10.6c0,1.2-0.6,1.8-1.9,1.8c-1.2,0-1.9,0.3-1.9,0.9s-0.3,1.2-0.9,1.9
		c-0.6,1.8-1.1,3.5-1.4,5.1c-0.3,1.5-0.8,3.2-1.4,5.1l-5.2-2.7v-4.6c0-2.5,0-4.3,0-5.5v-13c0-2.5,0.3-5.9,0.9-10.2
		c0-1.2,0.1-2.6,0.5-4.2c0.3-1.5,0.1-2.9-0.5-4.2c-0.6-3.1-0.6-6.5,0-10.2c0.6-3.1,0.9-6,0.9-8.8c0-2.8,0-5.7,0-8.8
		c0-2.5,0.3-4.3,0.9-5.5c0-1.2,0.1-2,0.5-2.3c0.3-0.3,0.1-1.1-0.5-2.3c-0.6-4.9-0.5-9.2,0.5-13c0.9-3.7,2-8,3.2-13
		c1.2-4.9,2.3-9.9,3.2-14.8s1.7-9.9,2.3-14.8c0-2.5,0.6-4.3,1.9-5.5c1.2-1.2,1.9-2.8,1.9-4.6c0-1.2-0.2-2.8-0.5-4.6
		c-0.3-1.8-0.2-3.7,0.5-5.5c1.2-3.1,2-6,2.3-8.8c0.3-2.8,1.1-5.7,2.3-8.8c0.6-0.6,0.9-1.5,0.9-2.8c-0.6-8.6,0.3-17.6,2.8-26.8
		c0-6.8,1.1-13.4,3.2-19.9c2.2-6.5,3.5-13.1,4.2-19.9c0.6-1.2,0.9-2.3,0.9-3.2s0.6-2,1.9-3.2c0.6-0.6,0.9-1.5,0.9-2.8
		c1.2-4.3,2.2-8.6,2.8-13c0.6-4.3,1.5-8.9,2.8-13.9v-1.9c-1.9-3.1-2.2-5.7-0.9-7.9c1.2-2.2,1.8-4.8,1.8-7.9c0-0.6,0.6-1.5,1.9-2.8
		c1.9-1.2,2.9-2.8,3.2-4.6c0.3-1.8,1.1-3.7,2.3-5.5c1.2-5.5,2.8-11.1,4.6-16.7c1.8-5.6,3.4-11.1,4.6-16.6c0.6-1.9,1.1-3.5,1.4-5.1
		c0.3-1.5,0.8-3.2,1.4-5.1v-1.8c-1.2-2.5-1.5-4.6-0.9-6.5s1.2-4,1.8-6.5l5.6-16.7c1.2-4.9,2.5-9.9,3.7-14.8
		c1.2-4.9,2.5-9.9,3.7-14.8c0.6-1.2,0.9-2,0.9-2.3c0-0.3,0.3-1.1,0.9-2.3c0-4.3,0.6-8.3,1.9-12c1.2-3.7,2.5-7.7,3.7-12
		c1.9-4.9,3.4-9.9,4.6-14.8c1.2-4.9,2.5-9.9,3.7-14.8c1.2-3.7,2.5-6.8,3.7-9.2c0-1.2,0.6-1.8,1.9-1.8c4.9-1.2,8.9-1.9,12-1.9
		c1.2,0,2.5,0,3.7,0c7.4,0,13.6,1.2,18.5,3.7c0.6,0.6,1.9,0.9,3.7,0.9c8,1.2,13,4.6,14.8,10.2c1.2,4.9,4.3,6.8,9.2,5.6
		c1.2,2.5,2.5,4.3,3.7,5.5c3.1,4.9,7.4,8.3,12.9,10.2c2.5,0.6,5.6,2.8,9.3,6.5c2.5,4.9,6.2,8.6,11.1,11.1c4.9,3.1,6.8,6.8,5.6,11.1
		c1.2,1.2,2.6,2.5,4.2,3.7c1.5,1.2,2.3,2.8,2.3,4.6c1.2,2.5,2.5,4.6,3.7,6.5c1.2,1.8,2.5,4.3,3.7,7.4l8.3,25c0,1.2-0.3,2.2-0.9,2.8
		c-1.8,3.7-1.2,6.2,1.9,7.4c3.1,0,5.2,1.9,6.5,5.5c0.6,1.2,1.5,3.7,2.8,7.4c1.2,0,2.5-0.6,3.7-1.8c3.7-3.7,6.8-6.5,9.2-8.3
		c3.1-4.3,6.5-7.4,10.2-9.2c1.2-1.2,2.5-2.3,3.7-3.2s2.5-2,3.7-3.2c3.1-3.1,5.7-6.3,7.9-9.7c2.2-3.4,4.8-6.6,7.9-9.7l4.6-4.6
		c6.8-4.9,12.8-10,18-15.3c5.2-5.2,10.6-10.6,16.2-16.2c3.1-3.1,5.9-5.7,8.3-7.9c2.5-2.2,5.2-4.8,8.3-7.9c2.5-1.8,4.3-4.6,5.6-8.3
		c0.6-3.7,3.1-6.5,7.4-8.3c2.5-0.6,4.3-2.5,5.6-5.5c0.6-0.6,0.9-1.1,0.9-1.4c0-0.3,0.3-0.8,0.9-1.4c2.5-0.6,4.3-2.5,5.6-5.5
		c1.9-3.1,4-3.4,6.5-0.9c3.1,1.8,5.9,2.5,8.3,1.8c1.2-0.6,3.4-0.9,6.5-0.9c1.9-0.6,3.1-0.6,3.7,0c2.5,1.9,5.2,2.2,8.3,0.9
		c3.7-1.2,6.8-1.8,9.2-1.8c3.1,0.6,6,1.2,8.8,1.8s5.7,1.5,8.8,2.8c2.5,0.6,3.7,2.2,3.7,4.6c3.7,1.2,6,2.2,6.9,2.8s2,2.8,3.2,6.5
		c3.1,1.2,6.3,1.7,9.7,1.4c3.4-0.3,6.6,1.1,9.7,4.2c0,1.2-0.2,2.2-0.5,2.8C46.4,1434.6,46.3,1435.5,46.3,1436.8z M-361.7,1745.7
		c-1.2,0.6-1.9,1.9-1.9,3.7l0.9,0.9l0.9-0.9L-361.7,1745.7L-361.7,1745.7z M-357,1728.1c1.2-2.5,1.9-6.8,1.9-12.9l-2.8,1.8
		c-0.6,2.5-0.9,5.9-0.9,10.2c0,0.6,0.3,0.9,0.9,0.9H-357z M-337.6,1684.7c1.2-1.2,1.5-3.1,0.9-5.5
		C-337.9,1681-338.2,1682.8-337.6,1684.7z M-275.6,1627.3c1.2,0,1.9,0.9,1.9,2.8c3.1,7.4,2.8,14.2-0.9,20.3c-1.2,1.9-2.5,3.9-3.7,6
		c-1.2,2.2-1.9,4.8-1.9,7.9v2.8c1.9,2.5,2.6,4.6,2.3,6.5c-0.3,1.9-0.8,4-1.4,6.5c-0.6,1.8-0.9,3.7-0.9,5.5c0,1.8-0.3,3.7-0.9,5.5
		c-1.2,4.9-2.2,8.3-2.8,10.2c-1.2,3.7-1.8,6.2-1.8,7.4c-0.6,1.2-0.9,2.2-0.9,2.8s-0.3,1.2-0.9,1.8c-1.9,1.2-3.2,2.9-4.2,5.1
		c-0.9,2.2-2,4.5-3.2,6.9c-2.5,2.5-3.1,4.9-1.9,7.4c0,0.6-0.2,1.1-0.5,1.4c-0.3,0.3-0.5,1.1-0.5,2.3c-2.5-1.2-4-1.8-4.6-1.8
		c-1.9-1.2-2.8-3.1-2.8-5.5c1.2-3.1,2-6.3,2.3-9.7c0.3-3.4,1.1-6.6,2.3-9.7c1.2-3.1,2.2-6.2,2.8-9.2c0.6-3.1,1.2-6.2,1.9-9.2
		c1.2-6.2,2.2-10.5,2.8-13c1.9-8,4-15.9,6.5-23.6c2.5-7.7,5.2-15.3,8.3-22.7c0.6-1.2,1.1-2,1.4-2.3
		C-276.7,1629.3-276.3,1628.6-275.6,1627.3z M-210.9,1642.1c0.6,0,1.1-0.3,1.4-0.9c0.3-0.6,0.1-0.9-0.5-0.9c0-1.2-0.6-1.8-1.9-1.8
		c-0.6-0.6-1.8-0.9-3.7-0.9c0.6,1.2,0.9,2.5,0.9,3.7C-213.4,1643-212.1,1643.4-210.9,1642.1z M-84.2,1822.5c1.9-2.5,2.8-4.3,2.8-5.5
		c0-1.2-0.3-2.2-0.9-2.8c0-0.6-0.3-0.6-0.9,0s-0.9,1.2-0.9,1.9v6.4H-84.2z M-46.2,1739.2v-0.9l-0.9,0.9l0.9,0.9V1739.2z M-37,1687.4
		c1.9-2.5,2.2-5.9,0.9-10.2c-1.2,0.6-2.2,0.9-2.8,0.9c-0.6,0-1.2,0.3-1.9,0.9C-39.5,1682.8-38.2,1685.6-37,1687.4z M-26.8,1621.8
		c1.2-1.2,1.9-2.5,1.9-3.7c0-1.2,0.3-2.8,0.9-4.6c-1.9,0-2.8,0.3-2.8,0.9c-1.2,2.5-2.3,4.8-3.2,6.9c-0.9,2.2-1.7,4.5-2.3,6.9
		c-1.2,2.5-1.7,4.9-1.4,7.4c0.3,2.5-0.2,4.9-1.4,7.4c-0.6,0.6-0.3,2.8,0.9,6.5c1.2-3.1,2.3-6,3.2-8.8c0.9-2.8,1.1-5.7,0.5-8.8
		C-30.5,1627.6-29.3,1624.2-26.8,1621.8z M-22.2,1659.7v1.9l0.9-0.9v-1.8L-22.2,1659.7z M-6.5,1601.4c0-1.2,0.1-2.5,0.5-3.7
		c0.3-1.2,0.5-2.5,0.5-3.7c-2.5-1.9-5.2-1.2-8.3,1.8c-3.1,3.1-3.7,6.8-1.9,11.1C-13.3,1605.7-10.2,1603.9-6.5,1601.4z M-10.2,1561.6
		l-1.9,0.9c0,0.6,0.1,0.9,0.5,0.9c0.3,0,0.5,0.3,0.5,0.9c0.6,0,1.2-0.3,1.9-0.9C-9.2,1562.9-9.6,1562.3-10.2,1561.6z M-0.9,1579.2
		c0.6-0.6,1.1-1.2,1.4-1.8s0.8-1.2,1.4-1.8l-0.9-0.9c0-0.6-0.6-0.9-1.9-0.9c0,0.6-0.6,2.2-1.9,4.6c0.6,0,0.9,0.2,0.9,0.5
		C-1.8,1579.1-1.5,1579.2-0.9,1579.2z M10.2,1533.9c0.6-0.6,1.1-0.9,1.4-0.9s0.8-0.3,1.4-0.9l-1.9-1.8c-0.6,0-1.5,0.6-2.8,1.8
		C8.3,1533.3,8.9,1533.9,10.2,1533.9z M16.7,1547.8c1.2-1.2,2-2.6,2.3-4.2c0.3-1.5,0.8-3.5,1.4-6c-3.1,1.9-4.6,3.6-4.6,5.1
		C15.7,1544.2,16,1545.9,16.7,1547.8z M22.2,1497.8c-1.9,1.8-2.8,3.1-2.8,3.7c-1.2,1.2-1.2,2.2,0,2.8c0,0.6,0.3,0.9,0.9,0.9
		c1.2-1.2,1.9-2.2,1.9-2.8V1497.8z"/>
	<path class="st0" d="M411.6,1646.7c-2.5,2.5-4.3,4-5.5,4.6s-2.2,1.2-2.8,1.9c-0.6,0.6-1.5,1.2-2.8,1.8c-0.6,0.6-1.2,0.9-1.9,0.9
		c-0.6,0-1.2,0.3-1.9,0.9c-0.6,0-1.5,0.6-2.8,1.8c-1.2,0.6-1.9,1.5-1.9,2.8c0,1.2-0.6,0.9-1.8-0.9h-0.9c-1.2,1.2-3.7,2.5-7.4,3.7
		c-1.9,0-3.4,0.3-4.6,0.9c-1.2,0.6-2.8,1.2-4.6,1.9c-2.5,1.2-4.3,1.8-5.6,1.8l-2.8,0.9l-1.9,0.9l-8.3,2.8l-0.9,0.9h-1.9
		c-2.5,1.2-4,2.2-4.6,2.8H345c-3.1,0-5.9,0.9-8.3,2.8c-1.2,0-3.1,0.6-5.6,1.8c-0.6,0.6-1.2,0.9-1.8,0.9s-1.5,0.3-2.8,0.9
		c-2.5,1.2-4.6,2.2-6.5,2.8c-1.8,1.2-5.2,2.5-10.2,3.7c-0.6,0-1.5,0.6-2.8,1.8c-2.5,0.6-4.3,0.9-5.6,0.9c-1.2,0-2.5,0.3-3.7,0.9
		s-2.2,0.9-2.8,0.9s-1.5,0.3-2.8,0.9h-3.7c-1.8,0-2.8,1.2-2.8,3.7v4.6c-0.6,1.2-0.9,2.8-0.9,4.6c0,1.9-0.3,3.7-0.9,5.5
		c-0.6,1.2-0.9,2.2-0.9,2.8s0,1.5,0,2.8c-1.2,2.5-1.9,4.6-1.9,6.5c-1.2,2.5-1.9,4.3-1.9,5.5c0,1.2-0.3,2.8-0.9,4.6l-0.9,0.9v0.9
		c-0.6,4.9-2.2,10.8-4.6,17.6l-2.8,8.3c-0.6,1.2-0.9,3.7-0.9,7.4v0.9c-1.9,1.9-2.8,4-2.8,6.5l-0.9,0.9l-2.8,8.3
		c0,1.8-0.6,2.8-1.9,2.8c-0.6,1.2-0.9,2.5-0.9,3.7c0,1.2-0.3,2.2-0.9,2.8c-1.2,3.7-1.8,6.5-1.8,8.3c-0.6,1.2-0.9,2.5-0.9,3.7
		c0,1.2-0.3,2.8-0.9,4.6c0,1.2,0,2.5,0,3.7c0,1.2-0.3,2.5-0.9,3.7v3.7v1.8c-0.6,1.9-2.2,2.8-4.6,2.8c0.6-0.6,0.9-1.5,0.9-2.8v-2.8
		c0-1.2,0.3-1.9,0.9-1.9c0-1.2-0.3-2.2-0.9-2.8h-0.9l-1.9,1.8c0,2.5-0.3,4.3-0.9,5.5v1.9v2.8l-0.9,1.9l-0.9,0.9v0.9h-0.9v-0.9
		c1.2-2.5,1.9-4.9,1.9-7.4s0.3-4.9,0.9-7.4v-3.7c0.6-1.9,0.9-4,0.9-6.5s0-4.3,0-5.5c0-1.2,0.6-3.7,1.9-7.4c0-0.6-0.6-2.2-1.9-4.6
		c-0.6,0.6-0.9,1.2-0.9,1.8c-0.6,1.2-0.9,2.2-0.9,2.8s0,1.5,0,2.8l-2.8,2.8c-0.6,0.6-0.9,1.2-0.9,1.8c-0.6,0.6-0.9,2.2-0.9,4.6
		c-0.6,0.6-0.9,1.5-0.9,2.8c0,2.5-0.3,4.3-0.9,5.5c0,1.2-0.6,1.8-1.9,1.8h-0.9l-2.8,2.8l-0.9,0.9c-1.2,0-2.2,0.6-2.8,1.9
		c-0.6,1.2-0.6,2.5,0,3.7c0,0.6,0.6,0.9,1.9,0.9h1.8c-1.2,1.2-2.2,1.5-2.8,0.9h-0.9c-0.6,0-0.9,0.3-0.9,0.9c-1.2,1.2-1.2,2.5,0,3.7
		v1.8c0,1.9,0.6,2.5,1.9,1.9v1.8c0,0.6-0.3,0.9-0.9,0.9c-0.6,0-0.9-0.3-0.9-0.9s-0.6-0.3-1.9,0.9v0.9c0,0.6,0.3,1.2,0.9,1.8
		c1.9,0,2.5,0.9,1.9,2.8c-0.6-0.6-1.5-0.3-2.8,0.9c0,1.8-0.3,3.4-0.9,4.6c0,1.8,1.2,3.1,3.7,3.7c-1.2,0-2.2,0.3-2.8,0.9v1.8
		c0,0.6-0.3,0.9-0.9,0.9c-0.6,0.6-0.9,1.9-0.9,3.7v4.6v1.9c1.2,0.6,1.5,1.5,0.9,2.8c-0.6,1.2-1.2,2.5-1.9,3.7v0.9v6.5
		c-0.6,2.5-0.9,4.3-0.9,5.5s0,2.5,0,3.7v0.9l-0.9,0.9v0.9c-0.6,1.2-0.9,3.1-0.9,5.6v2.8v7.4c0,3.7,0,6.8,0,9.2
		c0,2.5-0.6,5.2-1.9,8.3c-0.6,3.1-0.9,5.9-0.9,8.3c0,2.5-0.3,4.6-0.9,6.5c-0.6,1.2-0.9,2.8-0.9,4.6c0,3.7-0.3,6.2-0.9,7.4
		c-0.6,1.2-0.9,2.5-0.9,3.7s-0.3,2.2-0.9,2.8c0,0.6-0.3,1.2-0.9,1.9c-1.9-0.6-2.8-2.5-2.8-5.6v-6.5l-0.9-0.9c-1.2,0-1.9-0.9-1.9-2.8
		c0.6-3.1,0.9-7.4,0.9-13v-1.8l-0.9-0.9l-0.9-0.9v-3.7v-5.6v-7.4v-2.8v-0.9c-0.6,0-0.9,0.3-0.9,0.9v4.6l-0.9,0.9
		c-0.6,0.6-0.9,1.5-0.9,2.8c0,1.2-0.3,2.2-0.9,2.8v2.8l0.9,1.9v1.8c0,1.8-0.3,3.1-0.9,3.7v2.8c0,0.6,0,1.2,0,1.8c0,0.6,0,1.5,0,2.8
		v1.8l-0.9,2.8v0.9c0.6,1.2,0.9,2.5,0.9,3.7s-0.3,2.2-0.9,2.8l-0.9,0.9v0.9c-0.6,0-0.9-0.3-0.9-0.9c-0.6-2.5-0.9-4.3-0.9-5.5
		s0.6-2.8,1.9-4.6c0-0.6,0-1.5,0-2.8c0-1.2-0.3-2.5-0.9-3.7c0.6-1.2,0.9-2.5,0.9-3.7s0-2.5,0-3.7s0-2.5,0-3.7s-0.3-2.2-0.9-2.8v-2.8
		v-0.9c-0.6,0-0.9,0.3-0.9,0.9c-0.6,1.2-0.9,2.5-0.9,3.7v1.8c-1.2-2.5-1.5-4.3-0.9-5.5v-2.8v-1.8v-2.8l-0.9-0.9
		c0,0.6-0.3,0.9-0.9,0.9c-1.2,1.2-1.9,2.5-1.9,3.7c0.6,0.6,0.6,0.9,0,0.9c-1.2,0.6-1.5,1.2-0.9,1.9c0.6,0.6,0.9,1.5,0.9,2.8v1.9
		l0.9,1.8c0,1.9-0.3,3.1-0.9,3.7c-1.2,3.1-1.2,5.9,0,8.3l-0.9,0.9c-0.6-1.2-0.9-2.5-0.9-3.7s0-2.5,0-3.7V1911v-0.9
		c-1.2-1.2-1.2-3.1,0-5.5v-2.8v-2.8v-2.8v-0.9l-0.9-1.9c0-1.2,0.3-2.2,0.9-2.8v-3.7c-1.2-1.2-2.2-1.9-2.8-1.9
		c-0.6,0.6-0.9,0.6-0.9,0v-0.9c0-1.8-0.3-3.1-0.9-3.7v-2.8c-1.2-1.2-1.9,0-1.9,3.7c-0.6-0.6-1.2-0.9-1.9-0.9
		c-0.6-1.2-0.9-2.5-0.9-3.7s0-2.5,0-3.7s0-2.5,0-3.7s0.3-2.5,0.9-3.7c0-1.8,0.3-3.4,0.9-4.6v-1.8c-0.6-0.6-0.9-2.2-0.9-4.6v-4.6
		v-2.8l0.9-0.9v-0.9c1.2,0,1.8-0.6,1.8-1.9c0-0.6-0.6-0.9-1.8-0.9s-1.9-0.3-1.9-0.9c-0.6-1.2-0.9-2.5-0.9-3.7s-0.3-2.5-0.9-3.7
		v-11.1c0-1.2,0-2.2,0-2.8s0.3-1.5,0.9-2.8v-25.9c0.6-1.2,0.9-2.5,0.9-3.7c0-1.2,0.3-2.5,0.9-3.7v-1.8c-0.6-1.2-0.9-2.5-0.9-3.7
		c0-1.2,0.3-2.8,0.9-4.6v-9.2c-0.6-1.2-0.9-2.5-0.9-3.7c0-1.2,0-2.5,0-3.7c0-1.8,0-3.4,0-4.6s0.3-2.5,0.9-3.7v-7.4v-0.9
		c0-1.2-0.6-1.8-1.9-1.8c-1.8,0.6-4,0.9-6.5,0.9c-1.2,0.6-3.1,0.9-5.5,0.9c-2.5,0-4.9,0.6-7.4,1.9c-1.9,0.6-4.3,0.9-7.4,0.9H155
		c-1.2,1.2-2.5,1.8-3.7,1.8s-2.5,0.3-3.7,0.9c-0.6,0.6-1.5,0.9-2.8,0.9c-1.2,0-2.5,0.3-3.7,0.9c-0.6,0-2.8,0.6-6.5,1.9h-2.8
		c-1.2,0.6-3.7,1.5-7.4,2.8c-1.2,1.2-2.5,2.5-3.7,3.7c-1.2,1.2-2.5,2.5-3.7,3.7c-1.9,2.5-4,6.2-6.5,11.1c-0.6,1.2-1.5,3.1-2.8,5.5
		c-1.2,2.5-2.5,4.3-3.7,5.6c-0.6,1.2-0.9,2.2-0.9,2.8s-0.6,1.5-1.9,2.8c0,0.6-0.6,1.5-1.9,2.8c-1.2,0.6-2.2,1.5-2.8,2.8
		c-0.6,1.2-1.5,2.5-2.8,3.7c-0.6,1.2-1.2,1.8-1.9,1.8c-0.6,0-1.2,0.6-1.9,1.9c-0.6,1.2-1.2,1.8-1.8,1.8c-0.6,0-0.9,0.9-0.9,2.8
		c-0.6,1.2-1.9,2.8-3.7,4.6c-1.2,1.8-3.1,4-5.6,6.5c-1.2,1.2-2.5,2.8-3.7,4.6c-1.2,1.9-2.2,3.4-2.8,4.6c-0.6,0-1.5,0.6-2.8,1.9
		c-2.5,2.5-4.3,4-5.5,4.6c-2.5,1.2-4.3,2.5-5.6,3.7c-1.2,1.2-2.5,2.5-3.7,3.7s-2.5,2.2-3.7,2.8c-0.6,1.2-2.2,3.1-4.6,5.5
		c-1.2,0.6-2.8,1.9-4.6,3.7s-3.7,3.7-5.6,5.5c-1.9,1.9-3.7,3.4-5.5,4.6c-1.2,1.2-2.2,2.5-2.8,3.7c-0.6,1.2-1.5,2.2-2.8,2.8
		c-0.6,0-0.9,0.3-0.9,0.9c-2.5,0.6-4.3,1.8-5.6,3.7c-1.2,1.8-2.5,3.4-3.7,4.6c-3.7,3.7-6.5,6.2-8.3,7.4c-1.2,1.9-2.8,3.4-4.6,4.6
		c-1.9,1.2-3.7,2.5-5.5,3.7l-2.8,2.8c-2.5,1.8-4.9,3.1-7.4,3.7c-1.2,0.6-2.5,1.2-3.7,1.8c-1.2,0.6-2.2,1.2-2.8,1.9
		c-1.2,0.6-2.5,0.9-3.7,0.9s-2.5,0.3-3.7,0.9c-1.9,0.6-3.4,0.9-4.6,0.9s-2.8,0.3-4.6,0.9c-1.2,0-2.2-0.3-2.8-0.9c-1.2,0-2.5,0-3.7,0
		s-3.1-0.3-5.5-0.9c-2.5,0-4.9-0.9-7.4-2.8h-2.8l-5.5-5.5c-3.1-2.5-4.6-4.9-4.6-7.4s-0.6-4.6-1.9-6.5c0-1.8-0.6-4-1.9-6.5
		c0-0.6-0.6-2.2-1.9-4.6v-3.7v-0.9c0-3.7,0-6.8,0-9.3s0.3-5.2,0.9-8.3c0.6-2.5,1.2-4.6,1.9-6.5c0.6-1.8,1.2-4,1.9-6.5
		c0.6-1.2,0.9-2.8,0.9-4.6c0-1.9,0.6-3.4,1.8-4.6c0.6-0.6,1.2-1.5,1.9-2.8c0.6-1.2,1.2-2.5,1.9-3.7c0-1.2,0.6-2.5,1.9-3.7
		c0-0.6,0.3-0.9,0.9-0.9s0.9-0.6,0.9-1.8c1.2-1.2,1.8-2.5,1.8-3.7c0.6-1.8,2.2-4,4.6-6.5c1.2-1.2,3.1-3.7,5.6-7.4
		c0-0.6,0.3-0.9,0.9-0.9c1.9-1.9,1.5-2.8-0.9-2.8c0-0.6-0.6-0.9-1.9-0.9c-1.9-0.6-3.4-0.9-4.6-0.9s-2.5,0-3.7,0
		c-1.2-0.6-2.5-0.9-3.7-0.9s-2.5-0.3-3.7-0.9h-1.9l-0.9-0.9c-1.9-1.2-3.7-2.2-5.6-2.8c-1.8-0.6-3.4-1.5-4.6-2.8
		c0-0.6-0.6-1.5-1.8-2.8c-0.6,0-0.9-0.3-0.9-0.9c-0.6-0.6-0.9-1.5-0.9-2.8c0-0.6,0-1.2,0-1.8s-0.3-1.2-0.9-1.8v-1.9
		c0.6-2.5,0.6-4.3,0-5.5c-0.6-1.2-0.9-2.5-0.9-3.7c-0.6-0.6-0.9-1.2-0.9-1.8l0.9-4.6c0.6-3.1,2.8-6.5,6.5-10.2l2.8-2.8
		c0-1.2,0.6-1.9,1.9-1.9c1.2-1.2,1.9-2.2,1.9-2.8l5.5-5.5c0.6-0.6,2.2-1.5,4.6-2.8c0.6-0.6,1.5-1.2,2.8-1.8c1.2-0.6,2.5-1.2,3.7-1.9
		c3.7-2.5,6.5-4,8.3-4.6c1.9-1.2,3.4-1.8,4.6-1.8s2.5-0.9,3.7-2.8l5.6-2.8c0.6-0.6,1.2-0.9,1.9-0.9c0.6,0,1.5-0.3,2.8-0.9
		c1.9,0,4-0.6,6.5-1.8c1.2-0.6,2.5-0.9,3.7-0.9s2.5-0.3,3.7-0.9c0.6,0,1.2,0,1.9,0c0.6,0,1.2-0.3,1.9-0.9c0.6-0.6,1.2-0.9,1.9-0.9
		c0.6,0,1.2,0,1.8,0c1.2-0.6,2.5-1.2,3.7-1.9c1.2-0.6,2.8-0.9,4.6-0.9c1.2,0,3.7-0.6,7.4-1.8l0.9-0.9c1.2,0.6,2.5,0.6,3.7,0
		s2.2-1.2,2.8-1.9h1.8c1.9,0,3.4-1.2,4.6-3.7c1.2-1.2,2.2-2.5,2.8-3.7c1.9-1.2,2.8-2.5,2.8-3.7c0-1.2,0.6-2.5,1.9-3.7
		c1.2-1.2,2.2-2.5,2.8-3.7c0.6-1.2,1.5-2.2,2.8-2.8l5.6-8.3c1.2-1.2,2.2-2.5,2.8-3.7c0.6-1.2,1.5-2.5,2.8-3.7
		c1.2-1.8,2.5-3.7,3.7-5.5c1.2-1.9,2.5-4,3.7-6.5c1.2-1.8,2.5-3.7,3.7-5.5c1.2-1.8,2.5-4,3.7-6.5c2.5-2.5,4.3-5.5,5.5-9.2
		c1.2-3.7,2.8-7.1,4.6-10.2c1.9-0.6,2.8-1.5,2.8-2.8c0-1.2,0.6-2.5,1.9-3.7c1.9-2.5,4-6.2,6.5-11.1c0.6-1.9,1.5-3.7,2.8-5.6
		c1.2-1.8,2.5-3.7,3.7-5.5c1.2-2.5,2.8-4.9,4.6-7.4c1.9-2.5,3.4-4.9,4.6-7.4s2.5-4.3,3.7-5.5c2.5-5.6,5.9-10.8,10.2-15.7
		c0.6-0.6,1.2-1.5,1.9-2.8c0.6-1.2,1.2-2.5,1.9-3.7c2.5-3.1,4.6-6.2,6.5-9.2c1.9-3.1,4-6.2,6.5-9.2c0.6-1.2,1.5-2.5,2.8-3.7
		c1.2-1.2,2.2-2.5,2.8-3.7v-0.9c1.2-1.8,2.5-3.7,3.7-5.5c1.2-1.9,2.5-3.7,3.7-5.6c2.5-3.7,4.6-6.5,6.5-8.3c0.6-1.2,1.2-2.5,1.9-3.7
		c0.6-1.2,1.2-2.2,1.9-2.8c1.2-1.8,2.5-3.7,3.7-5.5c1.2-1.8,2.5-3.7,3.7-5.5c1.2-1.2,2.2-2.5,2.8-3.7c0.6-1.2,1.2-2.2,1.9-2.8
		c0.6-0.6,1.2-1.5,1.9-2.8l5.5-8.3c0.6-1.2,2.2-3.7,4.6-7.4c0.6-1.2,2.2-3.1,4.6-5.5c1.2-1.8,1.8-4.9,1.8-9.2
		c-0.6-1.2-0.9-2.5-0.9-3.7c0-1.2,0.3-2.8,0.9-4.6c0.6-1.8,0.9-3.4,0.9-4.6s0-2.8,0-4.6l2.8-8.3c0.6-0.6,0.9-1.9,0.9-3.7
		c0.6-2.5,1.9-4.9,3.7-7.4l3.7-3.7c0.6,0,0.9-0.3,0.9-0.9c0.6-3.1,2.5-5.6,5.6-7.4c2.5-2.5,4.9-3.7,7.4-3.7c0.6,0,1.5-0.3,2.8-0.9
		c1.2-0.6,2.5-0.9,3.7-0.9c1.9-0.6,3.7-1.5,5.5-2.8c1.9-1.2,4-1.5,6.5-0.9h13c3.1,0,5.2,0.6,6.5,1.8c1.2,1.9,2.5,2.8,3.7,2.8
		s2.2,0.6,2.8,1.8l3.7,1.9h1.9c-0.6,1.2-0.3,2.2,0.9,2.8s2.2,1.2,2.8,1.9c3.1,3.1,5.2,5.6,6.5,7.4c0,0.6,0.6,1.5,1.8,2.8
		c0.6,1.2,0.9,2.5,0.9,3.7c0,1.2,0.6,2.2,1.9,2.8c1.8,1.2,2.8,2.8,2.8,4.6c0,1.8,0.6,3.7,1.9,5.5c0.6,0.6,0.9,1.2,0.9,1.9
		c0,0.6,0.3,1.5,0.9,2.8c0,0.6,0,1.2,0,1.9c0,0.6,0.3,1.2,0.9,1.9c1.2,6.2,2.2,10.5,2.8,13c1.2,2.5,1.9,4.3,1.9,5.5
		c0.6,0.6,0.9,1.8,0.9,3.7c0,0.6,0.6,2.2,1.9,4.6c0.6,1.2,0.9,2.2,0.9,2.8s0,1.5,0,2.8c0,0.6,0.6,2.2,1.9,4.6
		c1.2,2.5,1.9,4.3,1.9,5.5c-0.6,1.2-0.6,2.2,0,2.8s0.9,1.5,0.9,2.8c1.2,3.7,1.8,6.2,1.8,7.4c1.2,6.2,2.2,10.5,2.8,13v6.5
		c0,2.5,0,4.3,0,5.6c0,1.2-0.3,2.8-0.9,4.6v5.5v2.8c0.6,2.5,1.2,4.6,1.9,6.5c0.6,1.8,0.9,4,0.9,6.5v3.7v13c0,1.8,0,3.7,0,5.5
		c0,1.8-0.3,4-0.9,6.5v2.8c-0.6,1.2-0.9,2.5-0.9,3.7c0,1.2,0.3,2.5,0.9,3.7c-0.6,3.1-0.9,5.9-0.9,8.3c0,2.5,0,4.9,0,7.4
		c0,1.8,0,3.7,0,5.5c0,1.9-0.3,3.7-0.9,5.6c-0.6,1.2-0.9,2.5-0.9,3.7c0,1.2,0,2.5,0,3.7c-0.6,0.6-0.9,1.9-0.9,3.7
		c-0.6,2.5-0.9,5.9-0.9,10.2c-0.6,1.2-0.9,3.1-0.9,5.6c-0.6,1.2-0.9,2.5-0.9,3.7c0,1.2,0,2.2,0,2.8v3.7c0,3.1-0.3,5.5-0.9,7.4v1.9
		c0.6,1.8,1.9,2.5,3.7,1.8c1.2-0.6,2.2-0.9,2.8-0.9s1.5-0.3,2.8-0.9c1.9-0.6,3.4-1.2,4.6-1.9c1.2-0.6,3.1-1.2,5.5-1.8
		c1.2-0.6,2.5-0.9,3.7-0.9s2.2-0.3,2.8-0.9c3.7-1.2,5.9-1.9,6.5-1.9c3.1-1.2,7.1-2.5,12-3.7c1.2-0.6,2.2-0.9,2.8-0.9
		s1.5-0.3,2.8-0.9l1.9-0.9c1.9,0,3.4,0,4.6,0c1.2,0,2.8-0.3,4.6-0.9c0.6-0.6,1.2-0.9,1.9-0.9c0.6,0,1.2,0,1.8,0h7.4
		c0.6,0,0.9,0.3,0.9,0.9v0.9c0,1.8,1.2,2.8,3.7,2.8c0.6,0.6,1.5,0.9,2.8,0.9h0.9l1.9,0.9h8.3h2.8c0.6,0.6,1.2,0.9,1.9,0.9
		c2.5-0.6,4.3-0.6,5.5,0s2.8,0.9,4.6,0.9c0.6,0.6,1.2,0.9,1.9,0.9h12h-0.8V1646.7z M182.2,1676.3c1.9,0,2.8-0.9,2.8-2.8v-7.4
		c-0.6-3.1-0.9-7.4-0.9-13c-0.6-1.2-0.9-3.1-0.9-5.5c0-1.9,0-4,0-6.5s-0.6-5.2-1.9-8.3v-15.7v-1.9l-0.9-2.8v-1.9h-0.9
		c0,0.6-0.6,1.5-1.9,2.8c-0.6,2.5-1.2,4.6-1.9,6.5c-0.6,1.9-1.5,4-2.8,6.5c-1.2,2.5-1.9,4.3-1.9,5.5l-0.9,1.9v0.9
		c0,0.6-0.6,2.2-1.9,4.6c0,1.2-0.3,2.2-0.9,2.8c-0.6,0.6-0.9,1.5-0.9,2.8c0,1.2-0.6,2.5-1.8,3.7l-2.8,8.3c-0.6,1.2-0.9,2.2-0.9,2.8
		s-0.3,1.5-0.9,2.8v2.8c-0.6,2.5-1.2,4.3-1.9,5.6c-0.6,1.2-1.2,2.8-1.9,4.6l-0.9,1.8c-0.6,0.6-0.9,1.5-0.9,2.8h2.8h4.6
		c0.6-0.6,2.2-0.9,4.6-0.9c3.7-1.2,6.5-1.9,8.3-1.9C176.7,1676.7,179.1,1676.3,182.2,1676.3z M189.6,1861.3
		c-2.5,2.5-3.4,4.3-2.8,5.5c0,2.5-0.3,4-0.9,4.6c0,2.5,0.3,4.3,0.9,5.5c1.2-1.2,1.5-2.2,0.9-2.8c-0.6-0.6-0.6-1.5,0-2.8
		c1.2,0,1.9-0.9,1.9-2.8c-0.6-1.2-0.9-2.5-0.9-3.7s0.3-2.2,0.9-2.8L189.6,1861.3L189.6,1861.3z M189.6,1896.5v1.8h-2.8v-3.7v-3.7
		C186.8,1892.8,187.8,1894.6,189.6,1896.5z M187.8,1890.9c1.2,0,1.9-0.3,1.9-0.9l0.9,0.9v0.9h-2.8L187.8,1890.9L187.8,1890.9z
		 M190.5,1885.4c1.2-1.2,2.2-1.8,2.8-1.8c-0.6-0.6-1.2-0.9-1.9-0.9l0.9-2.8v-1.8c0-1.9-0.3-3.1-0.9-3.7v0.9v1.8
		c-0.6,0.6-0.9,1.5-0.9,2.8s-0.3,2.5-0.9,3.7l0.9,0.9L190.5,1885.4L190.5,1885.4z M193.3,1862.3h-1.9l0.9,0.9v0.9h0.9L193.3,1862.3
		L193.3,1862.3z M195.2,1911.3c0.6-1.2,0.9-2.2,0.9-2.8c0-0.6,0-1.5,0-2.8l-0.9,0.9c-1.2,1.2-1.5,2.8-0.9,4.6h0.9V1911.3z
		 M196.1,1898.3c-1.9,0-2.2,0.6-0.9,1.9v1.8v0.9c0-0.6,0.3-0.9,0.9-0.9V1898.3z M195.2,1888.2l0.9,0.9v1.8c0,0.6,0.3,0.9,0.9,0.9
		c0.6-0.6,0.9-1.5,0.9-2.8v-3.7c-1.2,0-1.8,0.3-1.8,0.9C196.1,1886.9,195.8,1887.5,195.2,1888.2z M197.9,1908.5v-2.8l0.9-0.9
		c0,0.6-0.9,0-2.8-1.9c0,1.2,0,2.2,0,2.8c0,0.6,0.3,1.5,0.9,2.8H197.9z M197.9,1933.5v1.8l0.9,0.9H197v-2.8L197.9,1933.5
		L197.9,1933.5z M199.8,1856.7c1.2,0,1.9-0.6,1.9-1.9c0-1.2-0.6-1.8-1.9-1.8c-0.6,0-1.2,0.9-1.9,2.8h0.9L199.8,1856.7z
		 M215.5,1859.5l0.9-1.8v-0.9c-1.2-1.2-2.2-1.9-2.8-1.9C213,1856.7,213.7,1858.3,215.5,1859.5z M233.1,1814.2h-1.9
		c0.6,0.6,0.9,1.9,0.9,3.7h0.9L233.1,1814.2L233.1,1814.2z M239.6,1806.8c0-2.5-0.9-3.7-2.8-3.7v1.8c0,0.6-0.3,0.9-0.9,0.9l-0.9-0.9
		v-0.9h-1l-0.9,0.9c0,0.6-0.3,1.2-0.9,1.9v1.8v1.9c-0.6,0.6-0.6,1.2,0,1.8s1.2,0.9,1.8,0.9l1.9-1.8c0-0.6,0.3-1.2,0.9-1.9
		c1.2,1.2,1.8,1.2,1.8,0C238.6,1808.3,238.9,1807.4,239.6,1806.8z M234.9,1843.8c-0.6-1.8-0.3-3.1,0.9-3.7
		C236.5,1841.3,236.2,1842.5,234.9,1843.8z M238.6,1801.2v-0.9l0.9-0.9l-0.9-0.9c-0.6,0-1.2,0.3-1.8,0.9L238.6,1801.2z
		 M236.8,1821.6c0.6,0.6,1.2,0.9,1.8,0.9c0,1.2-0.3,1.9-0.9,1.9C237.1,1824.3,236.8,1823.4,236.8,1821.6z M245.1,1805.8
		c0.6,0.6,0.9,1.5,0.9,2.8c-0.6,1.2-0.9,2.2-0.9,2.8s-0.3,1.5-0.9,2.8c0,1.2-0.3,1.9-0.9,1.9C242,1811.7,242.6,1808.3,245.1,1805.8z
		"/>
	<path class="st0" d="M728,1472.8c0,0.6-0.3,1.5-0.9,2.8c-1.8,0.6-3.4,1.5-4.6,2.8c-1.2,1.2-2.8,2.2-4.6,2.8l-16.7,11.1
		c-1.8,1.2-4,3.1-6.5,5.6c-0.6,0.6-0.9,1.2-0.9,1.8s0.6,0.9,1.8,0.9c3.7,0,6.5-1.5,8.3-4.6c0.6-1.8,3.1-3.4,7.4-4.6l1.9-0.9l0.9-0.9
		c1.8-0.6,3.4-1.2,4.6-1.9c1.2-0.6,2.5-1.2,3.7-1.8c-2.5,2.5-4.6,4-6.5,4.6c-2.5,0-3.1,1.5-1.8,4.6c1.2,3.1,0.3,5.5-2.8,7.4
		c-2.5,1.2-4.3,2.5-5.5,3.7c-1.2,1.2-2.8,2.2-4.6,2.8c-0.6,0.6-1.5,0.9-2.8,0.9c-1.2,0-2.5,0.6-3.7,1.9l-5.5,2.8
		c-0.6,0.6-1.5,0.9-2.8,0.9c-1.2-0.6-3.1-0.3-5.5,0.9c-1.9,0.6-3.1,0.3-3.7-0.9h-1.9h-0.9l-0.9,0.9l0.9,0.9l1.9,0.9l0.9,0.9h0.9
		l-1.8,1.9c-1.2,1.2-2.5,2.5-3.7,3.7c-1.2,1.2-2.2,2.2-2.8,2.8c-0.6,0.6-1.2,0.9-1.8,0.9c-0.6,0-1.2,0.6-1.9,1.9
		c-1.8,0-3.1,0.9-3.7,2.8c-0.6,1.9-1.2,2.8-1.9,2.8c-0.6,0-1.2,0.3-1.8,0.9c-4.3,1.9-7.1,4.3-8.3,7.4c-1.8,1.8-3.4,2.8-4.6,2.8
		c-4.9,1.2-7.7,3.7-8.3,7.4c-1.8,3.1-3.7,4-5.5,2.8c-1.8-0.6-3.7,0-5.5,1.8c0,0.6-0.3,0.9-0.9,0.9h-1.9c-1.2,1.2-2.5,1.9-3.7,1.9
		s-2.5,0.9-3.7,2.8c1.2,1.2,2.2,1.9,2.8,1.9c-1.2,3.1-3.1,4.9-5.5,5.5c-0.6,0-1.5,1.5-2.8,4.6c0,1.8-0.6,2.8-1.8,2.8l-0.9,1.9
		c-1.2,1.8-3.7,4-7.4,6.5v-0.9v-2.8c-3.1,0-5.2,2.2-6.5,6.5c-1.2,1.2-1.9,2.2-1.9,2.8c-3.1-3.1-5.2-2.8-6.5,0.9
		c0,3.7-2.2,6.2-6.5,7.4v-1.8c-2.5-0.6-5.2,0-8.3,1.8c-1.2,1.2-1.9,2.5-1.9,3.7c0,1.2-0.9,2.8-2.8,4.6c-0.6,1.2-1.2,1.9-1.9,1.9
		c-0.6,0-1.2,0.6-1.9,1.8c-0.6,0.6-1.2,0.9-1.9,0.9c-1.9,0-3.1,0.3-3.7,0.9c-0.6,0.6-1.5,1.5-2.8,2.8c-1.2,1.2-1.2,2.5,0,3.7
		c1.2,1.2,2.2,1.8,2.8,1.8c1.2,1.9,2.2,3.4,2.8,4.6s1.5,3.1,2.8,5.6c0.6,0,0.9,0.6,0.9,1.8l0.9,1.8l0.9,0.9c3.1,1.8,4.6,4.6,4.6,8.3
		c0,0.6,0.6,1.5,1.9,2.8c1.2,0.6,1.9,1.8,1.9,3.7c-1.2,3.1-0.9,5.5,0.9,7.4v3.7v5.5l1.9,1.9l1.9-0.9c1.9-2.5,3.1-2.5,3.7,0
		c0,1.2,0,2.2,0,2.8s0,1.2,0,1.9c-0.6,3.1-0.6,5.5,0,7.4s0.9,4.3,0.9,7.4l-1.9,3.7v1.8c1.2,0,1.9-0.3,1.9-0.9c0.6,0,0.9-0.3,0.9-0.9
		c0-0.6,0.6-0.9,1.9-0.9c0,1.8,0,3.7,0,5.5c0,1.8,0.6,4,1.9,6.5c1.2,4.9,1.9,8.9,1.9,12c0,1.8-0.3,3.4-0.9,4.6l-2.8,8.3
		c-0.6,1.2-0.9,2.8-0.9,4.6c0.6,3.7-0.3,6.8-2.8,9.2c-1.9,1.2-2.2,2.5-0.9,3.7c1.2,1.2,1.9,2.8,1.9,4.6v1.8h2.8
		c1.2-1.2,1.9-2.2,1.9-2.8c1.2-4.9,1.5-8.6,0.9-11.1c0-2.5,0.9-4.6,2.8-6.5c0.6,1.2,0.9,3.1,0.9,5.5v20.3c0.6,1.2,0.9,2.5,0.9,3.7
		c0,1.2,0,2.2,0,2.8c0,1.2-0.6,1.8-1.8,1.8c-1.9,0.6-4.3,0.9-7.4,0.9c-0.6,0.6-0.9,1.2-0.9,1.9v4.6c0.6,0.6,0.9,1.5,0.9,2.8l1.9,1.9
		h1.9l1.9-0.9l0.9-0.9v2.8c1.9,0,3.1-0.3,3.7-0.9c-0.6,2.5-0.9,4.3-0.9,5.5c0,1.2,0,2.8,0,4.6c0,1.2,0,2.8,0,4.6
		c0,1.9,0.3,3.4,0.9,4.6H592c-1.9,0-2.8,0.9-2.8,2.8c1.2,1.8,1.2,3.4,0,4.6c-1.2,1.2-2.2,2.5-2.8,3.7h-0.9v-0.9v-2.8l-0.9-1.9
		c-1.2,0-1.9,0.3-1.9,0.9l-5.5,5.5c-1.2,1.2-1.5,2.8-0.9,4.6c0,1.8-0.3,3.1-0.9,3.7c-0.6,1.2-0.9,2.8-0.9,4.6c0,1.8-0.3,3.7-0.9,5.5
		c0,1.2,1.2,2.2,3.7,2.8v1.8c-0.6,1.2-1.2,2.5-1.9,3.7c-0.6,1.2-1.2,2.5-1.9,3.7c-1.9,1.8-1.9,2.8,0,2.8c0.6,2.5,0.3,4.9-0.9,7.4
		s-1.8,4-1.8,4.6c-1.2,4.9-2.5,8.3-3.7,10.2c-1.2,1.2-1.9,3.1-1.9,5.5c0,2.5,0.9,4.6,2.8,6.5c0,3.7,0.3,6.2,0.9,7.4l-0.9,0.9
		l-0.9-1.9l-0.9-0.9c0-2.5-0.6-3.7-1.9-3.7c-0.6-0.6-0.9-0.3-0.9,0.9c0,1.2,0,2.2,0,2.8c0,3.1,0,5.9,0,8.3c0,2.5,0.3,4.6,0.9,6.5
		l0.9,2.8l-0.9,1.8c-1.2,6.2-1.2,10.8,0,13.9v2.8l-0.9-0.9c-1.2-1.9-2.5-2.2-3.7-0.9c-1.2,2.5-2.5,4.3-3.7,5.5s-2.5,2.5-3.7,3.7
		c-0.6,0.6-0.9,2.2-0.9,4.6c1.2,3.7,1.9,6.5,1.9,8.3c0,3.1-0.9,4-2.8,2.8c-3.1-1.2-4.6,0-4.6,3.7c0,1.2,0.3,2.5,0.9,3.7l-3.7-1.9
		c-1.8-0.6-3.1-0.3-3.7,0.9c-0.6,1.2-1.5,1.8-2.8,1.8c-0.6,0-1.2-0.3-1.8-0.9c-1.2-0.6-2.5-1.2-3.7-1.9c-1.2-0.6-2.5-0.6-3.7,0
		l-2.8-2.8c-1.2-2.5-2.5-4.9-3.7-7.4s-2.8-4.9-4.6-7.4c-1.2-1.8-2.2-3.7-2.8-5.5s-1.5-3.7-2.8-5.5c-1.9-4.3-3.4-8.6-4.6-13
		c-1.2-4.3-2.8-8.9-4.6-13.9c-1.2-3.1-2.5-6.5-3.7-10.2s-2.5-6.8-3.7-9.2c0-2.5,0.3-4,0.9-4.6l0.9-0.9v-0.9
		c-0.6-1.8-0.9-3.4-0.9-4.6s0-2.8,0-4.6v-3.7c0-3.1-0.6-5.2-1.9-6.5v-2.8c0-4.9-0.3-8.3-0.9-10.2c0-1.8-0.3-3.1-0.9-3.7
		c-1.2-1.8-1.2-3.7,0-5.5c0-1.2-0.3-2.2-0.9-2.8l-1.9-3.7v-2.8c0.6-1.8,0.9-3.7,0.9-5.5c0-1.9,0-3.7,0-5.5v-0.9l-0.9-0.9
		c-0.6-0.6-0.9-1.2-0.9-1.8s0-1.2,0-1.9c1.2-3.1,1.2-6.2,0-9.2c0-1.2-0.6-2.5-1.9-3.7v-3.7c-1.2-3.7-3.1-4.6-5.6-2.8h-2.8
		c-0.6-3.1-0.9-6.2-0.9-9.2c0-3.1,0-6.2,0-9.2c-0.6-3.1-0.9-6.5-0.9-10.2c0-3.7-0.3-7.1-0.9-10.2c0-5.5-0.3-9.6-0.9-12
		c-0.6-3.7-0.9-7.4-0.9-11.1s0-7.1,0-10.2v-12v-2.8c0-2.5-0.9-4-2.8-4.6c1.9-0.6,2.8-2.2,2.8-4.6c0-1.2,0-2.5,0-3.7
		c0-1.2-0.3-2.5-0.9-3.7c0-1.8-0.3-3.1-0.9-3.7c-0.6,0.6-1.2,0.9-1.8,0.9s-1.2,0-1.9,0l-1.9,1.8l-0.9,2.8c-0.6,0.6-0.9,1.2-0.9,1.8
		c-1.9-1.8-1.9-3.1,0-3.7c-0.6,0,0-0.9,1.9-2.8v-0.9l-0.9-0.9h-1.9c-0.6,0-0.9,0.3-0.9,0.9c-1.9,1.9-3.7,2.5-5.5,1.9h-2.8
		c-2.5,2.5-4.6,4-6.5,4.6c-1.9,1.8-2.8,3.4-2.8,4.6c-1.2,1.2-1.8,2.5-1.8,3.7c0.6,1.8,0.3,3.4-0.9,4.6s-1.9,2.5-1.9,3.7
		c0,1.2-0.6,1.9-1.8,1.9c-1.2,1.2-1.9,2.5-1.9,3.7c0,1.2-0.6,2.2-1.9,2.8c0,0.6,1.2,1.5,3.7,2.8c-1.2,1.2-1.9,3.1-1.9,5.5
		c0,2.5-0.6,4.6-1.9,6.5c-1.2,3.7-1.9,6.8-1.9,9.2v0.9l0.9,0.9l0.9-0.9h0.9c0.6-1.2,1.2-2.5,1.9-3.7c0.6-1.2,1.5-2.5,2.8-3.7v0.9
		l-0.9,0.9l-0.9,1.8v2.8c0.6,2.5,0.6,4.6,0,6.5c-0.6,1.8-1.2,3.7-1.9,5.5c-0.6,1.2-0.9,2.5-0.9,3.7c0,1.2-0.3,2.5-0.9,3.7
		c0,1.2,0,2.2,0,2.8s-0.3,1.2-0.9,1.8c-1.9,1.8-2.8,4-2.8,6.5c0,1.9,0,3.7,0,5.6c0,1.8,0,3.7,0,5.5c-0.6,1.2-1.8,1.5-3.7,0.9
		c-1.9-1.2-3.1-1.5-3.7-0.9l-0.9,1.8c-0.6,1.2-0.9,2.8-0.9,4.6c-0.6,2.5,0,3.7,1.9,3.7v0.9c3.1,0,4,1.2,2.8,3.7
		c-1.9,3.7-2.8,7.7-2.8,12c0,1.8-0.6,2.8-1.9,2.8l-0.9,0.9c-2.5,2.5-4,4.9-4.6,7.4c-1.9,2.5-3.1,4.9-3.7,7.4c0,1.2-0.6,3.1-1.9,5.5
		l0.9,1.8c0,0.6,0.3,1.2,0.9,1.9c-0.6,1.2-1.5,2.5-2.8,3.7l-0.9,0.9l-0.9,1.8c-0.6,1.9-1.5,4-2.8,6.5c-1.2,2.5-1.9,4.6-1.9,6.5
		c-0.6,3.7-2.8,5.9-6.5,6.5c1.2-1.2,1.9-2.5,1.9-3.7c0.6-1.9,1.2-3.4,1.9-4.6c0.6-1.2,1.2-3.1,1.9-5.5v-0.9l-0.9-0.9v-1.8l-1.9,1.8
		c-1.2,3.7-1.8,6.2-1.8,7.4h-0.9v-1.9v-2.8c0-1.9-0.3-2.8-0.9-2.8c-1.9,0-2.8,0.6-2.8,1.9c-1.2,1.2-1.9,2.5-1.9,3.7
		c0,3.1-1.2,5.9-3.7,8.3c-2.5,2.5-3.7,4.6-3.7,6.5l-1.8,1.8c-3.1,0.6-4.3,2.8-3.7,6.5c0.6,1.2,0.9,2.5,0.9,3.7s-0.3,2.5-0.9,3.7
		l-0.9,0.9c-1.9-0.6-3.4,0.6-4.6,3.7c0,0.6-0.3,1.2-0.9,1.9v-1.9l-0.9-2.8c0-1.2-0.9-1.9-2.8-1.9c-3.1,0-4.9,0.6-5.5,1.9l-1.9,1.8
		c-0.6,0-0.9-0.3-0.9-0.9c-0.6-1.9-2.2-2.8-4.6-2.8h-11.1c-2.5,0-4.3,0-5.6,0c-1.2,0-2.5,0.9-3.7,2.8H333c-1.8-1.2-3.4-1.2-4.6,0
		c-1.2,1.2-2.5,2.2-3.7,2.8c-3.1,0.6-5.9-0.3-8.3-2.8l-0.9-0.9c-4.3-3.7-6.5-8.9-6.5-15.7c-0.6-2.5-0.9-4.9-0.9-7.4
		s-0.6-4.9-1.9-7.4c0-1.9,0.3-3.1,0.9-3.7c0.6,0,0.9-0.6,0.9-1.8c0-1.9,0-3.7,0-5.6c0-1.8,0.3-3.7,0.9-5.5l2.8-8.3h0.9l0.9,0.9
		l0.9,1.9c1.2-1.2,1.9-2.2,1.9-2.8c1.9-1.8,2.8-4.6,2.8-8.3c0-1.2,0-2.5,0-3.7c0-1.2,0.3-2.8,0.9-4.6v-1.3c-1.9,0-2.8,0.6-2.8,1.9
		l-2.8,8.3v2.8c-1.2,1.8-2.5,2.5-3.7,1.8c1.2-2.5,1.9-4.6,1.9-6.5l0.9-1.8v-0.9c-1.2-1.8-1.2-3.4,0-4.6c1.2-1.2,1.9-3.1,1.9-5.5
		c0-1.2,0.6-1.8,1.8-1.8s1.9-0.9,1.9-2.8l1.9,0.9v2.8l0.9-0.9c0-1.9,0.3-3.7,0.9-5.5c0.6-1.9,1.2-3.7,1.9-5.6
		c0.6-0.6,0.9-1.8,0.9-3.7c0-3.1,0.6-5.2,1.9-6.5l2.8-8.3l2.8-16.7c0-2.5,0.3-4.3,0.9-5.5v-0.9c1.9-3.7,3.1-7.4,3.7-11.1
		c0.6-3.7,1.2-7.4,1.9-11.1v-1.8c0.6-3.1,1.2-6.2,1.9-9.2c0.6-3.1,1.2-6.2,1.9-9.2l5.5-19.4c1.2-3.7,2.2-7.4,2.8-11.1
		s1.5-7.1,2.8-10.2c0.6-3.1,2.2-7.1,4.6-12v-2.8c0.6-1.2,0.9-2.8,0.9-4.6l2.8-8.3c0.6-1.2,0.9-2.2,0.9-2.8s0-1.2,0-1.9
		c0.6-1.8,1.2-3.7,1.9-5.5c0.6-1.8,1.2-3.4,1.8-4.6s0.9-3.1,0.9-5.5c0.6-1.2,0.9-2.8,0.9-4.6c1.2-2.5,2.5-5.5,3.7-9.2
		c1.2-3.7,2.5-7.4,3.7-11.1c1.2-3.7,2.5-6.8,3.7-9.2l2.8-11.1l0.9-1.8v-0.9c0-1.2,0-2.2,0-2.8s0.3-1.2,0.9-1.9
		c1.2-2.5,1.9-4,1.9-4.6c0.6-1.8,1.5-4,2.8-6.5c1.2-2.5,2.2-4.9,2.8-7.4s2.5-5.9,5.5-10.2l0.9-1.8c-1.2-1.9-1.5-3.4-0.9-4.6
		s1.2-2.8,1.9-4.6l5.5-16.7c0.6-0.6,0.3-1.8-0.9-3.7c-3.7-3.7-3.7-7.4,0-11.1c1.2-1.9,2.2-4,2.8-6.5s1.2-4.3,1.9-5.5
		c0.6-2.5,0.9-4.3,0.9-5.5c0-1.2,0.6-2.8,1.9-4.6l0.9-0.9h0.9c1.2-1.2,1.5-3.1,0.9-5.6v-3.5c1.2-3.1,2.2-5.9,2.8-8.3
		c0.6-2.5,1.5-4.9,2.8-7.4c1.9-1.2,2.8-3.1,2.8-5.5c0-2.5,0.6-4.6,1.9-6.5c1.2-3.7,2.2-6.2,2.8-7.4c1.2-2.5,2.5-6.2,3.7-11.1
		c0.6-0.6,0.9-1.5,0.9-2.8c0-1.2,0.6-2.5,1.9-3.7c0.6-3.1,2.2-7.1,4.6-12c0.6-2.5,2.2-4.9,4.6-7.4c0-1.2,0.9-1.9,2.8-1.9
		c1.9-0.6,3.7-0.9,5.6-0.9s4-0.3,6.5-0.9h6.5h1.8l2.8,0.9l1.8,1.9c6.2,2.5,10.5,4.3,13,5.5c0.6,0.6,1.5,0.9,2.8,0.9
		c6.8,0.6,12.6,4,17.6,10.2l2.8,2.8c1.2,1.2,1.9,2.5,1.9,3.7l1.9,1.9c2.5,2.5,3.7,4.3,3.7,5.5c0,1.9,0.6,3.4,1.8,4.6
		s2.5,2.2,3.7,2.8c1.9,1.8,3.4,2.8,4.6,2.8c1.2,0,2.5,0.6,3.7,1.9v0.9c-1.2,1.9-0.6,3.1,1.9,3.7l0.9,1.8c-0.6,1.9-0.9,4-0.9,6.5
		s-0.3,4.3-0.9,5.5c0,2.5,1.2,3.7,3.7,3.7c1.9-0.6,2.8,0,2.8,1.8c0,1.9,0,3.4,0,4.6s-0.3,2.5-0.9,3.7c-0.6,1.9-0.9,3.4-0.9,4.6
		c0,1.2,0,2.5,0,3.7v3.7c0,1.2,0,2.5,0,3.7c0,1.2,0.6,1.8,1.9,1.8c0.6,1.8,0.3,2.8-0.9,2.8l-1.9,3.7l-2.8,2.8c0,0.6-0.6,1.5-1.9,2.8
		c-0.6,3.7,0.9,5.9,4.6,6.5c0,3.1-0.3,5.5-0.9,7.4c0,1.8-0.9,2.8-2.8,2.8l-2.8,2.8v0.9v3.7c1.9,0,3.1-0.3,3.7-0.9
		c0.6,0,1.5-0.6,2.8-1.9v2.8c-1.9,1.8-2.8,3.7-2.8,5.5c0,1.9-0.3,3.7-0.9,5.6c-1.2,3.1-2.2,5.9-2.8,8.3c-0.6,2.5-1.5,4.6-2.8,6.5
		l-0.9,2.8l-0.9,1.9c-0.6,0.6-0.9,1.2-0.9,1.8s-0.3,1.2-0.9,1.9c-3.7,3.1-6.5,6.8-8.3,11.1v1.8c0.6,1.9,0.3,3.4-0.9,4.6
		c-0.6,0-0.9,0.9-0.9,2.8h1.8l0.9,0.9c3.7-1.2,6.2-2.2,7.4-2.8c1.9-1.2,4-2.5,6.5-3.7c2.5-1.2,4.9-2.5,7.4-3.7
		c3.1-2.5,6.5-4.9,10.2-7.4s7.1-4.6,10.2-6.5c1.9-0.6,3.7-1.5,5.6-2.8c1.9-1.2,3.7-2.5,5.5-3.7c2.5-1.2,4.3-2.5,5.6-3.7
		c1.2-1.2,2.8-2.5,4.6-3.7l13.9-8.3c2.5-1.2,4.3-2.2,5.5-2.8s2.8-1.5,4.6-2.8c1.2-1.2,3.4-2.5,6.5-3.7c0.6-0.6,1.2-0.9,1.9-0.9
		c0.6,0,1.5-0.3,2.8-0.9c3.1-1.9,5.9-3.7,8.3-5.6c2.5-1.8,5.5-3.7,9.2-5.5c2.5-2.5,5.5-4.6,9.2-6.5s7.1-4,10.2-6.5
		c4.9-3.1,10.8-6.2,17.6-9.2l8.3-5.5c1.2-0.6,2.8-1.8,4.6-3.7c2.5-1.8,4.9-3.4,7.4-4.6s5.2-2.5,8.3-3.7l16.6-8.3
		c0.6,0,1.2-0.3,1.9-0.9c1.8-1.2,4-0.9,6.5,0.9c-1.2,0.6-2.8,1.8-4.6,3.7c1.2,1.2,1.5,3.1,0.9,5.6c-1.2,0.6-1.8,1.5-1.8,2.8
		c0,1.2-0.6,2.5-1.9,3.7c-1.8,1.8-3.1,4-3.7,6.5v1.9c0.6,0.6,1.5,0.9,2.8,0.9c1.9-1.2,4.3-1.2,7.4,0c0.6,0,3.1-0.6,7.4-1.8
		C727,1471,728,1471.6,728,1472.8z M395.9,1691.1c0.6-1.2,0.9-2.5,0.9-3.7c0-1.2,0.6-2.2,1.8-2.8c0-0.6-0.3-0.9-0.9-0.9l-0.9,0.9
		l-1.8,3.8v2.8L395.9,1691.1L395.9,1691.1z M415.3,1619c0,0.6,0.6,1.5,1.9,2.8c0.6,0,1.5-0.6,2.8-1.9v-0.9c1.2-1.8,1.2-3.4,0-4.6
		c-0.6-0.6-1.9,0-3.7,1.9C415.6,1616.8,415.3,1617.8,415.3,1619z M483.8,1890l-1.9,1.9c-0.6,0-0.9-0.3-0.9-0.9l1.9-1.8L483.8,1890z
		 M484.7,1885.4c-3.1-1.8-2.8-3.7,0.9-5.5C485,1881.1,484.7,1882.9,484.7,1885.4z M489.3,1857.6c-0.6,1.2-0.9,3.1-0.9,5.5
		C486.5,1862,486.8,1860.1,489.3,1857.6z M500.4,1556.1c0.6-0.6,2.2-1.5,4.6-2.8c-1.9-1.9-4-2.2-6.5-0.9c-0.6,0.6-0.9,1.5-0.9,2.8
		C498.2,1555.8,499.2,1556.1,500.4,1556.1z M505,1729.1c1.2,0,2.5-1.2,3.7-3.7c-1.2-1.9-2.5-4.6-3.7-8.3c0-0.6-0.9-0.9-2.8-0.9v0.9
		l-0.9,1.8c-0.6,1.2-0.9,2.2-0.9,2.8s0.3,1.5,0.9,2.8C502.6,1726.9,503.8,1728.5,505,1729.1z M505,1542.2l-0.9,0.9v0.9l0.9,1.8
		c0.6-0.6,0.9-1.2,0.9-1.8C506,1543.5,505.6,1542.8,505,1542.2z M549.4,1974.2c0-3.1,0.9-5.2,2.8-6.5
		C552.8,1970.8,551.9,1972.9,549.4,1974.2z M567.9,1733.7c-0.6,1.2-0.9,2.2-0.9,2.8s0,1.5,0,2.8c0,0.6,0.3,1.2,0.9,1.8
		c4.3,1.2,6.5-0.3,6.5-4.6l-1.9-3.7c0-1.2-0.9-1.8-2.8-1.8C568.5,1730.9,567.9,1731.8,567.9,1733.7z M567,1959.4
		c0-1.2,0.6-2.5,1.9-3.7c1.2-1.2,1.9-2.5,1.9-3.7c1.2,1.2,1.2,2.5,0,3.7C569.5,1956.9,568.2,1958.1,567,1959.4z M569.8,1819.7
		c0.6-1.2,0.9-2.2,0.9-2.8l-0.9-0.9c-0.6,0.6-0.9,1.8-0.9,3.7H569.8z M577.2,1714.3c-1.2,0-1.9,1.2-1.9,3.7c0,0.6,0.3,1.2,0.9,1.9
		c2.5,0,3.7-0.9,3.7-2.8L577.2,1714.3z M577.2,1755l2.8-1.8l-1.9-0.9h-0.9l-0.9,1.8L577.2,1755z M581.8,1797.5
		c0,0.6,0.3,1.2,0.9,1.8c0.6,0,1.2-0.3,1.9-0.9l-0.9-1.8v-0.9L581.8,1797.5z M592,1915l0.9-0.9c0,1.8-0.6,4-1.8,6.5s-2.5,4-3.7,4.6
		h-0.9c0.6-1.2,0.9-2.2,0.9-2.8c0-0.6,0.3-1.2,0.9-1.8C589.5,1918.1,590.7,1916.2,592,1915z M593.8,1913.1l0.9-1.8l1.9-2.8
		C597.8,1911,596.9,1912.5,593.8,1913.1z M598.5,1907.6c0-2.5,0.9-4.3,2.8-5.5c-0.6,1.2-0.9,2.2-0.9,2.8c0,0.6-0.3,1.5-0.9,2.8h-1
		V1907.6z M608.6,1857.6c0.6-0.6,2.5-1.8,5.5-3.7h0.9c-0.6,1.9-0.9,4.3-0.9,7.4c-1.2,3.7-3.4,4.6-6.5,2.8
		C607.7,1861,608,1858.9,608.6,1857.6z M616,1842.8c0.6-1.2,1.2-1.9,1.8-1.9c0.6,0,1.2-0.3,1.8-0.9c1.2,1.9,1.2,3.4,0,4.6
		c-0.6,1.2-2.2,1.2-4.6,0c-0.6,0.6-0.9,1.5-0.9,2.8l-0.9,1.8c-0.6,0-1.2-0.3-1.8-0.9c-2.5-2.5-2.2-5.2,0.9-8.3
		C613.6,1842.5,614.8,1843.5,616,1842.8z M680.8,1508.9v-0.9h-3.7v0.9H680.8z"/>
	<path class="st0" d="M1026.7,1390.5c2.5-0.6,5.2,0.6,8.3,3.7c-1.2,1.9-2.3,3.6-3.2,5.1c-0.9,1.5-2,3.2-3.2,5.1
		c-6.2,2.5-12.2,5.2-18,8.3c-5.9,3.1-11.3,6.2-16.2,9.2c0,1.9,0.9,2.8,2.8,2.8h7.4l0.9,0.9v1.9c-1.2,1.2-2.5,1.8-3.7,1.8
		c-5.5,2.5-10.8,4-15.7,4.6c-3.1,1.2-6,2.5-8.8,3.7c-2.8,1.2-5.7,3.4-8.8,6.5l2.8,5.5c-6.2,1.2-11.4,2.5-15.7,3.7
		c-1.8,1.2-3.9,2.5-6,3.7c-2.2,1.2-4.5,2.5-6.9,3.7c0,1.2-0.6,3.1-1.8,5.6c-1.2,2.5-2.5,4-3.7,4.6c-3.1,1.2-5.5,2.8-7.4,4.6
		c-1.8,1.8-3.7,4-5.5,6.5s-4,3.7-6.5,3.7c-5.6,0.6-9.6,3.7-12,9.2c-0.6,1.8-2.8,4-6.5,6.5c-1.8,0.6-3.9,1.2-6,1.9
		c-2.2,0.6-4.2,1.8-6,3.7h-1.9c-3.1-0.6-5.7-0.1-7.9,1.4c-2.2,1.5-4.5,2.9-6.9,4.2c-4.9,3.7-10.5,5.5-16.7,5.5
		c-7.4,0-12.6,4-15.7,12c-1.2,3.1-2.9,5.9-5.1,8.3c-2.2,2.5-4.8,5.2-7.9,8.3h8.3c0,0.6,0.1,1.1,0.5,1.4c0.3,0.3,0.5,0.8,0.5,1.4
		c-1.2,2.5-2.6,4.8-4.2,6.9c-1.5,2.2-1.7,4.8-0.5,7.9c-1.8-0.6-3.7-0.9-5.5-0.9c-1.2,1.2-1.4,2-0.5,2.3c0.9,0.3,1.4,1.1,1.4,2.3v1.8
		c-4.3,2.5-7.1,6.8-8.3,13c1.2,0.6,2.8,1.9,4.6,3.7v1.8c-1.2,1.2-2.6,2.3-4.2,3.2c-1.5,0.9-3.2,1.7-5.1,2.3c-4.9,1.2-7.4,4-7.4,8.3
		c0,1.2-0.5,2.6-1.4,4.2c-0.9,1.5-1.7,2.9-2.3,4.2c1.2,1.2,2.8,1.2,4.6,0c1.2-1.2,2-2.3,2.3-3.2s1.1-2,2.3-3.2
		c1.2-1.2,2.5-3.1,3.7-5.5c1.2,1.2,1.7,2.5,1.4,3.7c-0.3,1.2-0.2,2.5,0.5,3.7l0.9,0.9c4.3-1.9,8.5-3.5,12.5-5.1
		c4-1.5,8.5-3.2,13.4-5.1c6.2-2.5,12.3-4.8,18.5-6.9c6.2-2.2,12.3-4.5,18.5-6.9c3.1-1.2,6-2.2,8.8-2.8s5.7-1.5,8.8-2.8
		c5.6-1.2,9.6-1.5,12-0.9c1.2,0,2.5-0.1,3.7-0.5c1.2-0.3,2.5-0.5,3.7-0.5c1.2,0.6,2.8,1.8,4.6,3.7c-5.6,3.1-10.5,6.2-14.8,9.2
		c-1.2,1.2-1.8,2.5-1.8,3.7c0,1.9,1.5,2.8,4.6,2.8c1.2-0.6,2.6-0.9,4.2-0.9c1.5,0,3.2-0.3,5.1-0.9c1.2,2.5,2.5,4.6,3.7,6.5
		c-0.6,0.6-0.9,1.1-0.9,1.4s-0.6,1.1-1.8,2.3c-2.5,1.8-4.8,3.9-6.9,6c-2.2,2.2-3.9,4.8-5.1,7.9c-0.6,0.6-1.4,1.2-2.3,1.8
		s-1.7,1.2-2.3,1.9c-1.2,1.2-2.5,2-3.7,2.3c-1.2,0.3-2.5,1.1-3.7,2.3c0,3.1,0.3,5.2,0.9,6.5l-1.9,1.9c-2.5,1.2-4.8,2.5-6.9,3.7
		c-2.2,1.2-4.8,2.5-7.9,3.7c-5.6,2.5-9.6,5.9-12,10.2c-1.8,3.1-4,5.4-6.5,6.9s-5.2,2.9-8.3,4.2c-3.7,1.8-7.3,3.7-10.6,5.5
		c-3.4,1.8-6.9,3.4-10.6,4.6c-1.2,0.6-2.2,1.2-2.8,1.9c-0.6,0.6-1.5,1.2-2.8,1.8c-2.5,1.2-4.6,2.5-6.5,3.7c-1.9,1.2-4.3,1.5-7.4,0.9
		c-2.5,0-6.2,1.8-11.1,5.5c-2.5,2.5-5.1,4.2-7.9,5.1c-2.8,0.9-5.7,2-8.8,3.2c-3.1,1.2-5.9,2.3-8.3,3.2c-2.5,0.9-5.2,2-8.3,3.2
		c-2.5,1.2-4.3,1.9-5.6,1.9c-3.1,0.6-5.2,1.7-6.5,3.2c-1.2,1.5-2.5,3.9-3.7,6.9c1.2,0.6,2.2,0.9,2.8,0.9c0.6,0,1.5,0.3,2.8,0.9
		c-2.5,3.1-4.5,6.2-6,9.2c-1.5,3.1-2.6,6.5-3.2,10.2c1.2,1.2,3.1,1.2,5.6,0c3.1-1.2,6.2-2.6,9.2-4.2c3.1-1.5,6.2-2.9,9.2-4.2
		c0.6-0.6,2.2-1.5,4.6-2.8c4.9-0.6,9.1-1.8,12.5-3.7s7.2-3.4,11.6-4.6c5.5-2.5,10.8-5.1,15.7-7.9c4.9-2.8,9.9-5.1,14.8-6.9
		c3.1-1.2,6.2-2.3,9.3-3.2c3.1-0.9,6.2-2,9.2-3.2c4.9-1.2,9.6-2.9,13.9-5.1s8.9-4.8,13.9-7.9c4.3-1.8,8.5-3.7,12.5-5.5
		c4-1.9,8.2-3.4,12.5-4.6c2.5-1.2,4.3-1.9,5.6-1.9c3.7-2.5,7.4-4.5,11.1-6s7.7-2.9,12-4.2c3.1-1.2,6.2-2.6,9.2-4.2
		c3.1-1.5,6.2-2.9,9.2-4.2c4.9-1.8,9.6-3.5,13.9-5.1c4.3-1.5,8.9-3.2,13.9-5.1c1.8-0.6,3.7-1.2,5.5-1.8c1.9-0.6,3.7-1.2,5.6-1.9
		c3.1-1.2,4.9,0,5.6,3.7c-1.2,2.5-3.1,4.5-5.6,6s-4.9,2.9-7.4,4.2c-4.9,3.1-9.4,5.9-13.4,8.3c-4,2.5-7.9,5.5-11.6,9.2
		c-0.6,0.6-2.2,1.5-4.6,2.8c-1.8,1.2-2.8,2.5-2.8,3.7c1.2,3.1,3.1,4.3,5.6,3.7c0.6,0,3.4-0.6,8.3-1.8c-1.2,1.2-2.2,2.3-2.8,3.2
		c-0.6,0.9-1.2,1.7-1.8,2.3c-3.1,1.2-6.2,2.6-9.2,4.2c-3.1,1.5-6.2,3.2-9.2,5.1c-1.2,0.6-2.5,1.4-3.7,2.3c-1.2,0.9-2.5,2-3.7,3.2
		c0.6,1.2,1.4,2.3,2.3,3.2s0.8,2.3-0.5,4.2c-1.2,1.8-2.6,3.6-4.2,5.1c-1.5,1.5-3.9,2.9-6.9,4.2c-2.5,1.2-4.6,2.6-6.5,4.2
		c-1.8,1.5-3.7,2.9-5.6,4.2c0,3.1,1.2,4,3.7,2.8c1.2-0.6,2.2-1.1,2.8-1.4c0.6-0.3,1.5-0.8,2.8-1.4c-1.2,3.1-2,4.9-2.3,5.5
		s-1.4,1.5-3.2,2.8c-2.5,0-4.3,0.6-5.6,1.8c-1.2,2.5-3.1,4.2-5.6,5.1s-4.6,2-6.5,3.2c-1.8,1.2-4,2.2-6.5,2.8s-5.2,1.2-8.3,1.8
		c-4.9,2.5-8.3,4.3-10.2,5.5c-2.5,1.2-6.2,3.7-11.1,7.4h-1.8c-1.9,1.8-4.2,2.5-6.9,1.8c-2.8-0.6-4.8,0.6-6,3.7
		c-4.3,2.5-8.6,4.6-12.9,6.5c-1.9,1.2-3.6,2.2-5.1,2.8s-3.2,0.9-5.1,0.9s-3.1,0.3-3.7,0.9c-3.7,3.1-7.7,5.4-12,6.9s-8,3.9-11.1,6.9
		c-0.6,1.2-2.5,1.8-5.6,1.8c-0.6,1.2-1.1,2.3-1.4,3.2s-1.1,2-2.3,3.2c-8.6,4.9-17.3,9.4-25.9,13.4s-17.3,7.9-25.9,11.6
		c-1.8,1.2-3.7,1.8-5.6,1.8s-3.7,0.3-5.5,0.9c-3.1,1.2-6.5,2.2-10.2,2.8s-7.4,1.5-11.1,2.8c-1.2,0-1.8,0.6-1.8,1.8
		c-0.6,3.7-3.1,7.7-7.4,12c-1.2,0.6-2,1.4-2.3,2.3s-1.1,2-2.3,3.2c-1.8,4.9-4.3,9.9-7.4,14.8c-0.6,1.2-1.2,2-1.8,2.3
		c-0.6,0.3-1.2,0.8-1.9,1.4c-1.8-1.2-2.3-2.6-1.4-4.2c0.9-1.5,0.8-2.9-0.5-4.2c-2.5,0-3.7,1.5-3.7,4.6c-1.2,2.5-2.5,6.2-3.7,11.1
		c0,2.5-0.3,4.6-0.9,6.5s-1.5,4-2.8,6.5c-2.5-1.2-3.1-3.1-1.8-5.5c1.2-6.2,2.5-11.4,3.7-15.7c0-0.6-0.2-1.2-0.5-1.8
		c-0.3-0.6-0.5-1.5-0.5-2.8c-3.1,4.3-4.9,8.8-5.6,13.4c-0.6,4.6-2.5,8.8-5.6,12.5l-5.5-2.8l-1.8,1.9l-2.8,13.9
		c-1.2,0-2.5,0.1-3.7,0.5c-1.2,0.3-2.5,0.5-3.7,0.5c-0.6,1.2-1.2,2.3-1.8,3.2c-0.6,0.9-1.2,2-1.9,3.2c-1.8,4.3-4.9,6.8-9.2,7.4
		h-11.1c-1.2,0-2.8-0.8-4.6-2.3c-1.9-1.5-2.8-3.2-2.8-5.1c-0.6-3.1-0.9-6.2-0.9-9.2c0-3.1,0-6.2,0-9.2c0.6-4.9,1.2-9.9,1.8-14.8
		s0.6-9.9,0-14.8v-0.9c1.9-3.1,2.5-6.6,1.9-10.6s0-7.9,1.8-11.6c0.6-4.9,1.9-9.7,3.7-14.3s2.5-9.4,1.8-14.3c1.9-4.3,2.2-8.3,0.9-12
		c-1.2-3.7-2.5-7.4-3.7-11.1c-0.6-0.6-0.9-1.5-0.9-2.8c2.5-3.7,5.5-5.9,9.2-6.5c2.5-0.6,4.3-2.5,5.5-5.5c1.2-5.5,2.6-11.1,4.2-16.7
		c1.5-5.5,3.2-11.1,5.1-16.7c1.2-3.1,2.5-6.2,3.7-9.2c1.2-3.1,2.2-6.2,2.8-9.2c0.6-4.9,2.2-10.2,4.6-15.7c-1.9-2.5-3.7-4.8-5.6-6.9
		c-1.8-2.2-4-4.8-6.5-7.9c2.5-1.2,4-2.2,4.6-2.8c3.1-1.2,5.7-2.5,7.9-3.7c2.2-1.2,4.8-2.5,7.9-3.7c2.5-1.8,4.6-4.3,6.5-7.4
		c1.2-4.9,2.9-9.4,5.1-13.4s4.2-8.5,6-13.4c1.2-2.5,2.5-4.9,3.7-7.4s2.2-5.2,2.8-8.3c0-1.8,0.6-3.4,1.8-4.6c1.8-1.8,2.8-3.7,2.8-5.5
		c0.6-4.3,2.8-8.3,6.5-12c3.7-3.7,5.2-7.1,4.6-10.2c0-0.6,0.6-2.2,1.8-4.6c1.2-1.8,2.3-3.7,3.2-5.5c0.9-1.9,2-3.7,3.2-5.5
		c0.6-0.6,0.9-1.9,0.9-3.7l1.8-6.5c3.1-3.1,4.9-6.6,5.6-10.6c0.6-4,1.8-7.5,3.7-10.6c3.7-6.8,7.1-13.6,10.2-20.4l1.8-3.7
		c3.1-4.3,5.6-8.6,7.4-13c1.8-4.3,3.7-8.6,5.5-13c0.6-0.6,0.9-1.2,0.9-1.9c0-0.6,0.3-1.2,0.9-1.8c3.1-3.7,4.6-8.9,4.6-15.7v-4.6
		c1.8-1.2,3.5-2.9,5.1-5.1c1.5-2.2,3.5-4.2,6-6c0.6-0.6,1.5-2.2,2.8-4.6c1.2-3.1,2.5-6,3.7-8.8c1.2-2.8,2.5-5.7,3.7-8.8
		c1.2-1.2,1.8-2.8,1.8-4.6c0-1.8,0.3-3.4,0.9-4.6c1.2-5.6,4.6-9.2,10.2-11.1h1.8c4.9-2.5,10.5-2.2,16.7,0.9c3.1,1.9,6.3,3.4,9.7,4.6
		c3.4,1.2,6.6,2.8,9.7,4.6c3.1,1.2,5.9,2,8.3,2.3c2.5,0.3,5.2,1.1,8.3,2.3c1.2,0.6,3.4,0.3,6.5-0.9c6.2-2.5,12.2-4.9,18-7.4
		c5.9-2.5,11.9-4.9,18-7.4c6.8-3.1,13.3-5.9,19.4-8.3c6.2-2.5,12.6-4.9,19.4-7.4c3.1-1.2,6.2-2.5,9.2-3.7c3.1-1.2,6.2-2.5,9.2-3.7
		c3.1-1.2,6.5-2.3,10.2-3.2s7.1-2,10.2-3.2l13.9-5.5c8-4.3,18.2-7.4,30.5-9.2c4.3-1.2,8-2,11.1-2.3c3.1-0.3,5.6-0.5,7.4-0.5
		s4,0,6.5,0c3.1,0,5.2,0.3,6.5,0.9c1.2,1.2,2.2,2.5,2.8,3.7c-1.2,0.6-2.6,1.2-4.2,1.8c-1.5,0.6-2.9,1.2-4.2,1.9
		c-1.2,0.6-2.5,0.9-3.7,0.9s-2.5,0.6-3.7,1.8c-1.2,0-1.8,0.9-1.8,2.8c0,0.6,0.6,1.5,1.8,2.8c1.2,0,2.5,0.2,3.7,0.5
		C1024.2,1390.4,1025.5,1390.5,1026.7,1390.5z M725.2,1623.6c1.2,0,1.8-0.9,1.8-2.8c-1.2-1.2-1.8-2.2-1.8-2.8
		c-1.8,0.6-2.8,1.8-2.8,3.7C722.4,1624.2,723.3,1624.9,725.2,1623.6z M748.3,1711.5c0.6-0.6,0.9-2.2,0.9-4.6
		c-6.2,1.2-9.6,3.7-10.2,7.4c-0.6,2.5-0.9,4.6-0.9,6.5c0,1.8-0.6,3.7-1.9,5.5c-1.2,1.8-1.8,4-1.8,6.5s-0.6,4.6-1.8,6.5
		c-0.6,0-0.8,0.5-0.5,1.4s0.8,1.4,1.4,1.4c1.8,0,2.8-0.3,2.8-0.9c2.5-4.9,4.8-9.9,6.9-14.8C745.4,1721.4,747,1716.4,748.3,1711.5z
		 M756.6,1625.5c1.2-2.5,0.6-3.7-1.9-3.7c-1.8,2.5-3.1,4.9-3.7,7.4c-0.6,0.6-0.9,1.9-0.9,3.7c1.9-1.2,3.1-2.5,3.7-3.7
		C754.4,1627.9,755.4,1626.7,756.6,1625.5z M789,1620.8c0.6-1.9,0.9-4.9,0.9-9.2c-1.8,1.8-3.1,3.7-3.7,5.5c-0.6,1.8-1.5,3.4-2.8,4.6
		C787.1,1623.6,789,1623.3,789,1620.8z"/>
	<path class="st0" d="M1272.8,1974.2c2.5,0,4.5-0.2,6-0.5s3.8-0.2,6.9,0.5c-1.8,3.1-4.9,5.2-9.2,6.5c-4.3,0-7.4,2.2-9.2,6.5
		c-3.1,4.9-7.1,7.7-12,8.3c-0.6,0-1.1,0.1-1.4,0.5c-0.3,0.3-1.1,0.5-2.3,0.5c0,1.2-0.3,2.3-0.9,3.2c-0.6,0.9-0.9,2-0.9,3.2
		c-0.6,0-0.9,0.1-0.9,0.5c0,0.3-0.3,0.5-0.9,0.5c-1.9,1.2-3.9,2.2-6,2.8c-2.2,0.6-4.2,2.2-6,4.6c-1.8,1.2-3.7,2.2-5.5,2.8
		c-1.9,0.6-4.3,0.9-7.4,0.9c-1.2,0-2.8,0.1-4.6,0.5c-1.8,0.3-3.4,0.5-4.6,0.5c0,2.5,0.3,4,0.9,4.6c-1.8,1.2-5.2,1.9-10.2,1.9
		c-6.2-0.6-11.7,1.5-16.7,6.5c-7.4-1.2-14.5-0.9-21.3,0.9h-1.9c-9.2-1.2-18.5-3.1-27.8-5.5c-9.2-2.5-18.2-6.2-26.8-11.1
		c-3.1-2.5-6-4.9-8.8-7.4s-5.7-5.5-8.8-9.2c-1.8-2.5-3.7-4.9-5.5-7.4s-3.4-5.2-4.6-8.3c-1.2-1.2-2.5-2.9-3.7-5.1s-1.2-4.2,0-6
		c0-1.9-0.3-3.1-0.9-3.7c-2.5-8-3.9-16-4.2-24c-0.3-8,0.1-16,1.4-24.1c0.6-4.9,1.2-9.4,1.9-13.4c0.6-4,1.2-8.5,1.8-13.4
		c1.2-1.8,1.8-4.9,1.8-9.2c-1.2-4.9-1.5-10.2-0.9-15.7s1.2-10.8,1.9-15.7c0.6-5.5,1.2-11.2,1.8-17.1c0.6-5.9,0.9-11.6,0.9-17.1
		c1.2-10.5,3.1-20.4,5.6-29.6c2.5-9.2,5.2-18.5,8.3-27.8c1.2-5.5,2.8-10.6,4.6-15.3c1.9-4.6,3.4-9.4,4.6-14.3
		c1.9-6.8,3.8-13.7,6-20.8s3.8-14.3,5.1-21.7c1.2-6.8,1.1-10.8-0.5-12c-1.5-1.2-4.8-2.8-9.7-4.6c-9.9-3.7-19.1-5.2-27.8-4.6
		c-2.5,0.6-4.6,1.2-6.5,1.9c-1.8,0.6-4,0.9-6.5,0.9c-1.9,0.6-3.9,1.2-6,1.8c-2.2,0.6-4.8,0.6-7.9,0c-1.9,0-2.8,0.9-2.8,2.8
		c0,4.3,0.6,7.1,1.8,8.3c1.9-0.6,2.6-1.8,2.3-3.7c-0.3-1.8,1.1-3.1,4.2-3.7c0,3.7-0.8,7.1-2.3,10.2s-2.9,6.2-4.2,9.2
		c0-0.6-1.5,0.6-4.6,3.7c-1.2-1.2-2.2-1.8-2.8-1.8c-1.2-0.6-2.2,0-2.8,1.8c1.2,0.6,3.1,0.6,5.5,0c-2.5,1.9-4.3,4.3-5.5,7.4
		c-1.2,1.2-1.8,2.8-1.8,4.6c-0.6,3.7-2.8,7.4-6.5,11.1c-1.2,3.1-0.6,5.5,1.9,7.4c3.1,1.9,3.7,4,1.8,6.5c-1.2,3.7-2.2,6.8-2.8,9.2
		c-1.2,2.5-3.1,3.4-5.5,2.8c-0.6,0-1.5,0.6-2.8,1.9c-1.2,1.8-3.1,4-5.6,6.5c-1.8,1.9-2.5,4-1.8,6.5c-0.6,0-0.9,0.3-0.9,0.9
		s-0.3,1.2-0.9,1.8c-0.6,1.2-1.2,2.5-1.9,3.7c-0.6,1.2-0.9,2.5-0.9,3.7c0,1.2-0.2,2.5-0.5,3.7c-0.3,1.2,0.5,2.2,2.3,2.8
		c0.6,0.6,0.8,1.4,0.5,2.3c-0.3,0.9-0.2,2,0.5,3.2c1.2,0,2.5-0.9,3.7-2.8c0,1.2,0.3,2,0.9,2.3c0.6,0.3,0.3,0.8-0.9,1.4
		c0,1.2-0.3,2.3-0.9,3.2s-0.9,2.3-0.9,4.2c-0.6,3.7-2.2,7.1-4.6,10.2c-1.2,1.2-2.2,2.5-2.8,3.7c-0.6,1.2-1.2,2.5-1.8,3.7
		c-6.2,1.2-10.5,4-13,8.3c-3.1-0.6-4.9-1.1-5.5-1.4s-2.2-1.7-4.6-4.2c-3.1,0-5.2,1.8-6.5,5.5c0,1.8-0.8,2.9-2.3,3.2
		c-1.5,0.3-2.9,1.1-4.2,2.3c0,1.2,0.1,2.3,0.5,3.2c0.3,0.9,0.5,2,0.5,3.2c-2.5,3.1-4,4.9-4.6,5.5s-2.2,1.2-4.6,1.8
		c0,2.5-0.6,4.3-1.8,5.6c-1.2,4.9-3.4,7.4-6.5,7.4c-1.8,0-3.4,0.6-4.6,1.9c-1.2-0.6-2.5-1.2-3.7-1.9c-1.2-0.6-2.5-1.2-3.7-1.8
		c-1.2,2.5-3.1,4.3-5.6,5.5s-4.3,3.4-5.5,6.5l-2.8,0.9c-1.8-0.6-3.2,0-4.2,1.8c-0.9,1.9-2.3,2.5-4.2,1.9c-1.2,1.2-2,2.2-2.3,2.8
		c-0.3,0.6-1.1,1.5-2.3,2.8c-1.2,2.5-2.8,3.7-4.6,3.7c0-3.1,0.9-5.6,2.8-7.4c-1.8,0-3.4-0.3-4.6-0.9c3.1-7.4,6.2-14.9,9.2-22.7
		c3.1-7.7,6.2-15.6,9.2-23.6c-2.5-3.7-5.2-6.8-8.3-9.2c-2.5-4.3-3.1-9.2-1.8-14.8c0.6-1.2,1.2-2.9,1.8-5.1c0.6-2.2,0.9-3.8,0.9-5.1
		c-0.6-3.1-0.1-5.9,1.4-8.3c1.5-2.5,2.9-5.2,4.2-8.3c0.6-1.2,1.5-1.8,2.8-1.8c1.2,0,2.2,0.6,2.8,1.8c1.2,1.2,2.5,2,3.7,2.3
		c1.2,0.3,2.5,0.8,3.7,1.4c2.5-3.1,4.2-6.5,5.1-10.2c0.9-3.7,2.3-7.4,4.2-11.1l2.8-8.3c1.2-3.1,2.2-5.9,2.8-8.3
		c0.6-2.5,1.5-4.9,2.8-7.4c1.2-3.7,2.3-7.4,3.2-11.1c0.9-3.7,2-7.1,3.2-10.2c1.2-2.5,2-4.8,2.3-6.9c0.3-2.2,1.1-4.8,2.3-7.9
		c-1.2,0-2-0.1-2.3-0.5c-0.3-0.3-1.1-0.5-2.3-0.5v-3.7h-4.6c0-0.6-0.2-0.9-0.5-0.9s-0.2-0.6,0.5-1.9c2.5-1.8,4.5-3.8,6-6
		c1.5-2.2,3.8-4.2,6.9-6c1.8-1.9,3.4-4.6,4.6-8.3c2.5-6.8,4.6-13.7,6.5-20.8s4-14,6.5-20.8c4.3-14.8,10.5-30.2,18.5-46.3
		c0.6-0.6,0.9-1.8,0.9-3.7c0-3.1,0.3-5.6,0.9-7.4c0.6-1.8,1.5-4,2.8-6.5c0.6-1.2,1.1-2.5,1.4-3.7c0.3-1.2,0.8-2.5,1.4-3.7
		c0-1.2,0.1-1.8,0.5-1.8c0.3,0,0.8-0.6,1.4-1.9c1.2-1.8,2.3-3.5,3.2-5.1c0.9-1.5,1.1-3.5,0.5-6c0-1.2,0.3-2.2,0.9-2.8
		c3.1-4.3,5.5-9.2,7.4-14.8c0-2.5,1.2-5.5,3.7-9.2c2.5-2.5,3.1-5.5,1.9-9.2c3.1,0,4.9-0.3,5.5-0.9c1.2-1.9,2.2-3.4,2.8-4.6
		c0.6-1.2,0.3-2.5-0.9-3.7c0.6,0,0.9-0.3,0.9-0.9h-0.9v0.9c-1.8,0-3.7,0.3-5.5,0.9s-3.4,2.2-4.6,4.6c1.2,0,1.9,0.3,1.9,0.9
		s0.3,1.2,0.9,1.9c-1.9,0-2.8-0.9-2.8-2.8h-4.6c-0.6-4.3,0.5-6.9,3.2-7.9c2.8-0.9,5.1-2.3,6.9-4.2c0-2.5-1.2-3.1-3.7-1.8
		c-4.3,1.2-7.7,2.8-10.2,4.6c-1.2,0-1.8,0.5-1.8,1.4s-0.3,1.7-0.9,2.3c-1.2,1.2-2,2.2-2.3,2.8s-0.8,1.2-1.4,1.9
		c-1.8,2.5-3.6,4.6-5.1,6.5s-2.9,4.3-4.2,7.4c-0.6,1.2-1.2,2-1.8,2.3c-0.6,0.3-1.2,1.1-1.9,2.3c-1.2,1.2-2,2.2-2.3,2.8
		s-1.1,1.5-2.3,2.8c-2.5,1.2-4.6,1.4-6.5,0.5s-4-2-6.5-3.2c-2.5-1.2-4.9-2.9-7.4-5.1s-4.3-4.8-5.6-7.9c-0.6-0.6-1.4-1.1-2.3-1.4
		c-0.9-0.3-2-1.1-3.2-2.3v-3.7c0-1.8-0.3-3.5-0.9-5.1c-0.6-1.5-1.5-3.2-2.8-5.1c-3.1-2.5-5.4-5.2-6.9-8.3s-2.9-6.5-4.2-10.2
		c-1.2-2.5-2.2-4.8-2.8-6.9c-0.6-2.2-1.5-4.5-2.8-6.9c-3.1-4.3-2.5-7.7,1.8-10.2c4.3-3.7,8.5-7.4,12.5-11.1c4-3.7,7.9-7.4,11.6-11.1
		c1.2-0.6,2-1.1,2.3-1.4s1.1-0.8,2.3-1.4c5.6-3.1,10.8-7.1,15.7-12c4.3-1.9,8.6-4,13-6.5l2.8-2.8c6.8-4.9,13.9-8.6,21.3-11.1
		s14.8-5.2,22.2-8.3c3.1-1.2,6-2.5,8.8-3.7c2.8-1.2,5.7-2.5,8.8-3.7c16.7-7.4,33.3-13,50-16.7c4.3-1.2,8.6-2.5,13-3.7
		c4.3-1.2,8.6-2.5,13-3.7c1.2,0,2.6-0.1,4.2-0.5c1.5-0.3,2.9-0.5,4.2-0.5c11.1-1.2,22.8-1.9,35.2-1.9c9.2,0,18.8,0.3,28.7,0.9
		c9.9,0.6,19.6,2.2,29.1,4.6c9.6,2.5,18.6,5.2,27.3,8.3c6.8,3.1,13,6.8,18.5,11.1c5.5,4.3,10.2,9.9,13.9,16.6
		c2.5,4.9,5.1,9.6,7.9,13.9c2.8,4.3,5.4,8.9,7.9,13.9c3.1,6.8,4.9,12.6,5.5,17.6c1.8,6.8,4,12.9,6.5,18.5c3.7,6.2,5.6,13.9,5.6,23.1
		c0,2.5,0,4.9,0,7.4c-0.6,3.1-1.5,6.3-2.8,9.7c-1.2,3.4-2.5,6.6-3.7,9.7c-1.2,1.8-2.3,4-3.2,6.5c-0.9,2.5-2,4.6-3.2,6.5
		c-1.2,5.6-3.1,10.2-5.5,13.9c-2.5,2.5-4.5,5.1-6,7.9c-1.5,2.8-3.2,5.7-5.1,8.8c-0.6,1.2-1.2,2-1.8,2.3c-0.6,0.3-1.2,1.1-1.9,2.3
		c-2.5,2.5-4.8,4.9-6.9,7.4c-2.2,2.5-4.8,4.3-7.9,5.5c-1.2,0.6-2,1.4-2.3,2.3s-1.1,2-2.3,3.2c-0.6,1.2-1.2,2.5-1.8,3.7
		c-0.6,1.2-1.5,2.5-2.8,3.7c-2.5,1.2-3.7,2.5-3.7,3.7c1.2,2.5,1.2,4.3,0,5.5c-1.2,1.2-2.5,2.5-3.7,3.7l-1.8-3.7
		c-3.7,0.6-6.2,3.4-7.4,8.3c-3.1,0.6-6,1.4-8.8,2.3s-4.8,2.9-6,6c-1.8-1.8-2.8-3.7-2.8-5.5c-4.3,1.9-8.5,3.9-12.5,6
		c-4,2.2-8.2,4.2-12.5,6c-1.2-1.8-1.4-2.9-0.5-3.2c0.9-0.3,1.7-0.8,2.3-1.4c1.9-0.6,2.8-2.2,2.8-4.6c0-0.6-0.2-0.9-0.5-0.9
		s-0.5-0.3-0.5-0.9v-0.9c0-0.6-0.6-0.9-1.9-0.9c-2.5,1.2-4.3,2.5-5.5,3.7c-1.2,0.6-2,1.2-2.3,1.8s-1.1,0.6-2.3,0
		c-2.5,0-4.3,0.5-5.5,1.4s-2.5,1.7-3.7,2.3c-1.8,1.2-3.1,2.2-3.7,2.8s-1.5,2.2-2.8,4.6h-2.8h-2.8v3.7c0.6,4.9,2.5,9.6,5.6,13.9
		c1.2,3.7,2.2,7.4,2.8,11.1c0.6,3.7,1.2,7.4,1.9,11.1c0,6.2,0.1,12,0.5,17.6c0.3,5.6-0.2,11.4-1.4,17.6c-1.2,6.8-2.5,13.6-3.7,20.4
		c-1.2,6.8-2.2,13.6-2.8,20.3c-1.2,4.9-2,9.9-2.3,14.8s-0.8,9.9-1.4,14.8l-1.8,1.8c-2.5,0-3.7,1.5-3.7,4.6c0,1.2,0.1,2.5,0.5,3.7
		c0.3,1.2,0.5,2.8,0.5,4.6c-2.5,1.2-4,1.9-4.6,1.9v1.8c3.7,4.9,4,9.6,0.9,13.9c-1.2,2.5-1.8,4.3-1.8,5.5c0,1.2-0.3,2.2-0.9,2.8
		s-1.2,1.5-1.9,2.8c-1.2,3.1-2.5,6-3.7,8.8c-1.2,2.8-3.4,4.8-6.5,6c-1.8,1.2-2.8,2.8-2.8,4.6c-1.2,2.5-2.2,4.8-2.8,6.9
		c-0.6,2.2-1.5,4.8-2.8,7.9c-0.6,3.1-1.7,6.3-3.2,9.7s-2.9,6.6-4.2,9.7c-5.5,11.1-9.2,22.5-11.1,34.2v3.7c1.2,3.1,2.2,6.8,2.8,11.1
		c0.6,4.3,1.5,8,2.8,11.1c0,1.2,0.3,2,0.9,2.3s0.9,1.1,0.9,2.3c1.2,1.2,1.8,2.8,1.8,4.6c0,1.8,0.6,3.4,1.8,4.6
		c3.1,3.7,6,7.4,8.8,11.1s6,7.1,9.7,10.2c3.1,1.2,4.9,2.5,5.5,3.7c1.8,1.9,4,3.4,6.5,4.6c1.2,0.6,2.5,1.1,3.7,1.4s2.5,0.8,3.7,1.4
		c6.2,4.9,12.6,8.3,19.4,10.2c0.6,0,1.2,0.3,1.9,0.9v2.8l-0.9,0.9h-2.8c-8-3.7-16-7.7-24.1-12c-8-4.3-15.4-9.2-22.2-14.8
		c-3.7-3.1-6.9-6.6-9.7-10.6c-2.8-4-5.7-7.9-8.8-11.6c-1.2-1.2-2.2-2.5-2.8-3.7l-1.9,1.8v0.9c0,1.2,0.3,2.2,0.9,2.8
		c0.6,0.6,1.2,1.5,1.8,2.8c1.2,10.5,5.2,18.5,12,24.1c3.7,3.1,7.2,6.2,10.6,9.2c3.4,3.1,7.5,5.2,12.5,6.5c3.7,1.2,7.4,2.6,11.1,4.2
		c3.7,1.5,7.1,2.9,10.2,4.2c4.9,1.2,9.7,2.3,14.3,3.2c4.6,0.9,9.4,1.1,14.3,0.5c6.8,0,13.7-0.3,20.8-0.9
		C1259,1977.3,1266,1976,1272.8,1974.2z M916.6,1866c1.2-1.2,1.9-2.2,1.9-2.8c1.2,0,1.8-0.3,1.8-0.9s-0.3-1.5-0.9-2.8
		C917.6,1861.3,916.6,1863.5,916.6,1866z M943.5,1729.1l0.9,0.9h-0.9l-0.9-0.9H943.5z M1014.7,1543.1l0.9,0.9h-0.9l-1.8-0.9H1014.7z
		 M1026.7,1733.7c2.5-0.6,2.8-3.4,0.9-8.3c-3.1,0.6-5.2,1.8-6.5,3.7c-1.2,1.8-2.5,4-3.7,6.5c-0.6,1.8-0.3,3.7,0.9,5.5
		C1020.2,1736.8,1023,1734.3,1026.7,1733.7z M1036.9,1690.2c3.1-1.2,4-2.8,2.8-4.6C1037.2,1687.4,1036.3,1689,1036.9,1690.2z
		 M1045.2,1488.6c0.6,0,1.8-0.9,3.7-2.8l-0.9-0.9h-0.9C1045.8,1485.5,1045.2,1486.7,1045.2,1488.6z M1065.6,1688.4
		c0-0.6,0.3-0.9,0.9-0.9L1065.6,1688.4z M1187.7,1513.5c0-1.8,0.6-2.8,1.9-2.8c5.5-3.7,10.6-7.9,15.3-12.5s9.4-9.1,14.3-13.4
		c4.3-3.7,8.3-7.2,12-10.6s7.7-6.6,12-9.7c1.2-1.8,2.5-2.5,3.7-1.8c-3.7,4.9-7.3,9.4-10.6,13.4c-3.4,4-7.3,7.6-11.6,10.6
		c-0.6,1.2-0.9,2.2-0.9,2.8v3.7c1.9-1.9,3.4-3.4,4.6-4.6s2.5-2.5,3.7-3.7c1.2-1.2,2.5-2.5,3.7-3.7c1.2-1.2,2.5-2.5,3.7-3.7
		c1.8-1.2,3.4-2.5,4.6-3.7c1.2-1.2,2.5-2.5,3.7-3.7c1.2-1.2,2.6-2.2,4.2-2.8c1.5-0.6,2.9-1.5,4.2-2.8c0,2.5-1.2,4.9-3.7,7.4h3.7
		c3.1-3.1,4.9-5.2,5.6-6.5c3.1-3.1,5.5-6.3,7.4-9.7s4-6.9,6.5-10.6c1.2-1.8,2.3-4,3.2-6.5c0.9-2.5,1.7-4.9,2.3-7.4
		c-3.1-3.1-6.5-4.6-10.2-4.6s-7.1-0.9-10.2-2.8c3.7-1.2,6.9-0.9,9.7,0.9c2.8,1.9,6,2.5,9.7,1.9c-0.6-3.1-2.2-5.2-4.6-6.5
		c-1.9-0.6-3.2-0.9-4.2-0.9s-2-0.3-3.2-0.9c-1.8-0.6-3.4-1.2-4.6-1.9c-1.2-0.6-2.5-0.9-3.7-0.9c-9.2-2.5-18.5-3.7-27.8-3.7h-4.6
		c-3.1-1.2-5.5-1.7-7.4-1.4c-1.8,0.3-4.3,0.8-7.4,1.4c-0.6,0.6-2.5,0.9-5.5,0.9c-1.2,0-2.5-0.1-3.7-0.5c-1.2-0.3-2.5-0.5-3.7-0.5
		c-1.2,0.6-2.5,1.4-3.7,2.3s-2.5,1.4-3.7,1.4c-2.5,0.6-4.9,1.1-7.4,1.4c-2.5,0.3-4.9,0.2-7.4-0.5c-6.8-1.2-12.6,0.3-17.6,4.6
		c-1.8,1.9-3.1,2.8-3.7,2.8c-3.1,0-5.2,0.6-6.5,1.9c-1.2,1.2-2.8,2.2-4.6,2.8v3.7l1.8,0.9c3.7-1.2,6.8-1.9,9.2-1.9
		c1.2-1.2,3.1-0.9,5.6,0.9l-3.7,1.8c-1.2,1.2-2.9,2-5.1,2.3c-2.2,0.3-4.2,0.8-6,1.4c-3.7,3.1-5.2,5.6-4.6,7.4c0.6,2.5,0.6,4.5,0,6
		s-0.9,3.2-0.9,5.1v1.9c2.5-1.2,4.6-1.9,6.5-1.9c1.2,1.2,1.9,2.3,1.9,3.2s0.3,2,0.9,3.2c0.6,2.5,0,4.6-1.8,6.5
		c-1.2,1.2-2.3,1.7-3.2,1.4c-0.9-0.3-2-0.8-3.2-1.4c-2.5-1.8-4.9-0.9-7.4,2.8c0,1.2-0.6,3.1-1.9,5.5c-1.8,5.5-4.9,9.9-9.2,13
		c-1.2,1.2-1.8,3.4-1.8,6.5c0,2.5-0.2,4.9-0.5,7.4s-1.4,4.6-3.2,6.5c0,0.6-0.3,1.2-0.9,1.9v0.9c0.6,3.7,0.5,7.1-0.5,10.2
		c-0.9,3.1-2,6.2-3.2,9.2c-2.5,4.3-4.5,8.5-6,12.5s-3.2,8.2-5.1,12.5v3.7c1.9,0,4,0.6,6.5,1.8c-0.6,1.2-1.1,2-1.4,2.3
		c-0.3,0.3-0.8,1.1-1.4,2.3c-1.2,1.2-2.5,2.5-3.7,3.7c-1.2,1.2-2.5,2.5-3.7,3.7c-1.9,1.8-1.9,3.1,0,3.7c3.7-2.5,7.7-4.5,12-6
		s8.3-3.8,12-6.9c1.8-1.2,4-2.5,6.5-3.7c2.5-1.2,4.9-2.8,7.4-4.6c3.1-1.9,6.8-3.8,11.1-6c4.3-2.2,8-5.1,11.1-8.8
		c5.5-3.7,10.5-8.3,14.8-13.9c2.5-3.1,4.9-5.7,7.4-7.9C1183.6,1519.2,1185.8,1516.6,1187.7,1513.5z M1125.7,1997.3
		c0.6,0,0.9-0.9,0.9-2.8c-2.5-3.7-4.8-7.3-6.9-10.6c-2.2-3.4-4.5-6.6-6.9-9.7c-1.2-1.2-2-2.2-2.3-2.8c-0.3-0.6-1.1-1.2-2.3-1.8
		c-1.9-3.1-4.3-4.6-7.4-4.6h-0.9c-0.6,3.1,0.1,5.2,2.3,6.5c2.2,1.2,3.2,3.4,3.2,6.5c0,0.6-0.8,1.1-2.3,1.4s-2,1.1-1.4,2.3
		c3.7-1.2,5.9-2.2,6.5-2.8c2.5,1.2,4.3,2.6,5.5,4.2c1.2,1.5,2.5,3.2,3.7,5.1c1.8,1.2,3.4,2.8,4.6,4.6
		C1123.2,1994.5,1124.4,1996.1,1125.7,1997.3z M1112.7,1554.2h1.8c-0.6,0.6-0.9,1.2-0.9,1.8c-0.6,0-0.9-0.1-0.9-0.5
		c0-0.3-0.6-0.5-1.9-0.5L1112.7,1554.2z M1122,1468.2c-0.6,3.1-1.2,5.7-1.9,7.9c-0.6,2.2-1.2,4.8-1.8,7.9c0,1.2,0.3,2.2,0.9,2.8h0.9
		c1.2,0,1.9-0.3,1.9-0.9c3.1-3.7,5.5-7.4,7.4-11.1c1.9-3.7,2.2-8.3,0.9-13.9h-3.7C1124.1,1463.3,1122.6,1465.8,1122,1468.2z
		 M1171.9,1623.6c1.2,1.2,2.2,2.3,2.8,3.2c0.6,0.9,1.5,2,2.8,3.2c4.3,3.1,7.5,6.8,9.7,11.1c2.2,4.3,3.8,8.9,5.1,13.9
		c0,1.2,0.5,2.9,1.4,5.1c0.9,2.2,1.7,3.9,2.3,5.1c0,1.9,0.6,3.4,1.8,4.6c0.6-0.6,0.9-1.2,0.9-1.8c0-4.9-0.6-9.2-1.9-13
		c-1.2-2.5-1.8-6.2-1.8-11.1c0-4.9-0.8-9.7-2.3-14.3s-2.9-9.1-4.2-13.4c-0.6-0.6-1.1-0.9-1.4-0.9s-0.8-0.3-1.4-0.9
		c-2.5,0.6-4.6,1.1-6.5,1.4c-1.8,0.3-4,0.8-6.5,1.4C1170.4,1619.6,1170.1,1621.8,1171.9,1623.6z M1229.3,1421
		c-1.2,0.6-1.8,1.2-1.8,1.9c0,0.6-0.3,0.9-0.9,0.9c-8-1.2-15.7-1.1-23.1,0.5c-7.4,1.5-14.8,2.9-22.2,4.2c-1.2,0.6-2.6,1.2-4.2,1.9
		c-1.5,0.6-3.2,0.3-5.1-0.9c1.2-2.5,3.7-4,7.4-4.6c6.2-1.2,12.3-2.3,18.5-3.2s12-1.1,17.6-0.5h9.2h4.6V1421z M1179.3,1794.7
		c-1.2,2.5-1.8,4.9-1.8,7.4C1178.7,1799.7,1179.3,1797.2,1179.3,1794.7z M1184,1776.2c0,0.6-0.6,0.9-1.8,0.9c0,0.6,0.1,1.1,0.5,1.4
		c0.3,0.3,0.5,0.8,0.5,1.4c1.2-1.2,2.2-1.9,2.8-1.9l-0.9-0.9C1184.3,1777.2,1184,1776.9,1184,1776.2z M1188.6,1524.6
		c0.6,0,0.9-0.3,0.9-0.9v-0.9c0,0.6-0.3,0.9-0.9,0.9V1524.6z M1240.4,1423.8c-0.6,0-1.2-0.3-1.8-0.9c-0.6-0.6-1.5-0.9-2.8-0.9
		c4.9-1.9,10.5-1.2,16.7,1.9h-5.6L1240.4,1423.8L1240.4,1423.8z M1252.4,1471.9c-1.9,1.8-2.2,3.4-0.9,4.6c0-0.6,0.1-1.2,0.5-1.9
		C1252.3,1474.1,1252.4,1473.2,1252.4,1471.9z M1252.4,1458c0-0.6,0.3-0.9,0.9-0.9v0.9H1252.4z"/>
	<path class="st0" d="M1604.8,1492.3c1.2,1.9,2.5,2.8,3.7,2.8s2.8,0.6,4.6,1.8c-0.6,3.1-2.2,4.9-4.6,5.6c-2.5,0.6-4,2.2-4.6,4.6
		c-0.6,0.6-1.2,0.6-1.8,0c-5.6-1.2-9.2,0.3-11.1,4.6c-1.8-0.6-2.8-1.9-2.8-3.7c-1.2-1.2-1.9-2.5-1.9-3.7c0-1.2-0.6-2.5-1.8-3.7
		c-1.9,0-3.7,0.3-5.6,0.9c-0.6-2.5-1.5-5.5-2.8-9.2c-0.6-4.3-3.4-7.4-8.3-9.2c-6.8-1.8-13.6-3.4-20.3-4.6c-6.8-1.2-13.6-1.2-20.4,0
		c-6.2,1.2-13,1.9-20.4,1.9s-14.8-0.3-22.2-0.9h-3.7c-0.6,0-1.9,0.9-3.7,2.8c2.5,1.2,4.3,1.9,5.5,1.9s2.8,0.3,4.6,0.9l16.7,2.8
		c2.5,0,5.5,0.6,9.2,1.9c0.6,0,1.5,0.9,2.8,2.8c-2.5,0.6-4.9,0.9-7.4,0.9s-4.9-0.3-7.4-0.9c-5.5-1.8-10.5-1.5-14.8,0.9
		c-3.1,1.8-6.2,2.2-9.2,0.9c-4.3,0.6-8.3,0.3-12-0.9c-3.7-1.2-7.7-1.5-12-0.9c1.2,1.9,0.9,3.4-0.9,4.6l0.9-1.8v-2.8
		c-3.7,0-7.7,1.5-12,4.6c-1.8,1.2-3.4,1.9-4.6,1.9s-2.5,0.9-3.7,2.8c-2.5,0.6-4.6,2.8-6.5,6.5c-1.2,3.7-4,6.2-8.3,7.4l-1.9,0.9
		l-0.9,0.9c-2.5,3.1-1.5,5.5,2.8,7.4c0,1.2-0.3,2.2-0.9,2.8c0,0.6-0.6,0.9-1.9,0.9h-0.9l-0.9-0.9c-1.9-1.2-3.4-1.2-4.6,0
		c-1.9,1.9-3.4,4-4.6,6.5c0.6,1.2,1.5,1.8,2.8,1.8c1.2,0,2.2,0.3,2.8,0.9v1.9c-1.8,3.1-3.4,6.5-4.6,10.2c-1.2,3.7-2.5,7.4-3.7,11.1
		c-0.6,4.3,0.9,7.1,4.6,8.3c6.8,3.1,13.3,6.2,19.4,9.2c6.2,3.1,13,5.9,20.4,8.3c4.9,1.2,9.9,2.8,14.8,4.6c4.9,1.8,10.2,4,15.7,6.5
		c3.7,2.5,5.9,4.3,6.5,5.6c-3.1-0.6-5.9-1.2-8.3-1.9c-2.5-0.6-5.2-1.2-8.3-1.8c-2.5-1.2-4.9-2.5-7.4-3.7c-2.5-1.2-4.9-2.2-7.4-2.8
		c-2.5-1.2-4.6-1.5-6.5-0.9c-3.1,1.2-5.5,0.6-7.4-1.8c-2.5-1.9-5.2-2.8-8.3-2.8c1.2,1.8,2.5,3.1,3.7,3.7s2.5,2.5,3.7,5.5
		c-4.9-2.5-9.2-5.5-13-9.2c-2.5-3.7-5.2-5.2-8.3-4.6c-0.6,0-1.2-0.3-1.8-0.9c-0.6-0.6-1.5-1.2-2.8-1.9c-1.2-1.2-2.5-2.2-3.7-2.8
		s-3.1-1.2-5.5-1.9v4.6c0,1.2,0.6,3.1,1.9,5.6c0,6.8,4,12.3,12,16.6c5.5,2.5,11.1,4.9,16.7,7.4c5.5,2.5,11.1,5.2,16.7,8.3
		c4.9,1.2,9.6,3.1,13.9,5.5c4.3,2.5,8.9,4.9,13.9,7.4l19.4,8.3c1.2,0,2.5,0.3,3.7,0.9c0-1.2,0-2.2,0-2.8s-0.3-1.5-0.9-2.8
		c1.2,0.6,2.8,1.2,4.6,1.8c1.8,0.6,3.4,1.2,4.6,1.8c3.1,8,7.7,13.3,13.9,15.7c1.2,3.1,3.1,5.2,5.5,6.5c2.5,1.2,4.6,2.8,6.5,4.6
		c1.2,0.6,1.9,2.5,1.9,5.5v5.6c1.8-1.2,4-2.5,6.5-3.7c2.5,1.8,3.7,3.4,3.7,4.6c0,1.2,0.6,3.7,1.9,7.4c2.5,2.5,4.9,4.3,7.4,5.5
		c2.5,1.2,5.2,2.8,8.3,4.6c0-1.2,0.6-3.1,1.8-5.5c1.2-0.6,2.2-0.9,2.8-0.9c0.6,0,1.5-0.3,2.8-0.9c-0.6-0.6-0.9-1.5-0.9-2.8v-0.9h2.8
		c0.6,1.2,1.5,3.7,2.8,7.4c-2.5,0.6-4.9,1.8-7.4,3.7l5.5,8.3h-1.8c0,1.2,0,2.2,0,2.8s-0.3,1.2-0.9,1.9c0.6,3.1,1.2,4.9,1.8,5.5
		c0.6,0.6,2.8,0.3,6.5-0.9c0,2.5,0.3,4.3,0.9,5.5c0.6,2.5,2.2,6.2,4.6,11.1c4.3,4.3,4.6,8.6,0.9,13c1.2,0.6,2.5,1.5,3.7,2.8
		c-0.6,3.1-0.9,6.5-0.9,10.2c0,3.7-0.6,7.1-1.9,10.2c1.2,0.6,3.1,2.2,5.5,4.6c0.6-1.8,0.9-3.4,0.9-4.6c-0.6-1.2-1.2-2.2-1.9-2.8
		c-0.6-0.6-1.2-1.5-1.8-2.8l5.5-8.3c3.1,2.5,4.6,4.3,4.6,5.6c0,1.2,0,2.8,0,4.6v13.8c0,4.3-0.9,7.1-2.8,8.3
		c-1.2,0.6-2.5,2.2-3.7,4.6c-0.6,0.6-2.2,1.5-4.6,2.8c-0.6,1.9-0.9,4.6-0.9,8.3c-1.8,0.6-4,1.5-6.5,2.8l-0.9,1.8
		c1.8,3.1,2.2,5.5,0.9,7.4c-1.2,1.8-2.2,3.7-2.8,5.5c0,1.2-0.9,1.8-2.8,1.8c-3.7,1.9-5.6,4.3-5.6,7.4c0,3.1-0.6,5.2-1.8,6.5
		c-1.2,1.2-3.1,2.8-5.5,4.6c-3.1,2.5-6.2,4.6-9.2,6.5c-3.1,1.8-6.2,3.7-9.2,5.5c-1.2,1.2-2.5,2.2-3.7,2.8c-1.2,0.6-3.1,2.2-5.5,4.6
		c-3.7,3.7-6.5,6.2-8.3,7.4c-3.7,2.5-7.1,4.3-10.2,5.6c-3.1,1.2-6.2,3.4-9.3,6.5c-1.2-1.2-1.2-2.5,0-3.7s1.5-2.5,0.9-3.7
		c-1.2-1.2-2.5-3.1-3.7-5.5h-2.8c-4.9,1.2-8.3,2.5-10.2,3.7c-0.6,1.2-2.2,1.8-4.6,1.8c-1.2,1.2-1.8,1.5-1.8,0.9
		c-3.7,0.6-7.4,1.2-11.1,1.8c-3.7,0.6-6.5,2.5-8.3,5.5c-1.2,0-2.5-0.6-3.7-1.8c-1.2-1.2-2.5-0.9-3.7,0.9c-1.9,0.6-2.8,1.5-2.8,2.8
		c0,1.2-0.3,2.5-0.9,3.7c0,1.9-1.2,3.4-3.7,4.6c-1.8,1.2-3.7,0.9-5.5-0.9h-0.9c-2.5-3.1-4.3-4.6-5.6-4.6c-1.2,0-3.4,1.2-6.5,3.7
		c-3.1,3.1-6.8,4.9-11.1,5.5c-0.6-1.2-0.9-2.2-0.9-2.8c0-0.6-0.3-1.2-0.9-1.9c-2.5-0.6-4.6,0-6.5,1.9l-5.6,5.5l-2.8-2.8l-0.9,0.9
		h-1.9l-2.8-5.5c-3.1-1.2-5.2,0-6.5,3.7c-0.6,0.6-1.5,3.1-2.8,7.4c-3.1,0-6.5,0.9-10.2,2.8c0-3.7-0.3-6.2-0.9-7.4
		c0-1.9-1.2-2.8-3.7-2.8h-0.9l-0.9,0.9h-0.9c-1.2,1.9-0.9,3.7,0.9,5.5c0,0.6,0.3,1.2,0.9,1.9c-0.6,0-1.2,0.3-1.8,0.9
		c-0.6,0.6-1.2,0.9-1.9,0.9c-3.7-0.6-7.4-0.9-11.1-0.9s-7.1-0.6-10.2-1.8c-0.6-1.2-1.5-1.9-2.8-1.9c-1.2,0-2.5-0.3-3.7-0.9
		c-13-4.9-24.7-10.5-35.2-16.7c-9.9-5.5-18.5-11.4-25.9-17.6s-14.2-13.6-20.4-22.2c-1.2-1.2-1.8-2.5-1.8-3.7s-0.6-1.9-1.9-1.9
		c-3.7-3.7-6.8-7.7-9.2-12c-2.5-4.3-4.6-8.9-6.5-13.9l-0.9-1.9c-1.2-4.9-1.8-8.3-1.8-10.2c0-2.5,1.5-4.9,4.6-7.4
		c1.2-0.6,1.9-1.5,1.9-2.8c0-1.2,0.3-2.2,0.9-2.8c0.6-1.8,1.2-2.8,1.8-2.8c0.6,0,1.2-0.3,1.9-0.9l13.9,5.5c0-3.1-0.3-5.5-0.9-7.4
		s-1.5-3.7-2.8-5.5c-4.3-6.2-7.7-12.6-10.2-19.4s-4-13.6-4.6-20.3c-0.6-1.2-0.9-2.5-0.9-3.7c0-1.2,0.6-2.8,1.9-4.6
		c0.6,0,0.9-0.6,0.9-1.8c-2.5-0.6-3.4-2.2-2.8-4.6c0.6-2.5,0.6-4.6,0-6.5c-0.6-1.8-0.6-3.4,0-4.6s1.2-3.1,1.9-5.5
		c1.2-1.9,1.2-4.3,0-7.4c0-1.2,0-2.8,0-4.6c0-1.8,0-3.4,0-4.6l5.5-19.4c1.2-1.9,1.8-3.4,1.8-4.6s0.9-2.2,2.8-2.8h0.9
		c3.1-5.5,8-7.1,14.8-4.6c2.5,1.2,4.9,1.9,7.4,1.9s4.3,1.8,5.5,5.5c1.2-1.2,2.5-1.9,3.7-1.9s2.2-0.9,2.8-2.8l2.8,2.8
		c1.2-0.6,1.9-1.5,1.9-2.8c0-1.2,0.6-2.2,1.8-2.8c-1.2,3.7-1.8,7.4-1.8,11.1s0,7.1,0,10.2s0,5.9,0,8.3c0,2.5-0.3,4.9-0.9,7.4
		c0,1.9-0.3,3.7-0.9,5.6c-0.6,1.8-0.3,3.7,0.9,5.5v3.7c-1.2,7.4-0.6,13.6,1.8,18.5c0.6,1.2,0.9,2.5,0.9,3.7c0,1.2,0.3,2.8,0.9,4.6
		c0,1.8,0,3.4,0,4.6s0.9,2.8,2.8,4.6c0.6,0,0.9,0.9,0.9,2.8c2.5,4.9,4.6,8.3,6.5,10.2c1.2,1.2,1.8,2.5,1.8,3.7
		c0,1.2,0.9,2.5,2.8,3.7c-1.2,1.2-2.5,0.9-3.7-0.9l-6.5-6.5c-1.2-1.2-2.5-2.2-3.7-2.8c0.6,8,3.1,15.1,7.4,21.3
		c3.1,4.9,6.2,9.9,9.2,14.8c3.1,4.9,6.8,9.6,11.1,13.9l5.5,5.5c2.5,1.2,4.3,3.1,5.5,5.5l1.9,1.9l0.9,2.8c3.1,4.9,7.4,7.4,13,7.4
		c5.5,0.6,10.2,0.9,13.9,0.9s7.7,0.9,12,2.8c3.1,0,5.2,0.9,6.5,2.8c-2.5,1.2-4.9,1.2-7.4,0c-2.5-1.2-4.6-1.2-6.5,0
		c-1.9,1.2-4,1.2-6.5,0c-2.5-1.2-4.6-1.2-6.5,0c1.2,2.5,3.7,4.3,7.4,5.5c1.8,1.2,3.4,1.8,4.6,1.8s3.1,0,5.5,0h31.5
		c3.1,0,7.1-0.6,12-1.8c6.2-3.7,12-6.8,17.6-9.3s11.1-5.6,16.7-9.2c2.5-1.2,4.6-2.5,6.5-3.7c1.9-1.2,4-2.8,6.5-4.6
		c0-3.1-1.2-4-3.7-2.8c-1.2,0-2.5,0.6-3.7,1.9c-3.1,2.5-6.2,4-9.2,4.6c-3.1,0.6-6.2,1.2-9.2,1.8c-5.5,1.8-11.1,2.8-16.7,2.8
		c-5.5,0-11.1,0.6-16.6,1.8h-2.8c-4.3-1.2-8.3-1.5-12-0.9s-7.7,0.6-12,0h-4.6c1.2-3.7,3.1-5.2,5.5-4.6h4.6c3.1,0,6.2,0,9.2,0
		c17.3,0,34.2-2.8,50.9-8.3c4.9-1.8,9.2-3.4,13-4.6c3.7-1.2,7.4-3.4,11.1-6.5c0.6-0.6,1.2-0.9,1.8-0.9c0.6,0,1.2-0.3,1.9-0.9
		c3.1-3.1,5.2-5.2,6.5-6.5c1.2-1.2,1.2-5.2,0-12c-1.2-3.1-2.2-6.5-2.8-10.2c-0.6-3.7-1.2-7.4-1.8-11.1c0-4.9-1.8-9.2-5.5-13
		c-1.9-2.5-3.7-4.9-5.6-7.4c-1.8-2.5-3.1-5.2-3.7-8.3c0-1.8-0.6-2.8-1.9-2.8c-1.2,0-2.2-0.6-2.8-1.8c-3.7-2.5-6.2-4.9-7.4-7.4
		c-0.6-1.2-1.2-1.8-1.8-1.8c-0.6,0-1.5-0.9-2.8-2.8c-5.5-2.5-11.1-6.2-16.7-11.1c-1.2-1.2-2.8-2.2-4.6-2.8c-1.8-0.6-3.7-1.5-5.5-2.8
		c-3.7-2.5-7.4-4.6-11.1-6.5c-3.7-1.8-7.1-4-10.2-6.5c-4.3-3.1-8.3-5.9-12-8.3c-3.7-2.5-7.4-4.9-11.1-7.4c-4.9-3.7-8.9-6.2-12-7.4
		c-7.4-4.3-13-8.6-16.7-13c-1.2-1.2-2.2-2.2-2.8-2.8c-0.6-0.6-1.5-1.2-2.8-1.8c-1.9-1.9-3.4-3.4-4.6-4.6s-2.5-2.5-3.7-3.7
		c-1.2-1.2-2.5-3.1-3.7-5.5c-1.2-2.5-2.5-4.6-3.7-6.5c-1.8-1.2-2.8-2.8-2.8-4.6c0-1.8-0.6-3.4-1.9-4.6c-3.1-5.5-5.2-11.4-6.5-17.6
		c-1.2-6.2-1.9-12.3-1.9-18.5c-0.6-4.9-0.3-9.6,0.9-13.9c1.2-4.3,1.5-8.9,0.9-13.9c0.6-0.6,0.9-1.2,0.9-1.8s0-1.5,0-2.8
		c2.5-4.3,4.9-8.3,7.4-12c2.5-3.7,5.5-7.4,9.2-11.1l1.8-0.9l0.9-0.9c1.9-3.7,4-6.8,6.5-9.2c2.5-2.5,5.5-5.2,9.2-8.3
		c2.5-3.1,4.6-5.9,6.5-8.3c1.9-2.5,3.7-5.2,5.5-8.3c2.5-3.1,4.6-6.5,6.5-10.2c1.8-3.7,4.6-6.8,8.3-9.2c0.6-3.7,2.2-6.2,4.6-7.4
		c2.5-1.2,4.6-2.8,6.5-4.6c1.2-1.2,2.5-2.2,3.7-2.8c3.1,0,5.9-0.9,8.3-2.8c2.5-1.9,4.6-3.4,6.5-4.6c4.3-2.5,8.3-4.9,12-7.4
		s7.4-5.2,11.1-8.3c2.5-2.5,6.2-4.3,11.1-5.5c3.7-0.6,7.4-2.2,11.1-4.6c3.7-2.5,7.4-4.3,11.1-5.6c0.6-0.6,0.9-1.5,0.9-2.8
		c0-1.2,0.6-2.5,1.8-3.7c3.1-1.8,6.5-3.1,10.2-3.7s8-1.5,12.9-2.8c3.1-0.6,5.9-0.9,8.3-0.9h4.6c4.3,0.6,8.6,1.5,13,2.8
		c8,1.9,15.1,4,21.3,6.5c3.1,1.9,5.9,2.2,8.3,0.9c1.2-1.2,2.5-1.5,3.7-0.9s2.5,0.9,3.7,0.9c2.5,0,3.7,1.5,3.7,4.6v2.8
		c3.7,3.1,8,5.5,13,7.4c4.9,1.9,8.9,5.2,12,10.2c-1.9,1.2-4,2.5-6.5,3.7c1.2,3.1,1.9,5.9,1.9,8.3c0,2.5,0.3,4.6,0.9,6.5l5.5,2.8
		c5.5,4.3,8.6,8.6,9.2,13c0,1.2,0.6,3.1,1.9,5.5c1.2,2.5,3.1,3.7,5.5,3.7c1.2,0,1.8,1.2,1.8,3.7c-0.6,2.5-1.5,4.9-2.8,7.4
		c-1.2,2.5-2.2,5.2-2.8,8.3c1.2,0.6,2.2,0.9,2.8,0.9c0.6,0,1.2,0.3,1.8,0.9C1601.7,1490.4,1603.6,1491,1604.8,1492.3z
		 M1340.3,1877.1c2.5,0,2.8-0.9,0.9-2.8c0-1.2-0.9-1.9-2.8-1.9c-2.5-1.2-6.2-2.5-11.1-3.7c-1.2-0.6-2.5-0.9-3.7-0.9s-2.5,0-3.7,0
		h-3.7c-0.6,0-1.5,0.6-2.8,1.9c0.6,0,0.9,0.3,0.9,0.9c0,1.2,0.3,1.8,0.9,1.8h0.9l1.9,0.9c2.5,1.8,5.5,2.8,9.2,2.8s7.1,0.6,10.2,1.9
		C1338.7,1878,1339.7,1877.7,1340.3,1877.1z M1318.1,1765.1l0.9,1.8h-1.8l-0.9-1.8H1318.1z M1337.5,1787.3c-2.5,0-3.7-1.2-3.7-3.7
		C1336.3,1783.6,1337.5,1784.9,1337.5,1787.3z M1343.1,1807.7l0.9,0.9v0.9l-0.9,0.9l-1.8-1.9L1343.1,1807.7z M1356.9,1803.1h-0.9
		c0,1.2,0.3,1.8,0.9,1.8s0.9-0.3,0.9-0.9C1357.9,1803.4,1357.5,1803.1,1356.9,1803.1z M1373.6,1814.2c0,0.6-0.3,0.9-0.9,0.9v-0.9
		v-0.9L1373.6,1814.2z M1387.5,1877.1v-0.9h-0.9v0.9H1387.5z M1392.1,1826.2c2.5,1.9,5.2,1.5,8.3-0.9
		C1396.7,1825.3,1393.9,1825.6,1392.1,1826.2z M1401.3,1434.9v0.9l-0.9-0.9H1401.3z M1405,1824.3c0,0.6-0.6,1.5-1.8,2.8l1.8,0.9h0.9
		c2.5-1.2,4.3-1.9,5.5-1.9c-0.6-1.2-1.5-1.8-2.8-1.8C1407.5,1824.3,1406.3,1824.3,1405,1824.3z M1413.4,1424.7h-1.9v-0.9
		c0-0.6,0.6-1.5,1.9-2.8h0.9l0.9,0.9l-0.9,0.9L1413.4,1424.7z M1426.3,1821.6c-0.6-0.6-1.5-0.9-2.8-0.9c-1.2,0-2.2,0-2.8,0
		c-0.6,0-1.5,0.6-2.8,1.8v0.9l1.8,0.9h1.9c0.6-0.6,1.2-0.9,1.8-0.9C1424.1,1823.4,1425.1,1822.8,1426.3,1821.6z M1431.9,1414.6
		c-0.6,0.6-1.5,0.9-2.8,0.9c-0.6-0.6-0.9-1.5-0.9-2.8c1.2-1.9,3.1-2.5,5.5-1.9L1431.9,1414.6z M1455.9,1399.8
		c-2.5,1.2-6.2,3.7-11.1,7.4c-1.9-1.9-1.9-3.1,0-3.7c1.8-0.6,3.7-1.2,5.5-1.9C1452.2,1401,1454.1,1400.4,1455.9,1399.8z
		 M1448.5,1601.4c1.2,0.6,2.2,0.9,2.8,0.9c0.6,0,2.2,1.2,4.6,3.7C1451.6,1605.4,1449.1,1603.9,1448.5,1601.4z M1451.3,1496.9h0.9
		H1451.3z M1492.9,1624.5c1.9,1.2,3.4,2.5,4.6,3.7c1.2,1.2,1.2,3.1,0,5.6c-2.5,0-4.3-1.2-5.5-3.7s-3.4-4.3-6.5-5.6
		c-0.6-1.2-1.5-1.8-2.8-1.8c-1.2,0-2.5-0.9-3.7-2.8c-2.5-1.2-4.9-2.8-7.4-4.6c-2.5-1.8-5.2-3.4-8.3-4.6l5.5-2.8
		c1.9,1.2,2.8,2.2,2.8,2.8s0.6,1.2,1.8,1.9c0.6,0.6,2.8,1.5,6.5,2.8c0-0.6,0.9-1.5,2.8-2.8l11.1,5.5
		C1493.2,1619.9,1492.9,1622.1,1492.9,1624.5z M1480.9,1874.3c0,1.2-0.6,2.8-1.9,4.6c1.2,1.2,2.2,2.5,2.8,3.7
		c-1.2,0.6-3.7,1.5-7.4,2.8c1.2-3.7,2.2-6.2,2.8-7.4C1477.8,1876.8,1479,1875.5,1480.9,1874.3z M1483.7,1603.3
		c-0.6-0.6-0.9-0.6-0.9,0v-0.9C1483.3,1602.3,1483.7,1602.7,1483.7,1603.3z M1497.5,1609.7c-2.5,0-4.3-0.3-5.5-0.9
		c-1.2-0.6-4-2.5-8.3-5.5C1488.6,1602.7,1493.2,1604.8,1497.5,1609.7z M1489.2,1880.8h1.8c0.6-0.6,1.2-0.9,1.8-0.9h-0.9l-0.9-0.9
		L1489.2,1880.8z M1504.9,1612.5c7.4,2.5,13.3,8,17.6,16.6c-1.2-0.6-3.7-2.2-7.4-4.6c-3.7-2.5-8-6.2-13-11.1h1.9L1504.9,1612.5z
		 M1511.4,1862.3c-0.6,1.9-0.3,3.1,0.9,3.7h1.8c1.2-1.8,3.1-3.4,5.5-4.6c2.5-1.2,4.3-2.5,5.6-3.7c0.6,0,0.9-0.3,0.9-0.9l0.9-0.9
		v-1.9l-1.8-0.9c-1.2,0.6-3.1,1.5-5.6,2.8c-2.5,1.2-4.6,2.5-6.5,3.7l-0.9,1.9L1511.4,1862.3z M1523.4,1471c0-2.5,1.2-3.7,3.7-3.7
		s3.1-1.5,1.8-4.6c-3.7-1.2-6.8-2.2-9.2-2.8c1.2,1.2,1.9,2.2,1.9,2.8s0,1.5,0,2.8c-0.6,0.6-2.2,1.5-4.6,2.8c0.6,0.6,1.5,0.9,2.8,0.9
		C1521,1469.1,1522.2,1469.8,1523.4,1471z M1545.6,1651.4c2.5,0,4.6,0.9,6.5,2.8c-0.6,3.1-0.9,6.2-0.9,9.2c0,3.1,0.3,6.2,0.9,9.2
		l-2.8-2.8c-2.5-7.4-7.1-14.5-13.9-21.3c-1.9-1.2-3.4-3.1-4.6-5.5c-1.2-2.5-3.1-4.9-5.5-7.4l1.8-1.8l2.8-0.9
		c3.1-1.2,4.6-0.6,4.6,1.9c-0.6,3.1-0.3,5.2,0.9,6.5c1.2,1.2,2.2,2.8,2.8,4.6C1538.8,1649.5,1541.3,1651.4,1545.6,1651.4z
		 M1540.1,1468.2c2.5,1.2,4.3,0.3,5.5-2.8c-1.8-1.2-4-1.5-6.5-0.9l-0.9,1.9C1538.2,1467.6,1538.8,1468.2,1540.1,1468.2z
		 M1554.9,1470.1v-0.9l-0.9-0.9l-0.9,0.9C1553.6,1469.8,1554.3,1470.1,1554.9,1470.1z M1554.9,1682.8c-1.8-3.7-1.5-6.8,0.9-9.2
		c1.2-1.2,2.5-1.8,3.7-1.8s2.5-0.3,3.7-0.9c-1.8,2.5-3.4,4.6-4.6,6.5C1557.3,1679.1,1556.1,1681,1554.9,1682.8z M1571.5,1438.6v-0.9
		h-0.9h-0.9C1570.3,1438.3,1570.9,1438.6,1571.5,1438.6z M1578,1415.5l-1.8-2.8h-2.8l0.9,0.9l0.9,1.9H1578L1578,1415.5z
		 M1574.3,1731.8c-1.8,4.3-0.6,8,3.7,11.1c3.1-4.9,4.3-7.7,3.7-8.3c-0.6-1.9-0.9-3.4-0.9-4.6s-1.2-2.8-3.7-4.6
		c-1.2,0.6-1.8,1.5-1.8,2.8C1575.2,1729.4,1574.9,1730.6,1574.3,1731.8z M1600.2,1792c-0.6,3.1-1.5,4.6-2.8,4.6
		c-1.2,0-2.8,0.9-4.6,2.8c-2.5-0.6-3.1-1.5-1.9-2.8c1.2-1.2,2.5-2.5,3.7-3.7C1595.9,1791.7,1597.7,1791.4,1600.2,1792z
		 M1597.4,1801.2l1.8-1.9l0.9,1.9c-0.6,0-1.2,0.3-1.8,0.9C1597.7,1802.1,1597.4,1801.8,1597.4,1801.2z"/>
</g>
</svg>
