<?xml version="1.0" encoding="utf-8"?>
<!-- Generator: Adobe Illustrator 19.1.0, SVG Export Plug-In . SVG Version: 6.00 Build 0)  -->
<svg version="1.1" id="Layer_1" xmlns="http://www.w3.org/2000/svg" xmlns:xlink="http://www.w3.org/1999/xlink" x="0px" y="0px"
	 viewBox="0 0 2834.6 2834.6" style="enable-background:new 0 0 2834.6 2834.6;" xml:space="preserve">
<style type="text/css">
	.st0{fill:#543A68;}
</style>
<path class="st0" d="M603.5,1260.1h2.8l46.1,136.4h178.1l-70.6-138.1c-6.5-12.4-15-19.2-21.9-25.4l0.5-3.4
	c60.5-19.2,89.6-46.2,99.7-110.5c16.9-107.1-57.8-147.7-153.6-147.7H498.1l-67.2,425h151L603.5,1260.1z M630.8,1087.6h11.8
	c26.5,0,49,3.9,43.8,36.6c-5,31.6-31,35.5-56.3,35.5h-10.7L630.8,1087.6z"/>
<polygon class="st0" points="1163.9,1280.4 1029.2,1280.4 1035.8,1238.7 1154.7,1238.7 1172.1,1128.2 1053.2,1128.2 1059.6,1087.6 
	1189.8,1087.6 1208.2,971.5 922.4,971.5 855.3,1396.5 1145.5,1396.5 "/>
<path class="st0" d="M1395.8,1396.5c74.4,0,160.3-29.9,174.1-117.2c8-50.7-15.9-84.5-59.6-100.9l0.5-3.4
	c39.1-11.8,63.4-48.5,69.3-85.7c15.5-98.1-65.4-117.8-147.6-117.8h-179.8l-67.2,425H1395.8z M1379.7,1074.1h10.7
	c22.6,0,51.7-2.2,46.7,29.3c-4.6,29.3-30.4,31.6-52.9,31.6H1370L1379.7,1074.1z M1355.9,1224.6h15.2c24.8,0,64.4-0.6,58.7,34.9
	c-5.5,34.9-42.2,35.5-67.6,35.5h-17.5L1355.9,1224.6z"/>
<polygon class="st0" points="1866.9,1396.5 1885.3,1280.4 1750.6,1280.4 1757.2,1238.7 1876.1,1238.7 1893.5,1128.2 1774.6,1128.2 
	1781,1087.6 1911.2,1087.6 1929.6,971.5 1643.8,971.5 1576.7,1396.5 "/>
<polygon class="st0" points="2192.1,1396.5 2213.7,1260.1 2084.1,1260.1 2129.7,971.5 1975.2,971.5 1908.1,1396.5 "/>
<g>
</g>
<g>
</g>
<g>
</g>
<g>
</g>
<g>
</g>
<g>
</g>
</svg>
